<svg viewBox="0 0 312 256" xmlns="http://www.w3.org/2000/svg">
    <path fill-rule="evenodd" clip-rule="evenodd" d="M145.125 18.6078C173.354 14.4016 203.149 28.173 222.745 42.8809C241.011 56.5901 234.19 78.9132 247.231 95.242C259.932 111.145 288.188 119.064 297.22 136.13C307.83 156.177 321.738 182.536 302.149 199.011C281.424 216.442 238.718 204.35 207.757 211.374C184.859 216.569 168.387 230.286 145.125 234.636C116.976 239.901 85.3942 248.272 59.396 239.121C33.4587 229.992 22.121 207.969 14.2075 188.556C7.22755 171.433 18.9753 153.892 17.413 136.13C15.7174 116.855 -10.3869 96.1299 4.64775 79.8762C19.9226 63.363 60.6879 73.9034 84.6339 63.4594C110.054 52.3727 115.767 22.982 145.125 18.6078Z"/>
    <path d="M104.316 172.57H60.8807V254.928H104.316V172.57Z" fill="#E0E0E0"/>
    <path d="M104.316 172.57H83.9526V254.928H104.316V172.57Z" fill="#EBEBEB"/>
    <path d="M73.8942 180.317H69.992V189.799H73.8942V180.317Z" fill="#F5F5F5"/>
    <path d="M73.8942 217.424H69.992V226.905H73.8942V217.424Z" fill="#F5F5F5"/>
    <path d="M72.4167 193.666C78.7878 193.666 83.9526 193.601 83.9526 193.521C83.9526 193.441 78.7878 193.376 72.4167 193.376C66.0455 193.376 60.8807 193.441 60.8807 193.521C60.8807 193.601 66.0455 193.666 72.4167 193.666Z" fill="#F5F5F5"/>
    <path d="M73.8942 199.009H69.992V208.491H73.8942V199.009Z" fill="#F5F5F5"/>
    <path d="M72.4167 212.358C78.7878 212.358 83.9526 212.293 83.9526 212.213C83.9526 212.133 78.7878 212.068 72.4167 212.068C66.0455 212.068 60.8807 212.133 60.8807 212.213C60.8807 212.293 66.0455 212.358 72.4167 212.358Z" fill="#F5F5F5"/>
    <path d="M92.1799 180.317H88.2778V189.799H92.1799V180.317Z" fill="#E0E0E0"/>
    <path d="M100.654 180.317H96.7514V189.799H100.654V180.317Z" fill="#E0E0E0"/>
    <path d="M92.1799 198.309H88.2778V207.791H92.1799V198.309Z" fill="#E0E0E0"/>
    <path d="M100.654 198.309H96.7514V207.791H100.654V198.309Z" fill="#E0E0E0"/>
    <path d="M92.1799 216.294H88.2778V225.776H92.1799V216.294Z" fill="#E0E0E0"/>
    <path d="M100.654 216.294H96.7514V225.776H100.654V216.294Z" fill="#E0E0E0"/>
    <path d="M107.58 170.576H57.6163V172.639H107.58V170.576Z" fill="#E0E0E0"/>
    <path d="M82.936 172.98C94.9111 172.98 104.619 172.915 104.619 172.835C104.619 172.755 94.9111 172.69 82.936 172.69C70.961 172.69 61.2532 172.755 61.2532 172.835C61.2532 172.915 70.961 172.98 82.936 172.98Z" fill="#EBEBEB"/>
    <path d="M71.2233 203.457H32.3408V254.695H71.2233V203.457Z" fill="#EBEBEB"/>
    <path d="M71.217 203.457H52.988V254.695H71.217V203.457Z" fill="#E0E0E0"/>
    <path d="M43.9903 210.396H40.4923V218.881H43.9903V210.396Z" fill="#F5F5F5"/>
    <path d="M43.9903 243.61H40.4923V252.095H43.9903V243.61Z" fill="#F5F5F5"/>
    <path d="M42.6644 222.382C48.366 222.382 52.988 222.306 52.988 222.212C52.988 222.118 48.366 222.042 42.6644 222.042C36.9628 222.042 32.3408 222.118 32.3408 222.212C32.3408 222.306 36.9628 222.382 42.6644 222.382Z" fill="#F5F5F5"/>
    <path d="M43.9903 227.126H40.4923V235.611H43.9903V227.126Z" fill="#F5F5F5"/>
    <path d="M42.6644 239.113C48.366 239.113 52.988 239.036 52.988 238.942C52.988 238.848 48.366 238.772 42.6644 238.772C36.9628 238.772 32.3408 238.848 32.3408 238.942C32.3408 239.036 36.9628 239.113 42.6644 239.113Z" fill="#F5F5F5"/>
    <path d="M60.3629 210.396H56.8649V218.881H60.3629V210.396Z" fill="#F5F5F5"/>
    <path d="M67.9462 210.396H64.4482V218.881H67.9462V210.396Z" fill="#F5F5F5"/>
    <path d="M60.3629 226.496H56.8649V234.981H60.3629V226.496Z" fill="#F5F5F5"/>
    <path d="M67.9462 226.496H64.4482V234.981H67.9462V226.496Z" fill="#F5F5F5"/>
    <path d="M60.3629 242.601H56.8649V251.086H60.3629V242.601Z" fill="#F5F5F5"/>
    <path d="M67.9462 242.601H64.4482V251.086H67.9462V242.601Z" fill="#F5F5F5"/>
    <path d="M74.1467 201.671H29.4173V203.52H74.1467V201.671Z" fill="#E0E0E0"/>
    <path d="M52.0851 203.867C62.8048 203.867 71.4948 203.79 71.4948 203.696C71.4948 203.602 62.8048 203.526 52.0851 203.526C41.3654 203.526 32.6754 203.602 32.6754 203.696C32.6754 203.79 41.3654 203.867 52.0851 203.867Z" fill="#EBEBEB"/>
    <path d="M52.8933 10.8321C52.8933 10.8321 46.7055 12.7247 52.4135 25.9726C58.1214 39.2205 62.2509 45.9202 62.2509 45.9202C62.2509 45.9202 63.217 48.9798 60.6724 49.2763C58.1278 49.5728 52.6534 48.3237 51.3274 51.3266C49.9572 54.4367 52.0725 57.5972 56.5934 60.5433C61.1144 63.4894 70.7876 70.3152 71.6653 70.9334C72.543 71.5517 73.3259 72.99 71.6211 73.4569C69.9163 73.9237 57.3827 74.441 57.9636 80.371C58.5445 86.301 72.4861 92.4455 74.0079 93.1458C75.5296 93.846 75.8453 94.5273 75.6622 95.3727C75.479 96.218 71.2423 96.0035 67.6874 96.2559C64.1325 96.5082 60.0599 97.486 60.6787 100.874C61.2975 104.261 69.3038 111.838 89.7238 115.213L99.296 116.159L105.067 108.444C116.369 91.0829 116.186 80.0556 114.103 77.324C112.019 74.5924 108.565 76.9392 105.951 79.3743C103.337 81.8093 100.66 85.0835 99.9148 84.6482C99.1697 84.2129 98.8856 83.5127 99.3907 81.9229C99.8959 80.3332 104.783 65.9056 100.799 61.4707C96.8146 57.0358 88 65.956 86.4972 66.8834C84.9945 67.8107 84.4704 66.2525 84.603 65.199C84.7356 64.1455 86.2321 52.399 87.1287 47.0746C88.0253 41.7502 87.1287 38.0534 83.8832 36.981C80.7766 35.9338 77.9984 40.8102 76.06 42.482C74.1215 44.1538 72.5177 41.378 72.5177 41.378C72.5177 41.378 70.3835 33.8078 64.4356 20.6608C58.4877 7.51385 52.767 10.8763 52.767 10.8763" fill="#EBEBEB"/>
    <path d="M99.6559 118.456C95.3244 108.76 87.9116 91.3922 81.4712 76.5167C75.0307 61.6411 69.1901 48.1914 64.9091 38.4699L59.8262 26.9695L58.4434 23.8152L58.0899 23.0014C58.0141 22.8185 57.9762 22.7175 57.9762 22.7175C57.9762 22.7175 58.0267 22.8058 58.1151 22.9888L58.494 23.7963L59.9273 26.9001C61.1901 29.6001 62.9328 33.5177 65.0986 38.369C69.4301 48.0652 75.3022 61.515 81.7427 76.3842C88.1831 91.2534 95.5644 108.633 99.8454 118.355" fill="#E0E0E0"/>
    <path d="M58.9107 53.3894C59.129 53.4442 59.3407 53.5225 59.5421 53.6228C59.9588 53.7868 60.5524 54.0455 61.2848 54.3672C62.7434 54.9981 64.7386 55.9633 66.9233 57.042L72.4987 59.8367L74.1909 60.6695C74.4134 60.7567 74.6252 60.8688 74.8223 61.0038C74.6043 60.9511 74.3926 60.8749 74.1909 60.7767C73.7742 60.6127 73.1807 60.354 72.4545 60.026C71.0023 59.3951 69.0196 58.3921 66.8349 57.307L61.2406 54.5565L59.5421 53.7301C59.3192 53.6412 59.1073 53.5269 58.9107 53.3894Z" fill="#E0E0E0"/>
    <path d="M79.765 51.197C82.0249 46.0582 83.7948 41.8652 83.7182 41.8316C83.6416 41.7979 81.7475 45.9364 79.4876 51.0752C77.2277 56.2139 75.4578 60.4069 75.5344 60.4405C75.611 60.4742 77.5051 56.3357 79.765 51.197Z" fill="#E0E0E0"/>
    <path d="M84.382 83.7207C84.5039 83.5163 84.6479 83.3259 84.8114 83.1529L86.0742 81.6767C87.116 80.415 88.5556 78.6991 90.0647 76.7308C91.5738 74.7626 92.8935 72.9457 93.8532 71.6083L94.9645 70.0312C95.0888 69.8287 95.2349 69.6404 95.4002 69.4697C95.3104 69.692 95.196 69.9036 95.0592 70.1006C94.8256 70.4917 94.472 71.0469 94.0237 71.7282C93.1271 73.0908 91.839 74.9392 90.3173 76.9138C88.7956 78.8884 87.337 80.6043 86.251 81.8155C85.708 82.4464 85.2597 82.9069 84.9376 83.2349C84.7715 83.4175 84.5851 83.5804 84.382 83.7207Z" fill="#E0E0E0"/>
    <path d="M67.9589 80.6549C68.1708 80.6496 68.3827 80.6687 68.5903 80.7117L70.3582 80.9703C71.8484 81.2038 73.9005 81.5381 76.1609 81.9355C78.4214 82.333 80.4735 82.6989 81.951 82.9828L83.7 83.3361C83.9165 83.3678 84.1284 83.425 84.3314 83.5064C84.1195 83.5116 83.9076 83.4926 83.7 83.4496L81.9321 83.191C80.4419 82.9575 78.3898 82.6232 76.1231 82.2257C73.8563 81.8283 71.8105 81.4624 70.333 81.1785L68.584 80.8252C68.3697 80.793 68.1599 80.7358 67.9589 80.6549Z" fill="#E0E0E0"/>
    <path d="M73.1617 102.199C73.4434 102.198 73.7246 102.223 74.0015 102.274L76.2683 102.596C78.1625 102.88 80.8145 103.296 83.719 103.769C86.6235 104.242 89.2565 104.69 91.1571 105.031L93.4049 105.447C93.684 105.487 93.9588 105.552 94.2257 105.643C93.9441 105.644 93.6629 105.619 93.386 105.567L91.1192 105.246C89.2249 104.962 86.573 104.545 83.6685 104.072C80.764 103.599 78.131 103.151 76.2304 102.81L73.9826 102.394C73.7035 102.355 73.4287 102.289 73.1617 102.199Z" fill="#E0E0E0"/>
    <path d="M93.7332 105.422C93.8863 105.163 94.0617 104.919 94.2573 104.69L95.7601 102.76C97.0229 101.126 98.7719 98.8676 100.622 96.3189C102.472 93.7703 104.101 91.4235 105.257 89.7139L106.633 87.6889C106.789 87.4322 106.966 87.1894 107.163 86.9634C107.041 87.2384 106.896 87.5023 106.728 87.7519C106.431 88.2503 105.989 88.9569 105.427 89.8275C104.309 91.5686 102.712 93.9406 100.856 96.4893C98.9992 99.0379 97.2313 101.284 95.9179 102.886C95.2865 103.681 94.7246 104.324 94.3394 104.779C94.156 105.01 93.9532 105.225 93.7332 105.422Z" fill="#E0E0E0"/>
    <path d="M237.475 142.989C224.682 134.063 221.784 117.49 222.289 102.615C222.371 100.129 222.1 97.5049 223.287 95.3222C224.474 93.1394 227.233 91.6506 229.462 92.6978C231.312 93.5684 232.114 95.7133 233.15 97.4923C234.53 99.8613 236.553 101.792 238.984 103.063C240.569 103.883 242.533 104.388 244.092 103.523C246.239 102.337 246.491 99.3786 246.479 96.9056C246.449 92.2794 246.42 87.6699 246.39 83.0773C246.39 80.6044 246.39 78.081 247.136 75.7342C247.881 73.3874 249.604 71.2047 251.96 70.5486C254.315 69.8925 257.226 71.2489 257.724 73.665C257.933 74.6744 257.724 75.7153 257.794 76.7436C257.863 77.7719 258.343 78.9074 259.316 79.1913C260.288 79.4752 261.292 78.7812 262.037 78.0558C264.563 75.5323 266.324 72.3402 267.947 69.1418C269.57 65.9434 271.142 62.6693 273.459 59.944C275.777 57.2187 278.984 55.0612 282.526 54.8593C286.069 54.6574 289.851 56.8465 290.735 60.3225C291.619 63.7985 289.598 67.3439 287.382 70.1701C284.096 74.3576 280.221 78.0484 275.878 81.128C275.095 81.6832 274.248 82.2762 273.983 83.1972C273.447 84.8437 275.006 86.4839 276.642 87.0265C278.485 87.6573 280.487 87.4492 282.419 87.6573C284.351 87.8655 286.441 88.7361 287.167 90.5592C288.184 93.0827 286.062 95.7386 284.01 97.4986C279.838 100.975 275.099 103.709 269.999 105.58C268.181 106.249 266.261 106.842 264.796 108.103C263.331 109.365 262.441 111.605 263.331 113.346C264.222 115.087 266.488 115.648 268.383 115.295C270.277 114.942 271.994 113.907 273.813 113.219C277.216 111.958 281.604 112.172 283.789 115.112C285.222 117.042 285.349 119.73 284.623 122.051C283.897 124.373 282.432 126.335 280.872 128.164C275.423 134.555 268.439 139.703 260.547 142.434C252.654 145.166 245.342 145.91 237.5 143.065" fill="#F5F5F5"/>
    <path d="M237.279 154.036C237.974 147.136 239.33 140.319 241.326 133.678C243.801 125.563 246.74 117.597 250.128 109.819L252.755 103.681C253.62 101.669 254.485 99.6752 255.445 97.7763C257.3 94.1326 259.355 90.5944 261.601 87.178C263.723 83.9039 265.857 80.8695 267.871 78.0495C269.885 75.2296 271.824 72.6431 273.686 70.3531C276.609 66.7405 279.814 63.3654 283.271 60.2595C284.49 59.1555 285.469 58.3354 286.138 57.7802L286.902 57.1494C286.986 57.074 287.077 57.0064 287.174 56.9475C287.101 57.0328 287.021 57.111 286.934 57.1809L286.201 57.8118C285.57 58.3859 284.597 59.2312 283.398 60.3352C279.99 63.492 276.824 66.8998 273.926 70.5298C272.083 72.8198 270.17 75.4189 268.168 78.2388C266.166 81.0587 264.051 84.0994 261.942 87.3736C259.716 90.7822 257.678 94.3097 255.836 97.9403C254.883 99.8329 254.031 101.807 253.165 103.826L250.539 109.958C247.151 117.719 244.199 125.663 241.699 133.754C239.699 140.382 238.327 147.183 237.601 154.067" fill="#E0E0E0"/>
    <path d="M255.578 97.7195C255.46 97.3779 255.38 97.0247 255.338 96.666C255.205 95.9846 255.053 94.9879 254.877 93.7577C254.529 91.2974 254.157 87.8782 253.772 84.112C253.387 80.3458 252.963 76.9392 252.578 74.4915C252.389 73.2676 252.225 72.2772 252.105 71.5895C252.019 71.2382 251.973 70.8786 251.966 70.5171C252.107 70.8496 252.21 71.1965 252.275 71.5517C252.452 72.2267 252.66 73.2108 252.907 74.4347C253.374 76.8824 253.841 80.289 254.233 84.0615L255.205 93.7199C255.331 94.8806 255.432 95.8585 255.521 96.647C255.579 97.0014 255.598 97.361 255.578 97.7195Z" fill="#E0E0E0"/>
    <path d="M287.401 91.7956C286.985 91.8849 286.563 91.9356 286.138 91.947C285.323 92.0227 284.136 92.1173 282.684 92.2876C279.767 92.6031 275.739 93.1771 271.363 94.0036C266.987 94.83 263.016 95.7636 260.181 96.527C258.76 96.8929 257.617 97.2209 256.828 97.4417C256.417 97.5824 255.994 97.6838 255.565 97.7445C255.945 97.5499 256.342 97.3914 256.752 97.2714C257.529 97.0001 258.646 96.6405 260.073 96.2116C262.896 95.3788 266.842 94.401 271.256 93.5556C275.014 92.8324 278.808 92.3018 282.621 91.9659C284.086 91.8397 285.273 91.7893 286.1 91.7703C286.533 91.7368 286.969 91.7453 287.401 91.7956Z" fill="#E0E0E0"/>
    <path d="M241.718 133.047C241.627 132.93 241.553 132.8 241.497 132.662L240.954 131.514C240.487 130.511 239.849 129.048 239.06 127.224C237.525 123.584 235.562 118.481 233.472 112.828C231.382 107.176 229.469 102.06 228.01 98.3945L226.274 94.0542L225.806 92.8682C225.743 92.734 225.698 92.5918 225.674 92.4456C225.765 92.5654 225.839 92.697 225.895 92.8367L226.438 93.9848C226.905 94.9879 227.543 96.4515 228.332 98.2746C229.866 101.915 231.83 107.018 233.92 112.671C236.01 118.323 237.923 123.433 239.382 127.105L241.118 131.445L241.585 132.631C241.648 132.763 241.692 132.903 241.718 133.047Z" fill="#E0E0E0"/>
    <path d="M284.004 119.452C283.873 119.527 283.733 119.584 283.587 119.622L282.356 120.033L277.829 121.496C274.002 122.758 268.742 124.505 262.933 126.474C257.124 128.442 251.84 130.164 247.988 131.325C246.094 131.905 244.502 132.359 243.416 132.65L242.154 132.978C242.009 133.025 241.858 133.053 241.705 133.06C241.836 132.983 241.976 132.923 242.122 132.883L243.353 132.473L247.881 131.009C251.707 129.748 256.967 128 262.782 126.032C268.597 124.064 273.876 122.341 277.727 121.181C279.622 120.6 281.213 120.146 282.299 119.856L283.562 119.528C283.705 119.483 283.854 119.457 284.004 119.452Z" fill="#E0E0E0"/>
    <path d="M96.3663 157.878C106.406 147.784 106.298 132.378 103.4 119.061C102.914 116.841 102.731 114.437 101.31 112.671C99.8895 110.904 97.1618 110.015 95.3244 111.321C93.8027 112.406 93.4302 114.475 92.7988 116.235C91.9442 118.591 90.4404 120.658 88.4609 122.197C87.1981 123.193 85.487 123.969 83.94 123.458C81.8185 122.745 81.105 120.121 80.7072 117.894L78.5162 105.447C78.1247 103.22 77.7143 100.949 76.6219 98.9622C75.5296 96.975 73.6606 95.297 71.4317 95.0888C69.2028 94.8806 66.8097 96.5776 66.7592 98.836C66.8437 99.7723 66.9914 100.702 67.2012 101.618C67.3085 102.552 67.0623 103.649 66.2351 104.072C65.408 104.495 64.3914 104.028 63.6021 103.498C60.8934 101.669 58.8097 99.0821 56.8271 96.4514C54.8444 93.8208 52.8933 91.1523 50.3614 89.0831C47.8294 87.0139 44.5902 85.5944 41.37 85.9982C38.1498 86.4019 35.1127 88.9821 34.8728 92.2562C34.6328 95.5304 37.0448 98.3881 39.501 100.565C43.143 103.791 47.2327 106.475 51.6431 108.532C52.4804 108.814 53.2059 109.356 53.7142 110.078C54.4656 111.472 53.329 113.232 51.9525 113.958C50.3929 114.809 48.5618 114.967 46.8633 115.484C45.1648 116.002 43.4221 117.112 43.0748 118.872C42.576 121.313 44.9123 123.345 47.0717 124.55C51.383 126.989 56.0817 128.671 60.9628 129.521C62.7118 129.824 64.5303 130.032 66.0583 130.94C67.5864 131.849 68.7482 133.703 68.2367 135.413C67.7253 137.122 65.7679 137.999 63.9936 137.993C62.2193 137.987 60.5145 137.362 58.7718 137.015C55.5011 136.416 51.5926 137.35 50.1151 140.346C49.1427 142.314 49.4837 144.762 50.5003 146.705C51.6172 148.609 53.1051 150.269 54.876 151.588C60.8239 156.446 67.9463 159.928 75.4917 161.095C83.0371 162.262 89.7301 161.726 96.3284 157.871"/>
    <path d="M98.3489 167.776C96.5936 161.678 94.2572 155.763 91.3718 150.112C87.8145 143.219 83.8637 136.535 79.5391 130.095L76.1673 125.01C75.056 123.345 73.9574 121.692 72.7766 120.14C70.514 117.161 68.0878 114.309 65.509 111.598C63.0654 108.999 60.6471 106.621 58.374 104.413C56.1009 102.205 53.9541 100.199 51.8831 98.4449C48.6618 95.666 45.2245 93.1473 41.6036 90.9126C40.3408 90.1177 39.3116 89.5373 38.6234 89.1525L37.8341 88.7172C37.7457 88.6648 37.6527 88.6204 37.5563 88.5847C37.6348 88.6495 37.7194 88.7065 37.8088 88.755L38.5792 89.2219C39.2548 89.6319 40.2524 90.2312 41.5216 91.045C45.098 93.3279 48.4982 95.8753 51.6937 98.6657C53.7268 100.426 55.8736 102.451 58.1404 104.659C60.4072 106.867 62.8066 109.258 65.2375 111.857C67.7983 114.558 70.2097 117.397 72.4609 120.361C73.629 121.906 74.7214 123.515 75.8327 125.218L79.1981 130.303C83.5116 136.731 87.462 143.395 91.0308 150.263C93.9201 155.895 96.273 161.786 98.0585 167.858" fill="#263238"/>
    <path d="M72.663 120.14C72.7135 119.812 72.7283 119.48 72.7072 119.149C72.7072 118.519 72.7072 117.591 72.644 116.456C72.5556 114.185 72.322 111.049 72.0568 107.624C71.7916 104.198 71.6022 101.044 71.5517 98.7919C71.5517 97.6564 71.5075 96.7416 71.5012 96.1045C71.5207 95.7735 71.5037 95.4413 71.4507 95.114C71.3787 95.4371 71.3427 95.7672 71.3433 96.0981C71.2928 96.729 71.2675 97.65 71.2612 98.7919C71.2612 101.069 71.3812 104.211 71.6464 107.668L72.3536 116.5C72.4293 117.566 72.4988 118.462 72.5493 119.181C72.5528 119.504 72.5909 119.825 72.663 120.14Z" fill="#263238"/>
    <path d="M43.0685 120.007C43.4592 120.021 43.8503 119.997 44.2367 119.938C44.9817 119.869 46.0614 119.768 47.3937 119.679C50.0646 119.484 53.771 119.345 57.8563 119.37C61.9415 119.396 65.6479 119.591 68.3251 119.799C69.6637 119.894 70.7435 120.001 71.4822 120.071C71.8685 120.13 72.2596 120.153 72.6503 120.14C72.2755 120.026 71.8907 119.948 71.5012 119.907C70.7561 119.787 69.6764 119.635 68.3441 119.496C65.6669 119.206 61.9542 118.973 57.85 118.941C54.3468 118.907 50.8442 119.053 47.3558 119.377C46.0172 119.503 44.9375 119.654 44.1988 119.768C43.8153 119.812 43.4369 119.892 43.0685 120.007Z" fill="#263238"/>
    <path d="M90.9235 149.651C90.9851 149.53 91.0297 149.4 91.0561 149.267L91.3591 148.144C91.618 147.166 91.9527 145.746 92.3441 143.98C93.1271 140.454 94.0553 135.545 95.0087 130.101C95.9622 124.657 96.8461 119.762 97.5344 116.222L98.3868 112.034L98.6141 110.892C98.6494 110.76 98.6664 110.624 98.6646 110.488C98.6035 110.61 98.5589 110.739 98.532 110.873L98.2289 111.996C97.9701 112.974 97.6354 114.393 97.2439 116.159C96.461 119.686 95.5328 124.594 94.5794 130.038C93.6259 135.482 92.7419 140.372 92.0537 143.917L91.2013 148.106L90.974 149.248C90.939 149.379 90.922 149.515 90.9235 149.651Z" fill="#263238"/>
    <path d="M50.6581 144.327C50.7883 144.374 50.9242 144.404 51.0622 144.415L52.2367 144.585L56.5492 145.166C60.1925 145.652 65.2123 146.39 70.7624 147.203C76.3125 148.017 81.3449 148.705 85.0008 149.096C86.8256 149.304 88.3094 149.456 89.3323 149.538L90.5131 149.626C90.6513 149.645 90.7916 149.645 90.9298 149.626C90.7995 149.579 90.6637 149.549 90.5257 149.538L89.3513 149.367L85.0387 148.787C81.3954 148.301 76.3757 147.569 70.8255 146.749C65.2754 145.929 60.243 145.248 56.5934 144.857C54.7687 144.649 53.2848 144.497 52.2619 144.415L51.0812 144.327C50.9409 144.307 50.7985 144.307 50.6581 144.327Z" fill="#263238"/>
    <path d="M211.284 43.5165C212.236 42.7236 212.961 41.6932 213.386 40.5298C213.81 39.3665 213.919 38.1117 213.702 36.8926C213.463 35.6795 212.985 34.5261 212.295 33.4993C211.606 32.4726 210.719 31.5932 209.686 30.9121C208.746 30.2813 207.577 29.7576 206.479 30.0794C205.975 30.2611 205.53 30.5739 205.188 30.9854C204.846 31.3968 204.62 31.8921 204.534 32.4198C204.375 33.4851 204.501 34.5735 204.9 35.5741C206.1 39.0312 207.893 42.1602 211.284 43.5355" fill="#455A64"/>
    <path d="M214.485 49.4213C216.43 47.6824 218.762 46.4319 221.288 45.7736C223.814 45.1153 226.46 45.0682 229.008 45.6362C230.27 45.9327 231.754 46.614 231.969 47.9262C232.184 49.2384 231.009 50.3487 229.86 51.0111C227.436 52.3568 224.667 52.9551 221.902 52.7305C219.138 52.506 216.502 51.4687 214.327 49.7494" fill="#455A64"/>
    <path d="M233.023 22.0865C231.945 21.8299 230.825 21.7944 229.732 21.9819C228.64 22.1695 227.596 22.5763 226.665 23.1779C224.807 24.3913 223.251 26.0142 222.119 27.9219C219.833 31.5304 219.025 36.388 218.924 40.6588C223.672 40.4696 227.726 36.7412 229.658 34.7162C232.72 31.5241 236.319 23.8908 233.017 22.0991" fill="#455A64"/>
    <path d="M207.293 55.8751C207.726 55.3055 208.123 54.7092 208.48 54.0898C209.708 51.6827 210.606 49.1216 211.151 46.4754C211.682 43.794 211.477 41.0189 210.558 38.4446C210.267 37.6742 209.881 36.9431 209.408 36.2682C209.252 36.0083 209.054 35.7759 208.821 35.5806C209.37 36.5344 209.843 37.5301 210.236 38.5582C211.038 41.0916 211.19 43.7859 210.678 46.3934C210.128 49.0049 209.281 51.5449 208.152 53.9636" fill="#263238"/>
    <path d="M207.262 55.9317L209.737 52.7775C211.814 50.0837 214.7 46.368 217.945 42.3053C221.191 38.2426 224.165 34.6089 226.33 31.9846L228.856 28.8682C229.188 28.5009 229.488 28.1063 229.753 27.6885C229.395 28.0037 229.063 28.3476 228.761 28.7168C228.13 29.417 227.202 30.4516 226.091 31.7386C223.855 34.3124 220.831 37.9209 217.592 41.9836C214.353 46.0463 211.505 49.7999 209.497 52.5504C208.493 53.9256 207.685 55.0738 207.148 55.8308" fill="#263238"/>
    <path d="M226.053 48.431C225.793 48.3074 225.516 48.2224 225.232 48.1786C224.906 48.0915 224.575 48.0282 224.24 47.9894C223.799 47.9154 223.355 47.8669 222.908 47.8443C221.745 47.771 220.577 47.8154 219.423 47.9767C216.579 48.3682 213.866 49.4158 211.498 51.0364C210.538 51.6978 209.648 52.4545 208.84 53.2948C208.526 53.6119 208.231 53.9468 207.956 54.2979C207.726 54.5511 207.515 54.821 207.325 55.1054C207.015 55.5659 207.06 55.7804 207.085 55.7993C207.698 55.0074 208.353 54.2493 209.049 53.5283C209.874 52.74 210.768 52.0264 211.719 51.396C214.054 49.8501 216.694 48.8238 219.461 48.3868C220.588 48.2085 221.729 48.1303 222.87 48.1534C224.84 48.2354 226.034 48.513 226.053 48.431Z" fill="#263238"/>
    <path d="M189.247 255.754L104.72 255.363C94.5541 255.319 86.352 246.821 86.4088 236.381L87.3244 18.8249C87.3686 8.38426 95.6527 -0.0502429 105.825 0.000225308L190.352 0.391356C200.518 0.435515 208.72 8.9331 208.663 19.3737L207.742 236.93C207.697 247.37 199.419 255.805 189.247 255.754Z" fill="#263238"/>
    <path d="M200.095 200.599C201.124 200.599 201.958 199.766 201.958 198.738C201.958 197.71 201.124 196.877 200.095 196.877C199.066 196.877 198.232 197.71 198.232 198.738C198.232 199.766 199.066 200.599 200.095 200.599Z" fill="#E0E0E0"/>
    <path d="M200.095 202.819C200.186 202.819 200.259 201.907 200.259 200.782C200.259 199.656 200.186 198.744 200.095 198.744C200.004 198.744 199.931 199.656 199.931 200.782C199.931 201.907 200.004 202.819 200.095 202.819Z" fill="#E0E0E0"/>
    <path d="M192.032 7.57065L175.129 7.50757C174.577 7.51742 174.033 7.63572 173.528 7.8557C173.022 8.07568 172.565 8.39303 172.182 8.78964C171.799 9.18624 171.498 9.65433 171.296 10.1672C171.094 10.68 170.996 11.2275 171.006 11.7784V14.8444C171.021 15.9538 170.596 17.0241 169.823 17.821C169.05 18.6178 167.993 19.0764 166.883 19.0963L133.935 18.9449C132.822 18.9136 131.767 18.4423 131.001 17.6345C130.235 16.8268 129.821 15.7485 129.85 14.6362V11.5703C129.879 10.458 129.465 9.37968 128.699 8.57192C127.933 7.76416 126.878 7.2929 125.765 7.26154H119.817L105.004 7.17322C103.256 7.16575 101.523 7.50258 99.9055 8.16446C98.2877 8.82635 96.8164 9.8003 95.5755 11.0306C94.3347 12.261 93.3487 13.7236 92.674 15.3349C91.9993 16.9462 91.649 18.6745 91.6432 20.4211L90.7403 233.58C90.7328 235.327 91.0699 237.057 91.7324 238.674C92.3949 240.29 93.3697 241.76 94.6012 243C95.8326 244.24 97.2965 245.225 98.9092 245.899C100.522 246.573 102.252 246.923 104 246.929L191.015 247.333C192.763 247.34 194.496 247.003 196.114 246.341C197.732 245.679 199.203 244.705 200.444 243.475C201.685 242.245 202.671 240.782 203.345 239.171C204.02 237.56 204.37 235.831 204.376 234.085L205.273 20.9195C205.288 17.3953 203.901 14.0094 201.419 11.5061C198.936 9.00292 195.559 7.58735 192.032 7.57065Z" fill="#FAFAFA"/>
    <path d="M96.5304 175.781C97.2691 175.226 133.664 159.209 133.664 159.209L91.157 138.025L91.0118 172.16L96.5304 175.781Z" fill="#EBEBEB"/>
    <path d="M98.7529 137.368L129.755 121.622L96.4356 103.164L91.2959 104.451L91.1696 134.315L98.7529 137.368Z"/>
    <path opacity="0.7" d="M98.7529 137.368L129.755 121.622L96.4356 103.164L91.2959 104.451L91.1696 134.315L98.7529 137.368Z" fill="white"/>
    <path d="M92.4199 101.018L187.997 56.4171L93.2975 25.499L92.4199 101.018Z" fill="#EBEBEB"/>
    <path d="M91.3086 217.171L134.984 194.776L200 232.993L184.512 246.563H129.029L91.3086 223.53V217.171Z" fill="#EBEBEB"/>
    <path d="M143.583 192.36L197.595 224.35L203.618 223.669V192.902L174.018 177.251L143.583 192.36Z" fill="#EBEBEB"/>
    <path d="M152.461 161.808L203.385 190.429V153.007L184.96 145.122L152.461 161.808Z" fill="#EBEBEB"/>
    <path d="M98.071 177.573L127.943 193.95L164.193 175.188L135.394 160.552L98.071 177.573Z" fill="#EBEBEB"/>
    <path d="M142.914 121.414L185.232 142.371L204.856 132.353L204.982 118.31L176.398 104.45L142.914 121.414Z" fill="#EBEBEB"/>
    <path d="M99.6306 139.69L141.954 160.647L161.579 150.629L161.705 136.586L133.115 122.726L99.6306 139.69Z" fill="#EBEBEB"/>
    <path d="M105.496 102.034L139.984 119.294L172.149 102.034L138.823 86.8433L105.496 102.034Z" fill="#EBEBEB"/>
    <path d="M172.149 212.295C171.929 212.209 171.718 212.104 171.517 211.979L169.73 210.976L162.886 207.021L137.528 192.164L137.004 191.855L137.553 191.578L170.816 174.683V175.447L145.977 162.199L145.187 161.782L145.977 161.366L180.483 143.273V144.15L176.367 142.068L99.0813 102.892L98.3552 102.526L99.0876 102.179L140.13 82.623L151.495 77.2671L154.494 75.8918L155.265 75.5512C155.35 75.507 155.442 75.4752 155.536 75.4565C155.462 75.5184 155.379 75.5694 155.29 75.6079L154.545 75.9991L151.59 77.532L140.3 83.0835L99.4349 102.936V102.198L176.802 141.21L180.919 143.292L181.771 143.721L180.925 144.163L146.4 162.218V161.385L171.214 174.683L171.947 175.074L171.202 175.447L137.838 192.177V191.59L163.044 206.731L169.8 210.837L171.536 211.923C171.752 212.027 171.957 212.152 172.149 212.295Z"/>
    <path d="M164.729 55.2249C164.729 48.9164 158.112 44.942 151.362 48.0963C149.838 48.8096 148.591 50.0046 147.814 51.4965C146.115 54.7833 146.867 58.5369 148.407 61.647L153.661 74.9453C153.825 75.3709 154.115 75.7367 154.491 75.9947C154.867 76.2527 155.313 76.3908 155.77 76.3908C156.226 76.3908 156.672 76.2527 157.048 75.9947C157.425 75.7367 157.714 75.3709 157.879 74.9453L163.031 61.5776C164.805 57.496 164.729 55.2249 164.729 55.2249ZM158.415 60.7007C153.882 63.3377 149.279 58.4675 151.767 53.6604C152.093 53.0262 152.592 52.4969 153.206 52.1337C157.74 49.4968 162.343 54.3669 159.855 59.174C159.522 59.8116 159.014 60.3412 158.39 60.7007H158.415Z"/>
    <path d="M154.652 124.076L154.501 116.645L173.891 126.026V133.747L154.652 124.076Z" fill="#F5F5F5"/>
    <path d="M173.891 126.026L197.974 114.071V122.392L173.891 133.747V126.026Z" fill="#E0E0E0"/>
    <path d="M154.501 116.645L178.134 104.842L197.974 114.071L173.891 126.026L154.501 116.645Z" fill="#F5F5F5"/>
    <path d="M157.033 119.856V123.458L158.927 124.316V120.865L157.033 119.856Z" fill="#FAFAFA"/>
    <path d="M160.063 121.187V124.795L161.958 125.653V122.203L160.063 121.187Z" fill="#FAFAFA"/>
    <path d="M93.6448 77.1917V67.5144L116.597 78.6237V87.7585L93.6448 77.1917Z" fill="#E0E0E0"/>
    <path d="M116.597 78.6231L145.111 64.4668V74.3207L116.597 87.7579V78.6231Z" fill="#F5F5F5"/>
    <path d="M93.6448 67.5142L121.617 53.5408L145.111 64.4671L116.597 78.6235L93.6448 67.5142Z" fill="#FAFAFA"/>
    <path d="M96.644 71.312V75.5829L98.8856 76.5922V72.5169L96.644 71.312Z" fill="#FAFAFA"/>
    <path d="M100.23 72.8953V77.1599L102.472 78.1755V74.0939L100.23 72.8953Z" fill="#FAFAFA"/>
    <path d="M162.835 158.022V165.643L171.044 169.674V161.801L162.835 158.022Z" fill="#E0E0E0"/>
    <path d="M181.462 156.812L171.012 161.808V169.675L181.462 163.846V156.812Z" fill="#E0E0E0"/>
    <path d="M162.829 158.023L173.191 153.007L181.462 156.811L171.012 161.808L162.829 158.023Z" fill="#F5F5F5"/>
    <path d="M165.74 163.492V167.094L167.634 167.952V164.508L165.74 163.492Z" fill="#FAFAFA"/>
    <path d="M96.7577 154.079V161.7L104.966 165.731V157.858L96.7577 154.079Z" fill="#E0E0E0"/>
    <path d="M115.391 152.869L104.935 157.865V165.732L115.391 159.903V152.869Z" fill="#E0E0E0"/>
    <path d="M96.7577 154.08L107.119 149.064L115.391 152.869L104.935 157.865L96.7577 154.08Z" fill="#F5F5F5"/>
    <path d="M99.6622 159.549V163.151L101.556 164.009V160.565L99.6622 159.549Z" fill="#FAFAFA"/>
    <path d="M130.671 103.776V111.396L138.879 115.427V107.561L130.671 103.776Z" fill="#F5F5F5"/>
    <path d="M149.304 102.571L138.848 107.561V115.434L149.304 109.605V102.571Z" fill="#E0E0E0"/>
    <path d="M130.671 103.782L141.026 98.7666L149.304 102.571L138.848 107.561L130.671 103.782Z" fill="#F5F5F5"/>
    <path d="M133.576 109.251V112.853L135.47 113.711V110.261L133.576 109.251Z" fill="#E0E0E0"/>
    <path d="M121.579 169.088V176.709L129.787 180.74V172.873L121.579 169.088Z" fill="#E0E0E0"/>
    <path d="M140.212 167.876L129.755 172.873V180.746L140.212 174.917V167.876Z" fill="#EBEBEB"/>
    <path d="M121.579 169.088L131.94 164.079L140.212 167.877L129.755 172.873L121.579 169.088Z" fill="#F5F5F5"/>
    <path d="M124.483 174.557V178.166L126.377 179.017V175.573L124.483 174.557Z" fill="#FAFAFA"/>
    <path d="M155.347 187.502V197.059L172.565 207.197V197.331L155.347 187.502Z" fill="#F5F5F5"/>
    <path d="M185.693 190.278L172.584 197.331V207.197L185.693 199.892V190.278Z" fill="#E0E0E0"/>
    <path d="M155.347 187.502L168.335 181.213L185.693 190.278L172.584 197.331L155.347 187.502Z" fill="#FAFAFA"/>
    <path d="M161.857 196.34V200.857L164.231 202.289V197.817L161.857 196.34Z" fill="#FAFAFA"/>
    <path d="M113.882 207.172V216.73L131.119 226.874V217.001L113.882 207.172Z" fill="#E0E0E0"/>
    <path d="M151.691 205.866L131.119 217.007V226.874L151.748 215.449L151.691 205.866Z" fill="#FAFAFA"/>
    <path d="M113.882 207.172L135.64 196.649L151.748 205.904L131.119 217.007L113.882 207.172Z" fill="#F5F5F5"/>
    <path d="M120.392 216.01V220.534L122.766 221.959V217.487L120.392 216.01Z" fill="#FAFAFA"/>
    <path d="M179.132 171.435V209.607L189.891 215.165V176.513L179.132 171.435Z" fill="#F5F5F5"/>
    <path d="M187.082 167.775L179.132 171.434L189.891 176.513L197.127 172.437L187.082 167.775Z" fill="#FAFAFA"/>
    <path d="M189.891 176.513V215.165L196.439 211.645L197.127 172.438L189.891 176.513Z" fill="#E0E0E0"/>
    <path d="M133.664 140.516V178.689L144.417 184.247V145.595L133.664 140.516Z" fill="#F5F5F5"/>
    <path d="M141.607 136.857L133.664 140.516L144.417 145.595L151.659 141.519L141.607 136.857Z" fill="#FAFAFA"/>
    <path d="M144.417 145.595V184.247L150.965 181.024L151.659 141.52L144.417 145.595Z" fill="#E0E0E0"/>
    <path d="M138.545 213.109V222.666L155.782 232.81V222.944L138.545 213.109Z" fill="#E0E0E0"/>
    <path d="M168.891 215.89L155.782 222.943V232.81L168.891 225.505V215.89Z" fill="#FAFAFA"/>
    <path d="M138.545 213.109L151.691 205.866L168.891 215.891L155.782 222.944L138.545 213.109Z" fill="#F5F5F5"/>
    <path d="M145.055 221.947V226.47L147.435 227.896V223.423L145.055 221.947Z" fill="#FAFAFA"/>
    <path d="M176.884 99.1577L145.49 85.0203L189.209 62.7891L203.555 84.1623L176.884 99.1577Z" fill="#EBEBEB"/>
    <path d="M204.824 112.14L205.045 87.6633L180.704 101.504L204.824 112.14Z"/>
    <path d="M184.468 138.516C185.496 138.516 186.33 137.683 186.33 136.655C186.33 135.628 185.496 134.794 184.468 134.794C183.439 134.794 182.605 135.628 182.605 136.655C182.605 137.683 183.439 138.516 184.468 138.516Z" fill="#E0E0E0"/>
    <path d="M184.468 140.731C184.558 140.731 184.632 139.818 184.632 138.693C184.632 137.568 184.558 136.655 184.468 136.655C184.377 136.655 184.303 137.568 184.303 138.693C184.303 139.818 184.377 140.731 184.468 140.731Z" fill="#E0E0E0"/>
    <path d="M133.664 133.955C134.693 133.955 135.527 133.122 135.527 132.094C135.527 131.067 134.693 130.233 133.664 130.233C132.635 130.233 131.801 131.067 131.801 132.094C131.801 133.122 132.635 133.955 133.664 133.955Z" fill="#E0E0E0"/>
    <path d="M133.664 136.176C133.755 136.176 133.828 135.264 133.828 134.138C133.828 133.013 133.755 132.101 133.664 132.101C133.573 132.101 133.5 133.013 133.5 134.138C133.5 135.264 133.573 136.176 133.664 136.176Z" fill="#E0E0E0"/>
    <path d="M108.774 159.934C109.802 159.934 110.636 159.101 110.636 158.073C110.636 157.045 109.802 156.212 108.774 156.212C107.745 156.212 106.911 157.045 106.911 158.073C106.911 159.101 107.745 159.934 108.774 159.934Z" fill="#E0E0E0"/>
    <path d="M108.773 162.148C108.864 162.148 108.938 161.236 108.938 160.111C108.938 158.985 108.864 158.073 108.773 158.073C108.683 158.073 108.609 158.985 108.609 160.111C108.609 161.236 108.683 162.148 108.773 162.148Z" fill="#E0E0E0"/>
    <path d="M110.636 139.886C111.665 139.886 112.499 139.052 112.499 138.025C112.499 136.997 111.665 136.164 110.636 136.164C109.607 136.164 108.774 136.997 108.774 138.025C108.774 139.052 109.607 139.886 110.636 139.886Z" fill="#E0E0E0"/>
    <path d="M110.636 142.106C110.727 142.106 110.8 141.194 110.8 140.068C110.8 138.943 110.727 138.031 110.636 138.031C110.546 138.031 110.472 138.943 110.472 140.068C110.472 141.194 110.546 142.106 110.636 142.106Z" fill="#E0E0E0"/>
    <path d="M156.603 138.049C157.632 138.049 158.466 137.216 158.466 136.188C158.466 135.161 157.632 134.327 156.603 134.327C155.574 134.327 154.741 135.161 154.741 136.188C154.741 137.216 155.574 138.049 156.603 138.049Z" fill="#E0E0E0"/>
    <path d="M156.603 140.264C156.694 140.264 156.767 139.352 156.767 138.226C156.767 137.101 156.694 136.189 156.603 136.189C156.513 136.189 156.439 137.101 156.439 138.226C156.439 139.352 156.513 140.264 156.603 140.264Z" fill="#E0E0E0"/>
    <path d="M186.021 151.985C187.05 151.985 187.884 151.152 187.884 150.124C187.884 149.097 187.05 148.263 186.021 148.263C184.992 148.263 184.158 149.097 184.158 150.124C184.158 151.152 184.992 151.985 186.021 151.985Z" fill="#E0E0E0"/>
    <path d="M186.021 154.206C186.111 154.206 186.185 153.293 186.185 152.168C186.185 151.043 186.111 150.13 186.021 150.13C185.93 150.13 185.857 151.043 185.857 152.168C185.857 153.293 185.93 154.206 186.021 154.206Z" fill="#E0E0E0"/>
    <path d="M187.208 162.931C188.237 162.931 189.071 162.097 189.071 161.07C189.071 160.042 188.237 159.208 187.208 159.208C186.179 159.208 185.345 160.042 185.345 161.07C185.345 162.097 186.179 162.931 187.208 162.931Z" fill="#E0E0E0"/>
    <path d="M187.208 165.151C187.299 165.151 187.372 164.239 187.372 163.114C187.372 161.988 187.299 161.076 187.208 161.076C187.117 161.076 187.044 161.988 187.044 163.114C187.044 164.239 187.117 165.151 187.208 165.151Z" fill="#E0E0E0"/>
    <path d="M134.984 185.641C136.012 185.641 136.846 184.808 136.846 183.78C136.846 182.752 136.012 181.919 134.984 181.919C133.955 181.919 133.121 182.752 133.121 183.78C133.121 184.808 133.955 185.641 134.984 185.641Z" fill="#E0E0E0"/>
    <path d="M134.984 187.856C135.074 187.856 135.148 186.943 135.148 185.818C135.148 184.693 135.074 183.78 134.984 183.78C134.893 183.78 134.819 184.693 134.819 185.818C134.819 186.943 134.893 187.856 134.984 187.856Z" fill="#E0E0E0"/>
    <path d="M196.168 218.086C197.196 218.086 198.03 217.253 198.03 216.225C198.03 215.197 197.196 214.364 196.168 214.364C195.139 214.364 194.305 215.197 194.305 216.225C194.305 217.253 195.139 218.086 196.168 218.086Z" fill="#E0E0E0"/>
    <path d="M196.168 220.307C196.258 220.307 196.332 219.394 196.332 218.269C196.332 217.143 196.258 216.231 196.168 216.231C196.077 216.231 196.003 217.143 196.003 218.269C196.003 219.394 196.077 220.307 196.168 220.307Z" fill="#E0E0E0"/>
    <path d="M160.581 238.437C161.61 238.437 162.444 237.604 162.444 236.576C162.444 235.549 161.61 234.715 160.581 234.715C159.552 234.715 158.718 235.549 158.718 236.576C158.718 237.604 159.552 238.437 160.581 238.437Z" fill="#E0E0E0"/>
    <path d="M160.581 240.658C160.672 240.658 160.745 239.746 160.745 238.62C160.745 237.495 160.672 236.583 160.581 236.583C160.49 236.583 160.417 237.495 160.417 238.62C160.417 239.746 160.49 240.658 160.581 240.658Z" fill="#E0E0E0"/>
    <path d="M146.242 232.816C147.27 232.816 148.104 231.983 148.104 230.955C148.104 229.927 147.27 229.094 146.242 229.094C145.213 229.094 144.379 229.927 144.379 230.955C144.379 231.983 145.213 232.816 146.242 232.816Z" fill="#E0E0E0"/>
    <path d="M146.242 235.031C146.332 235.031 146.406 234.118 146.406 232.993C146.406 231.868 146.332 230.955 146.242 230.955C146.151 230.955 146.078 231.868 146.078 232.993C146.078 234.118 146.151 235.031 146.242 235.031Z" fill="#E0E0E0"/>
    <path d="M179.132 228.735C180.161 228.735 180.995 227.902 180.995 226.874C180.995 225.846 180.161 225.013 179.132 225.013C178.103 225.013 177.269 225.846 177.269 226.874C177.269 227.902 178.103 228.735 179.132 228.735Z" fill="#E0E0E0"/>
    <path d="M179.132 230.949C179.223 230.949 179.296 230.037 179.296 228.911C179.296 227.786 179.223 226.874 179.132 226.874C179.041 226.874 178.968 227.786 178.968 228.911C178.968 230.037 179.041 230.949 179.132 230.949Z" fill="#E0E0E0"/>
    <path d="M151.091 192.896C152.12 192.896 152.954 192.063 152.954 191.035C152.954 190.007 152.12 189.174 151.091 189.174C150.062 189.174 149.228 190.007 149.228 191.035C149.228 192.063 150.062 192.896 151.091 192.896Z" fill="#E0E0E0"/>
    <path d="M151.091 195.117C151.182 195.117 151.255 194.204 151.255 193.079C151.255 191.954 151.182 191.041 151.091 191.041C151 191.041 150.927 191.954 150.927 193.079C150.927 194.204 151 195.117 151.091 195.117Z" fill="#E0E0E0"/>
    <path d="M155.782 174.734C156.811 174.734 157.645 173.901 157.645 172.873C157.645 171.845 156.811 171.012 155.782 171.012C154.754 171.012 153.92 171.845 153.92 172.873C153.92 173.901 154.754 174.734 155.782 174.734Z" fill="#E0E0E0"/>
    <path d="M155.782 176.955C155.873 176.955 155.947 176.042 155.947 174.917C155.947 173.792 155.873 172.879 155.782 172.879C155.692 172.879 155.618 173.792 155.618 174.917C155.618 176.042 155.692 176.955 155.782 176.955Z" fill="#E0E0E0"/>
    <path d="M110.636 176.778C111.665 176.778 112.499 175.944 112.499 174.917C112.499 173.889 111.665 173.056 110.636 173.056C109.607 173.056 108.774 173.889 108.774 174.917C108.774 175.944 109.607 176.778 110.636 176.778Z" fill="#E0E0E0"/>
    <path d="M110.636 178.992C110.727 178.992 110.8 178.08 110.8 176.954C110.8 175.829 110.727 174.917 110.636 174.917C110.546 174.917 110.472 175.829 110.472 176.954C110.472 178.08 110.546 178.992 110.636 178.992Z" fill="#E0E0E0"/>
    <path d="M196.648 159.934C197.676 159.934 198.51 159.101 198.51 158.073C198.51 157.045 197.676 156.212 196.648 156.212C195.619 156.212 194.785 157.045 194.785 158.073C194.785 159.101 195.619 159.934 196.648 159.934Z" fill="#E0E0E0"/>
    <path d="M196.648 162.148C196.738 162.148 196.812 161.236 196.812 160.111C196.812 158.985 196.738 158.073 196.648 158.073C196.557 158.073 196.483 158.985 196.483 160.111C196.483 161.236 196.557 162.148 196.648 162.148Z" fill="#E0E0E0"/>
    <path d="M191.647 132.094C192.675 132.094 193.509 131.261 193.509 130.233C193.509 129.205 192.675 128.372 191.647 128.372C190.618 128.372 189.784 129.205 189.784 130.233C189.784 131.261 190.618 132.094 191.647 132.094Z" fill="#E0E0E0"/>
    <path d="M191.647 134.315C191.737 134.315 191.811 133.402 191.811 132.277C191.811 131.152 191.737 130.24 191.647 130.24C191.556 130.24 191.483 131.152 191.483 132.277C191.483 133.402 191.556 134.315 191.647 134.315Z" fill="#E0E0E0"/>
    <path d="M153.932 107.491C154.961 107.491 155.795 106.658 155.795 105.63C155.795 104.602 154.961 103.769 153.932 103.769C152.904 103.769 152.07 104.602 152.07 105.63C152.07 106.658 152.904 107.491 153.932 107.491Z" fill="#E0E0E0"/>
    <path d="M153.932 109.712C154.023 109.712 154.097 108.799 154.097 107.674C154.097 106.549 154.023 105.636 153.932 105.636C153.842 105.636 153.768 106.549 153.768 107.674C153.768 108.799 153.842 109.712 153.932 109.712Z" fill="#E0E0E0"/>
    <path d="M118.327 142.598C119.356 142.598 120.189 141.765 120.189 140.737C120.189 139.709 119.356 138.876 118.327 138.876C117.298 138.876 116.464 139.709 116.464 140.737C116.464 141.765 117.298 142.598 118.327 142.598Z" fill="#E0E0E0"/>
    <path d="M118.327 144.812C118.417 144.812 118.491 143.9 118.491 142.775C118.491 141.649 118.417 140.737 118.327 140.737C118.236 140.737 118.163 141.649 118.163 142.775C118.163 143.9 118.236 144.812 118.327 144.812Z" fill="#E0E0E0"/>
    <path d="M140.212 94.2118C141.24 94.2118 142.074 93.3786 142.074 92.3507C142.074 91.3229 141.24 90.4897 140.212 90.4897C139.183 90.4897 138.349 91.3229 138.349 92.3507C138.349 93.3786 139.183 94.2118 140.212 94.2118Z" fill="#E0E0E0"/>
    <path d="M140.212 96.4261C140.302 96.4261 140.376 95.5138 140.376 94.3885C140.376 93.2631 140.302 92.3508 140.212 92.3508C140.121 92.3508 140.048 93.2631 140.048 94.3885C140.048 95.5138 140.121 96.4261 140.212 96.4261Z" fill="#E0E0E0"/>
    <path d="M178.191 90.1302C179.22 90.1302 180.054 89.297 180.054 88.2692C180.054 87.2414 179.22 86.4082 178.191 86.4082C177.163 86.4082 176.329 87.2414 176.329 88.2692C176.329 89.297 177.163 90.1302 178.191 90.1302Z" fill="#E0E0E0"/>
    <path d="M178.191 92.3444C178.282 92.3444 178.355 91.4321 178.355 90.3067C178.355 89.1813 178.282 88.269 178.191 88.269C178.101 88.269 178.027 89.1813 178.027 90.3067C178.027 91.4321 178.101 92.3444 178.191 92.3444Z" fill="#E0E0E0"/>
    <path d="M188.692 88.4144C189.72 88.4144 190.554 87.5812 190.554 86.5534C190.554 85.5256 189.72 84.6924 188.692 84.6924C187.663 84.6924 186.829 85.5256 186.829 86.5534C186.829 87.5812 187.663 88.4144 188.692 88.4144Z" fill="#E0E0E0"/>
    <path d="M188.692 90.6283C188.782 90.6283 188.856 89.716 188.856 88.5906C188.856 87.4653 188.782 86.553 188.692 86.553C188.601 86.553 188.528 87.4653 188.528 88.5906C188.528 89.716 188.601 90.6283 188.692 90.6283Z" fill="#E0E0E0"/>
    <path d="M184.468 74.6868C185.496 74.6868 186.33 73.8536 186.33 72.8258C186.33 71.798 185.496 70.9648 184.468 70.9648C183.439 70.9648 182.605 71.798 182.605 72.8258C182.605 73.8536 183.439 74.6868 184.468 74.6868Z" fill="#E0E0E0"/>
    <path d="M184.468 76.9012C184.558 76.9012 184.632 75.9889 184.632 74.8636C184.632 73.7382 184.558 72.8259 184.468 72.8259C184.377 72.8259 184.303 73.7382 184.303 74.8636C184.303 75.9889 184.377 76.9012 184.468 76.9012Z" fill="#E0E0E0"/>
    <path d="M125.986 106.311C127.015 106.311 127.849 105.478 127.849 104.45C127.849 103.423 127.015 102.589 125.986 102.589C124.957 102.589 124.123 103.423 124.123 104.45C124.123 105.478 124.957 106.311 125.986 106.311Z" fill="#E0E0E0"/>
    <path d="M125.986 108.532C126.077 108.532 126.15 107.62 126.15 106.494C126.15 105.369 126.077 104.457 125.986 104.457C125.895 104.457 125.822 105.369 125.822 106.494C125.822 107.62 125.895 108.532 125.986 108.532Z" fill="#E0E0E0"/>
    <path d="M169.276 88.7042C170.304 88.7042 171.138 87.871 171.138 86.8432C171.138 85.8154 170.304 84.9822 169.276 84.9822C168.247 84.9822 167.413 85.8154 167.413 86.8432C167.413 87.871 168.247 88.7042 169.276 88.7042Z" fill="#E0E0E0"/>
    <path d="M169.276 90.9249C169.366 90.9249 169.44 90.0126 169.44 88.8873C169.44 87.7619 169.366 86.8496 169.276 86.8496C169.185 86.8496 169.112 87.7619 169.112 88.8873C169.112 90.0126 169.185 90.9249 169.276 90.9249Z" fill="#E0E0E0"/>
    <path d="M116.976 46.7906C118.004 46.7906 118.838 45.9574 118.838 44.9296C118.838 43.9018 118.004 43.0686 116.976 43.0686C115.947 43.0686 115.113 43.9018 115.113 44.9296C115.113 45.9574 115.947 46.7906 116.976 46.7906Z" fill="#E0E0E0"/>
    <path d="M116.976 49.0048C117.066 49.0048 117.14 48.0925 117.14 46.9671C117.14 45.8417 117.066 44.9294 116.976 44.9294C116.885 44.9294 116.811 45.8417 116.811 46.9671C116.811 48.0925 116.885 49.0048 116.976 49.0048Z" fill="#E0E0E0"/>
    <path d="M138.349 56.9789C139.378 56.9789 140.212 56.1457 140.212 55.1179C140.212 54.09 139.378 53.2568 138.349 53.2568C137.32 53.2568 136.486 54.09 136.486 55.1179C136.486 56.1457 137.32 56.9789 138.349 56.9789Z" fill="#E0E0E0"/>
    <path d="M138.349 59.1993C138.44 59.1993 138.513 58.287 138.513 57.1617C138.513 56.0363 138.44 55.124 138.349 55.124C138.258 55.124 138.185 56.0363 138.185 57.1617C138.185 58.287 138.258 59.1993 138.349 59.1993Z" fill="#E0E0E0"/>
    <path d="M104.379 89.1649C105.408 89.1649 106.242 88.3317 106.242 87.3039C106.242 86.2761 105.408 85.4429 104.379 85.4429C103.35 85.4429 102.516 86.2761 102.516 87.3039C102.516 88.3317 103.35 89.1649 104.379 89.1649Z" fill="#E0E0E0"/>
    <path d="M104.379 91.3792C104.47 91.3792 104.543 90.467 104.543 89.3416C104.543 88.2162 104.47 87.304 104.379 87.304C104.288 87.304 104.215 88.2162 104.215 89.3416C104.215 90.467 104.288 91.3792 104.379 91.3792Z" fill="#E0E0E0"/>
    <path d="M106.242 58.8399C107.27 58.8399 108.104 58.0067 108.104 56.9789C108.104 55.9511 107.27 55.1179 106.242 55.1179C105.213 55.1179 104.379 55.9511 104.379 56.9789C104.379 58.0067 105.213 58.8399 106.242 58.8399Z" fill="#E0E0E0"/>
    <path d="M106.242 61.0604C106.332 61.0604 106.406 60.1481 106.406 59.0228C106.406 57.8974 106.332 56.9851 106.242 56.9851C106.151 56.9851 106.077 57.8974 106.077 59.0228C106.077 60.1481 106.151 61.0604 106.242 61.0604Z" fill="#E0E0E0"/>
    <path d="M188.262 143.753L203.618 135.621L203.555 150.288L188.262 143.753Z" fill="#EBEBEB"/>
    <path d="M124.483 195.76L90.8413 213.109V180.746L94.5667 179.08L124.483 195.76Z" fill="#EBEBEB"/>
    <path d="M172.584 215.253C173.77 215.253 174.731 214.293 174.731 213.109C174.731 211.924 173.77 210.964 172.584 210.964C171.399 210.964 170.438 211.924 170.438 213.109C170.438 214.293 171.399 215.253 172.584 215.253Z"/>
    <path d="M194.374 60.0068L205.09 63.262V80.131L194.374 60.0068Z" fill="#EBEBEB"/>
    <path d="M205.197 37.473L205.134 19.0647C204.703 15.8929 203.14 12.9832 200.733 10.8712C198.325 8.75927 195.236 7.58713 192.032 7.57057L175.129 7.50748C174.577 7.51733 174.033 7.63563 173.528 7.85561C173.022 8.07559 172.565 8.39295 172.182 8.78955C171.799 9.18616 171.498 9.65424 171.296 10.1671C171.094 10.6799 170.996 11.2274 171.006 11.7784V14.8443C171.021 15.9537 170.596 17.024 169.823 17.8209C169.05 18.6177 167.993 19.0763 166.883 19.0962L133.935 18.9448C132.822 18.9135 131.767 18.4422 131.001 17.6345C130.235 16.8267 129.821 15.7484 129.85 14.6361V11.5702C129.879 10.4579 129.465 9.3796 128.699 8.57184C127.933 7.76408 126.878 7.29282 125.765 7.26145H119.817L105.004 7.17313C101.673 7.16543 98.4604 8.41088 96.0063 10.6617C94.5225 13.5132 92.906 17.6011 93.6448 20.686L205.115 56.9411L205.197 37.473Z"/>
    <path opacity="0.7" d="M205.197 37.473L205.134 19.0647C204.703 15.8929 203.14 12.9832 200.733 10.8712C198.325 8.75927 195.236 7.58713 192.032 7.57057L175.129 7.50748C174.577 7.51733 174.033 7.63563 173.528 7.85561C173.022 8.07559 172.565 8.39295 172.182 8.78955C171.799 9.18616 171.498 9.65424 171.296 10.1671C171.094 10.6799 170.996 11.2274 171.006 11.7784V14.8443C171.021 15.9537 170.596 17.024 169.823 17.8209C169.05 18.6177 167.993 19.0763 166.883 19.0962L133.935 18.9448C132.822 18.9135 131.767 18.4422 131.001 17.6345C130.235 16.8267 129.821 15.7484 129.85 14.6361V11.5702C129.879 10.4579 129.465 9.3796 128.699 8.57184C127.933 7.76408 126.878 7.29282 125.765 7.26145H119.817L105.004 7.17313C101.673 7.16543 98.4604 8.41088 96.0063 10.6617C94.5225 13.5132 92.906 17.6011 93.6448 20.686L205.115 56.9411L205.197 37.473Z" fill="white"/>
    <path d="M192.032 7.57054H192.486C192.937 7.57792 193.386 7.61586 193.831 7.68409C195.597 7.90442 197.295 8.49798 198.813 9.42525C199.944 10.0971 200.965 10.9398 201.838 11.9234C202.91 13.0874 203.765 14.4333 204.363 15.8978C205.046 17.6123 205.377 19.4467 205.336 21.2916C205.336 23.2556 205.336 25.3438 205.336 27.556L205.071 102.539C204.944 134.195 204.799 171.889 204.635 213.746C204.614 218.978 204.593 224.273 204.572 229.631C204.572 230.972 204.572 232.316 204.572 233.662C204.593 235.028 204.416 236.39 204.048 237.706C203.673 239.031 203.095 240.29 202.337 241.44C201.562 242.586 200.627 243.615 199.558 244.494C197.37 246.253 194.685 247.284 191.88 247.44C191.179 247.484 190.485 247.478 189.79 247.471H187.707H183.52L166.58 247.396L131.763 247.231L113.983 247.149L105.004 247.08C101.937 247.239 98.9025 246.388 96.3662 244.658C93.8389 242.894 91.9865 240.325 91.1128 237.371C90.7017 235.911 90.5207 234.396 90.5761 232.88C90.5761 231.382 90.5761 229.889 90.5761 228.401C90.6014 222.437 90.6267 216.513 90.6519 210.629L90.8035 175.888L91.1128 110.204L91.378 50.7713C91.4201 41.4642 91.4622 32.485 91.5043 23.8339V20.6103C91.5043 20.074 91.5548 19.5378 91.5864 19.0016C91.618 18.4654 91.7253 17.9354 91.8642 17.4182C92.3508 15.3524 93.3153 13.4295 94.6803 11.8036C96.0079 10.238 97.6758 8.99626 99.5569 8.17299C101.438 7.34971 103.483 6.96672 105.534 7.05324L117.127 7.11002H122.703H125.437C126.363 7.0646 127.279 7.32386 128.044 7.84812C128.81 8.38226 129.386 9.14704 129.686 10.0309C129.934 10.8799 130.022 11.7677 129.945 12.6489C129.945 13.0695 129.945 13.5006 129.945 13.9422C129.93 14.3631 129.943 14.7846 129.983 15.2039C130.083 16.029 130.426 16.806 130.968 17.4371C131.498 18.0581 132.209 18.499 133.001 18.6988C133.393 18.794 133.797 18.8365 134.201 18.825H135.426H140.224L157.765 18.9196L165.5 18.9637C166.131 18.9637 166.731 18.9953 167.312 18.9637C167.893 18.8986 168.451 18.7046 168.947 18.396C169.426 18.0991 169.84 17.7094 170.165 17.25C170.491 16.7906 170.721 16.2708 170.842 15.7212C170.939 15.1886 170.977 14.647 170.955 14.1062C170.955 13.5678 170.955 13.0379 170.955 12.5164C170.936 12 170.962 11.4829 171.031 10.9708C171.118 10.4727 171.289 9.99277 171.536 9.55142C172.003 8.69176 172.755 8.02223 173.664 7.65886C174.517 7.39253 175.414 7.30028 176.303 7.38759L184.928 7.44437L190.232 7.48222H192.038H184.916H176.291C175.414 7.39762 174.529 7.48986 173.689 7.75349C172.81 8.10397 172.081 8.74837 171.625 9.57665C171.384 10.0062 171.217 10.4733 171.132 10.9582C171.065 11.4642 171.042 11.9749 171.063 12.4849V14.0746C171.087 14.6237 171.051 15.1737 170.955 15.7149C170.834 16.2808 170.6 16.8167 170.268 17.2912C169.936 17.7656 169.513 18.1691 169.023 18.478C168.51 18.7994 167.932 19.002 167.331 19.071C166.7 19.1215 166.119 19.071 165.5 19.071H157.765L140.224 19.0016H135.426H134.201C133.776 19.0164 133.351 18.974 132.938 18.8754C132.115 18.6786 131.372 18.2337 130.81 17.6011C130.241 16.9402 129.881 16.1258 129.774 15.2606C129.733 14.8308 129.721 14.3988 129.736 13.9674C129.736 13.5468 129.736 13.1157 129.736 12.6741C129.808 11.8246 129.723 10.9692 129.484 10.1507C129.195 9.32956 128.656 8.61926 127.943 8.11938C127.214 7.6193 126.339 7.37322 125.456 7.41914H122.721H117.146L105.553 7.36867C103.545 7.27832 101.542 7.6454 99.6971 8.44213C97.8517 9.23887 96.2118 10.4444 94.9013 11.9676C93.563 13.5648 92.618 15.4532 92.1421 17.4812C92.0031 17.9859 91.9653 18.5158 91.8705 19.0331C91.7758 19.5504 91.8011 20.0867 91.7948 20.6166V23.8402L91.6874 50.7776L91.4538 110.21C91.3654 131.142 91.277 153.108 91.1886 175.888L91.0118 210.642C90.9866 216.53 90.9613 222.454 90.9361 228.413C90.9361 229.906 90.9361 231.399 90.9361 232.892C90.8789 234.382 91.0557 235.873 91.4601 237.308C92.3076 240.188 94.1086 242.695 96.5683 244.418C99.0489 246.097 102.012 246.917 105.004 246.752L113.983 246.796L131.763 246.878L166.529 247.042L183.47 247.124H187.656H189.74C190.434 247.124 191.129 247.124 191.811 247.124C194.55 246.974 197.174 245.971 199.312 244.254C200.356 243.395 201.27 242.39 202.027 241.27C202.769 240.147 203.333 238.918 203.7 237.624C204.063 236.335 204.238 235 204.218 233.662C204.218 232.316 204.218 230.972 204.218 229.631C204.243 224.273 204.267 218.978 204.288 213.746L204.793 102.539C204.951 70.8829 205.077 45.264 205.165 27.556L205.197 21.2916C205.243 19.4583 204.918 17.6347 204.243 15.9293C203.655 14.474 202.813 13.1347 201.756 11.9739C199.681 9.67928 196.869 8.1818 193.806 7.74087C193.361 7.67022 192.912 7.62808 192.461 7.6147L192.032 7.57054Z" fill="#263238"/>
    <path d="M231.521 132.915C240.872 133.148 250.324 133.401 259.366 135.792C268.408 138.183 277.14 142.958 282.507 150.617C288.411 159.045 289.586 169.82 290.179 180.097C291.24 197.139 290.972 214.239 289.377 231.24C288.531 239.851 285.475 247.844 277.462 251.124C267.827 255.067 254.877 251.124 254.877 251.124" fill="#263238"/>
    <path d="M256.6 249.068H256.954H257.996H261.993C264.103 249.106 266.212 248.997 268.307 248.74C268.938 248.639 269.57 248.569 270.201 248.405L271.174 248.191C271.502 248.102 271.805 248.001 272.159 247.901C272.834 247.724 273.491 247.44 274.179 247.188C274.871 246.892 275.546 246.557 276.2 246.185C277.61 245.399 278.88 244.384 279.957 243.182C281.118 241.877 281.965 240.323 282.432 238.64C283.312 234.867 283.788 231.012 283.852 227.139C283.979 223.045 283.934 218.736 283.972 214.276C284.01 209.816 284.017 205.192 284.035 200.46C284.054 195.729 284.105 191.105 283.953 186.651C283.842 182.368 283.439 178.098 282.747 173.87C281.384 165.801 278.555 158.805 274.912 153.796C273.248 151.562 271.38 149.488 269.33 147.601C267.53 145.917 265.914 144.542 264.588 143.425L261.519 140.864L260.724 140.195C260.547 140.044 260.458 139.955 260.458 139.955C260.458 139.955 260.559 140.025 260.743 140.17L261.557 140.801L264.664 143.324C266.002 144.428 267.638 145.791 269.45 147.462C271.523 149.345 273.413 151.419 275.095 153.657C278.788 158.704 281.655 165.713 283.044 173.845C283.748 178.087 284.159 182.372 284.275 186.67C284.433 191.136 284.389 195.761 284.364 200.492C284.339 205.223 284.32 209.841 284.294 214.308C284.269 218.774 284.294 223.07 284.155 227.177C284.084 231.072 283.595 234.949 282.697 238.741C282.22 240.459 281.357 242.045 280.171 243.377C279.072 244.595 277.776 245.62 276.339 246.412C275.675 246.786 274.989 247.12 274.286 247.415C273.586 247.667 272.923 247.951 272.241 248.121C271.906 248.216 271.571 248.323 271.243 248.405L270.258 248.62C269.627 248.777 268.995 248.847 268.364 248.941C266.268 249.186 264.158 249.278 262.05 249.219H258.053H257.011L256.6 249.068Z" fill="#455A64"/>
    <path d="M284.143 202.851C286.278 202.175 288.552 202.069 290.741 202.542C290.741 202.637 289.251 202.504 287.439 202.593C285.627 202.681 284.162 202.946 284.143 202.851Z" fill="#455A64"/>
    <path d="M243.739 133.401H243.978H244.692C245.323 133.401 246.245 133.401 247.432 133.502C250.788 133.808 254.094 134.513 257.282 135.602L258.817 136.17L259.612 136.467L260.402 136.826L262.024 137.564C262.58 137.81 263.104 138.132 263.666 138.416C266.023 139.671 268.263 141.134 270.359 142.788C272.696 144.593 274.852 146.619 276.799 148.838C278.9 151.219 280.654 153.884 282.009 156.755C284.825 162.653 286.043 168.823 286.668 174.419C287.131 179.38 287.342 184.362 287.3 189.345C287.3 193.597 287.3 197.035 287.388 199.438L287.464 202.176V202.889C287.494 202.893 287.522 202.908 287.541 202.932C287.56 202.955 287.57 202.985 287.568 203.016C287.566 203.046 287.552 203.075 287.53 203.095C287.508 203.116 287.479 203.128 287.448 203.128C287.418 203.128 287.388 203.116 287.366 203.095C287.344 203.075 287.331 203.046 287.329 203.016C287.326 202.985 287.336 202.955 287.355 202.932C287.375 202.908 287.402 202.893 287.432 202.889L287.382 202.176C287.338 201.545 287.294 200.631 287.243 199.445C287.142 197.066 287.098 193.628 287.054 189.351C287.009 185.074 286.94 180.04 286.334 174.457C285.728 168.874 284.44 162.767 281.68 156.919C280.337 154.074 278.601 151.433 276.522 149.071C274.591 146.864 272.453 144.846 270.138 143.046C268.059 141.397 265.839 139.934 263.502 138.675C262.952 138.384 262.422 138.044 261.879 137.817L260.269 137.079L259.486 136.719L258.697 136.422L257.175 135.848C254.007 134.747 250.723 134.012 247.388 133.659C246.207 133.558 245.279 133.539 244.66 133.495L243.947 133.451L243.739 133.401Z" fill="#E0E0E0"/>
    <path d="M237.892 133.382C237.892 133.382 240.184 127.332 248.348 128.48C248.348 128.48 251.985 128.278 252.648 130.297C252.648 130.297 245.071 128.404 241.806 133.666L237.892 133.382Z" fill="#263238"/>
    <path d="M261.159 140.75H256.379C256.379 140.75 255.451 128.133 243.859 128.606C243.859 128.631 258.267 123.787 261.159 140.75Z" fill="#455A64"/>
    <path d="M284.212 210.56L291.063 211.513L290.381 213.941L283.985 213.449L284.212 210.56Z" fill="#455A64"/>
    <path d="M284.629 212.762C284.842 212.319 285.111 211.906 285.431 211.532L285.526 211.4L285.633 211.532L286.593 212.693H286.372L287.06 212.188L287.767 211.677L287.9 211.583L287.994 211.709L288.872 212.97H288.695C289.082 212.672 289.507 212.426 289.958 212.239C289.639 212.598 289.274 212.914 288.872 213.179L288.746 213.166L288.664 213.065L287.736 211.866L287.957 211.898L287.256 212.415L286.567 212.914L286.441 213.008L286.346 212.888L285.437 211.69H285.639C285.351 212.09 285.011 212.45 284.629 212.762Z"/>
    <path d="M184.562 255.647C184.562 255.647 183.236 251.332 183.501 249.509C183.767 247.686 186.223 246.027 186.223 246.027L183.558 176.854C183.558 176.854 183.211 146.573 199.243 137.192L208.809 134.782L232.405 133.388C233.169 133.641 260.9 144.062 264.714 148.131L252.755 209.128C252.755 209.128 254.207 227.152 255.66 240.11C255.956 242.759 257.945 255.837 257.945 255.837L184.562 255.647Z"/>
    <g opacity="0.3">
    <path opacity="0.3" d="M255.211 236.034C254.99 237.718 254.346 239.769 252.73 240.286C251.077 240.721 249.343 240.747 247.679 240.362C241.762 239.308 236.313 236.532 230.978 233.788C220.989 228.666 210.911 223.48 202.292 216.295C201.08 215.285 199.767 213.708 200.531 212.32C201.371 210.743 203.738 211.273 205.361 212.017C222.296 219.821 238.27 228.237 255.205 236.034" fill=""/>
    </g>
    <path d="M195.65 139.072C195.65 139.072 185.086 142.592 181.67 152.37C177.882 163.171 175.394 184.14 175.394 184.14L185.825 185.452L195.65 139.072Z"/>
    <path d="M264.702 148.125C264.702 148.125 270.384 155.569 273.125 164.616C275.865 173.662 277.456 199.88 277.456 199.88L249.042 199.483L247.533 176.419C247.533 176.419 244.667 137.924 264.702 148.125Z"/>
    <path d="M179.12 161.789C179.338 161.502 179.602 161.252 179.903 161.051C180.337 160.759 180.826 160.557 181.34 160.459C181.855 160.36 182.384 160.366 182.895 160.477C184.272 160.679 185.611 161.739 187.372 162.433C188.291 162.841 189.311 162.967 190.302 162.792C191.344 162.565 192.24 161.821 193.194 161.102C193.678 160.709 194.208 160.377 194.772 160.111C195.078 159.967 195.409 159.886 195.746 159.872C196.083 159.858 196.42 159.911 196.736 160.029C197.376 160.312 197.91 160.789 198.264 161.392C198.656 161.96 198.971 162.584 199.382 163.139C199.76 163.728 200.324 164.172 200.985 164.401C201.674 164.6 202.406 164.6 203.094 164.401C203.818 164.203 204.511 163.906 205.153 163.518C205.784 163.133 206.416 162.66 207.123 162.256C207.805 161.806 208.544 161.447 209.32 161.19C210.141 160.926 211.025 160.926 211.846 161.19C212.655 161.486 213.397 161.938 214.031 162.521C214.662 163.076 215.293 163.676 215.963 164.199C216.604 164.756 217.378 165.136 218.21 165.303C219.06 165.452 219.935 165.363 220.736 165.045C222.378 164.414 223.83 163.316 225.44 162.426C226.238 161.954 227.105 161.61 228.01 161.405C228.926 161.222 229.874 161.296 230.75 161.619C232.474 162.288 233.75 163.587 235.278 164.319C235.652 164.503 236.046 164.642 236.452 164.735C236.855 164.814 237.267 164.839 237.677 164.811C238.497 164.731 239.295 164.502 240.032 164.136C241.529 163.461 242.88 162.515 244.452 162.01C245.217 161.738 246.038 161.664 246.839 161.796C247.613 161.959 248.33 162.324 248.916 162.855C250.078 163.821 250.987 165.051 252.313 165.461C252.961 165.648 253.645 165.667 254.302 165.518C254.946 165.372 255.579 165.183 256.196 164.95C257.415 164.521 258.722 164.079 259.928 164.363C260.516 164.501 261.064 164.77 261.532 165.152C261.993 165.505 262.391 165.89 262.795 166.249C263.179 166.602 263.603 166.908 264.058 167.164C264.485 167.39 264.949 167.539 265.428 167.606C266.295 167.717 267.177 167.626 268.004 167.341C268.703 167.103 269.365 166.765 269.968 166.338C270.8 165.737 271.578 165.064 272.291 164.325L272.859 163.758C272.922 163.689 272.989 163.626 273.062 163.568C273.008 163.642 272.949 163.712 272.885 163.776L272.342 164.369C271.644 165.131 270.874 165.824 270.043 166.439C269.435 166.881 268.765 167.231 268.054 167.48C267.205 167.782 266.298 167.884 265.402 167.776C264.902 167.711 264.417 167.56 263.969 167.328C263.515 167.067 263.091 166.756 262.706 166.401C261.892 165.707 261.084 164.817 259.922 164.584C258.76 164.351 257.541 164.748 256.323 165.215C255.693 165.455 255.048 165.651 254.391 165.802C253.69 165.962 252.96 165.943 252.269 165.745C251.562 165.503 250.916 165.111 250.375 164.597C249.825 164.111 249.314 163.568 248.746 163.101C248.195 162.604 247.522 162.262 246.795 162.111C246.044 161.99 245.275 162.062 244.559 162.319C243.076 162.805 241.724 163.751 240.203 164.445C239.434 164.827 238.601 165.067 237.746 165.152C237.307 165.182 236.865 165.154 236.433 165.07C235.996 164.973 235.572 164.825 235.17 164.628C233.579 163.865 232.304 162.572 230.668 161.947C229.851 161.646 228.966 161.576 228.111 161.745C227.24 161.945 226.405 162.279 225.636 162.736C224.051 163.606 222.593 164.735 220.881 165.379C220.027 165.715 219.096 165.809 218.192 165.65C217.308 165.474 216.486 165.071 215.805 164.483C214.435 163.417 213.342 162.029 211.789 161.518C211.032 161.274 210.216 161.274 209.459 161.518C208.71 161.767 207.997 162.112 207.338 162.546C206.662 162.956 206.037 163.423 205.361 163.808C204.695 164.208 203.977 164.514 203.227 164.716C202.487 164.932 201.7 164.932 200.96 164.716C200.248 164.473 199.638 164 199.224 163.373C198.801 162.792 198.485 162.168 198.106 161.613C197.783 161.056 197.292 160.615 196.704 160.351C196.419 160.242 196.115 160.192 195.81 160.204C195.505 160.216 195.206 160.29 194.93 160.42C194.383 160.676 193.867 160.995 193.396 161.373C192.449 162.08 191.502 162.849 190.409 163.083C189.38 163.256 188.322 163.117 187.372 162.685C185.585 161.979 184.272 160.9 182.952 160.685C182.455 160.571 181.94 160.557 181.437 160.643C180.934 160.73 180.453 160.916 180.022 161.19C179.706 161.365 179.404 161.566 179.12 161.789Z" fill="#FAFAFA"/>
    <path d="M175.773 178.847H176.051L176.865 178.929C177.894 179.134 178.955 179.106 179.972 178.847C180.641 178.702 181.393 178.57 182.213 178.425C183.034 178.28 183.918 178.084 184.891 177.964C185.937 177.816 187.003 177.893 188.016 178.191C189.09 178.507 190.131 179.056 191.281 179.453C192.481 179.861 193.777 179.899 195 179.56C196.262 179.257 197.525 178.664 198.914 178.191C200.309 177.598 201.852 177.449 203.334 177.762C204.862 178.191 206.094 179.321 207.628 179.693C208.008 179.782 208.401 179.81 208.79 179.775C209.186 179.725 209.575 179.632 209.952 179.497C210.722 179.232 211.467 178.866 212.281 178.557C213.114 178.214 214.042 178.182 214.896 178.469C215.697 178.852 216.441 179.344 217.105 179.932C217.444 180.197 217.812 180.419 218.204 180.595C218.604 180.759 219.034 180.839 219.467 180.828C220.35 180.747 221.209 180.492 221.993 180.078C222.817 179.653 223.68 179.307 224.569 179.043C225.038 178.93 225.522 178.899 226.002 178.948C226.485 179.012 226.951 179.164 227.379 179.396C228.179 179.879 228.951 180.408 229.69 180.98C230.056 181.234 230.45 181.445 230.864 181.611C231.067 181.693 231.279 181.753 231.495 181.787L231.817 181.844H232.146C233.03 181.827 233.904 181.645 234.722 181.308C235.555 181.005 236.376 180.677 237.248 180.393C238.101 180.093 239.019 180.028 239.906 180.204C240.762 180.439 241.537 180.904 242.147 181.547C242.721 182.146 243.337 182.703 243.991 183.213C244.636 183.669 245.418 183.892 246.207 183.844C246.985 183.764 247.74 183.535 248.43 183.169C249.131 182.828 249.8 182.431 250.469 182.058C251.795 181.327 253.254 180.645 254.763 180.797C256.157 181.053 257.462 181.663 258.552 182.569C259.538 183.369 260.595 184.078 261.709 184.689C262.745 185.193 263.868 185.497 265.017 185.585C266.046 185.642 267.078 185.561 268.086 185.345C269.703 184.97 271.214 184.235 272.506 183.194C273.309 182.525 274.002 181.733 274.558 180.847C274.735 180.538 274.855 180.286 274.943 180.128C274.983 180.045 275.03 179.964 275.082 179.888C275.053 179.977 275.017 180.064 274.975 180.147C274.893 180.311 274.785 180.57 274.615 180.885C274.077 181.794 273.392 182.609 272.588 183.295C271.294 184.368 269.771 185.132 268.136 185.528C267.113 185.756 266.064 185.845 265.017 185.793C263.838 185.711 262.686 185.407 261.62 184.897C260.487 184.287 259.411 183.575 258.406 182.771C257.35 181.898 256.087 181.309 254.738 181.062C253.33 180.904 251.928 181.547 250.615 182.286C249.945 182.658 249.282 183.061 248.563 183.408C247.84 183.795 247.048 184.037 246.233 184.121C245.375 184.174 244.524 183.934 243.821 183.44C243.148 182.924 242.515 182.359 241.926 181.749C241.354 181.145 240.627 180.709 239.824 180.488C238.98 180.32 238.107 180.386 237.298 180.677C236.465 180.923 235.65 181.308 234.804 181.585C233.948 181.939 233.034 182.13 232.108 182.147H231.754L231.401 182.084C231.165 182.045 230.934 181.979 230.712 181.888C230.267 181.713 229.843 181.486 229.45 181.213C228.722 180.649 227.963 180.127 227.177 179.649C226.784 179.436 226.356 179.297 225.914 179.239C225.472 179.193 225.026 179.223 224.594 179.327C223.723 179.584 222.877 179.922 222.068 180.336C221.249 180.767 220.352 181.03 219.429 181.112C218.959 181.12 218.493 181.032 218.059 180.853C217.642 180.666 217.25 180.429 216.891 180.147C216.25 179.576 215.534 179.097 214.763 178.721C213.979 178.46 213.126 178.491 212.364 178.81C211.574 179.081 210.829 179.44 210.034 179.743C209.625 179.887 209.201 179.984 208.771 180.033C208.348 180.072 207.921 180.043 207.508 179.945C205.873 179.529 204.654 178.399 203.208 177.996C201.773 177.688 200.278 177.831 198.927 178.406C197.576 178.866 196.3 179.459 194.981 179.762C193.713 180.106 192.37 180.06 191.129 179.63C189.955 179.226 188.925 178.677 187.877 178.368C186.891 178.072 185.854 177.99 184.834 178.128C183.874 178.229 182.99 178.425 182.163 178.557C181.336 178.69 180.591 178.81 179.921 178.948C179.587 179.011 179.29 179.087 178.968 179.131C178.683 179.165 178.394 179.165 178.109 179.131C177.585 179.074 177.143 179.011 176.783 178.961L175.969 178.847H175.773Z" fill="#FAFAFA"/>
    <path d="M186.286 193.723H186.475L187.025 193.78C187.505 193.83 188.218 193.925 189.127 194.064C190.952 194.316 193.547 194.859 196.837 195.124C198.618 195.269 200.41 195.238 202.185 195.029C203.19 194.91 204.205 194.91 205.21 195.029C205.743 195.103 206.262 195.256 206.75 195.483C207.238 195.731 207.698 196.031 208.12 196.379C208.979 197.041 209.794 197.843 210.848 198.164C211.376 198.32 211.937 198.32 212.465 198.164C213.015 197.996 213.551 197.785 214.068 197.533C214.615 197.254 215.2 197.058 215.805 196.953C216.447 196.862 217.101 197.003 217.648 197.351C218.741 197.981 219.454 199.117 220.566 199.584C221.677 200.051 222.946 199.767 224.089 199.426C225.23 198.995 226.423 198.72 227.637 198.606C228.249 198.592 228.856 198.717 229.412 198.972C229.939 199.234 230.43 199.565 230.87 199.956C231.645 200.737 232.519 201.411 233.472 201.962C234.431 202.354 235.506 202.354 236.465 201.962C237.437 201.659 238.359 201.186 239.3 200.965C240.236 200.702 241.235 200.776 242.122 201.173C242.536 201.394 242.873 201.735 243.088 202.151C243.265 202.539 243.413 202.94 243.53 203.35C243.637 203.721 243.822 204.065 244.073 204.359C244.321 204.625 244.631 204.825 244.976 204.94C245.625 205.144 246.322 205.144 246.971 204.94C247.54 204.763 248.054 204.446 248.468 204.019C248.823 203.659 249.13 203.257 249.383 202.82C249.728 202.213 250.026 201.58 250.274 200.927L250.476 200.416C250.452 200.413 250.431 200.4 250.417 200.381C250.402 200.362 250.395 200.339 250.397 200.315C250.399 200.292 250.41 200.27 250.427 200.254C250.445 200.237 250.468 200.229 250.492 200.229C250.515 200.229 250.538 200.237 250.556 200.254C250.573 200.27 250.584 200.292 250.586 200.315C250.588 200.339 250.581 200.362 250.566 200.381C250.552 200.4 250.531 200.413 250.507 200.416L250.337 200.94C250.115 201.613 249.834 202.266 249.497 202.889C249.25 203.348 248.944 203.772 248.588 204.151C248.162 204.607 247.628 204.948 247.035 205.142C246.348 205.372 245.606 205.383 244.913 205.173C244.53 205.051 244.185 204.834 243.909 204.542C243.623 204.23 243.407 203.86 243.278 203.457C243.161 203.06 243.015 202.672 242.842 202.296C242.648 201.927 242.346 201.626 241.977 201.432C241.142 201.069 240.206 201.008 239.331 201.262C238.409 201.47 237.519 201.949 236.521 202.265C236.014 202.442 235.485 202.548 234.949 202.58C234.386 202.603 233.826 202.492 233.314 202.259C232.334 201.703 231.433 201.017 230.637 200.221C230.217 199.848 229.75 199.532 229.248 199.281C228.735 199.047 228.176 198.933 227.612 198.947C226.428 199.064 225.264 199.338 224.152 199.76C223.556 199.953 222.943 200.088 222.321 200.164C221.678 200.241 221.026 200.152 220.427 199.906C219.164 199.369 218.476 198.246 217.472 197.647C216.988 197.334 216.407 197.207 215.836 197.287C215.264 197.39 214.711 197.577 214.195 197.843C213.662 198.108 213.108 198.332 212.54 198.511C211.957 198.683 211.337 198.683 210.753 198.511C209.598 198.152 208.777 197.319 207.931 196.663C207.526 196.328 207.086 196.038 206.618 195.799C206.158 195.582 205.668 195.435 205.165 195.363C204.184 195.248 203.192 195.248 202.21 195.363C200.419 195.563 198.613 195.582 196.818 195.42C193.528 195.117 190.927 194.543 189.108 194.253L187.019 193.912L186.475 193.824L186.286 193.723Z" fill="#FAFAFA"/>
    <path d="M185.402 235.794L185.585 235.719L186.141 235.523C186.627 235.353 187.34 235.094 188.275 234.791C189.404 234.396 190.573 234.125 191.76 233.984C192.517 233.94 193.274 234.065 193.977 234.35C194.736 234.667 195.531 234.894 196.344 235.025C197.244 235.058 198.136 234.856 198.933 234.438C199.822 233.974 200.755 233.599 201.718 233.321C202.791 233.128 203.895 233.192 204.938 233.511C206.011 233.795 207.06 234.217 208.165 234.539C209.265 234.921 210.443 235.023 211.593 234.835C212.769 234.487 213.913 234.042 215.015 233.504C215.616 233.247 216.257 233.096 216.91 233.056C217.589 233.031 218.262 233.206 218.842 233.561C219.997 234.249 220.824 235.365 222.03 235.813C222.642 236.021 223.304 236.037 223.925 235.857C224.546 235.682 225.15 235.452 225.731 235.17C226.318 234.886 226.926 234.646 227.549 234.451C228.188 234.247 228.873 234.234 229.519 234.413C230.137 234.624 230.689 234.991 231.123 235.479C231.565 235.921 231.956 236.394 232.386 236.741C232.827 237.105 233.35 237.356 233.91 237.473C234.47 237.589 235.05 237.567 235.6 237.409C236.717 237.189 237.765 236.778 238.839 236.476C239.371 236.324 239.921 236.242 240.474 236.23C241.023 236.209 241.567 236.34 242.046 236.608C242.509 236.862 242.902 237.226 243.189 237.668C243.48 238.084 243.707 238.52 243.941 238.93C244.298 239.752 244.955 240.408 245.778 240.765C246.559 240.989 247.395 240.903 248.114 240.526C248.771 240.206 249.357 239.758 249.838 239.207C250.554 238.267 251.166 237.252 251.663 236.179C252 235.514 252.397 234.88 252.85 234.287C253.011 234.077 253.19 233.883 253.387 233.706C253.387 233.706 253.21 233.914 252.907 234.337C252.48 234.951 252.104 235.599 251.783 236.274C251.301 237.369 250.698 238.406 249.983 239.365C249.491 239.94 248.887 240.41 248.209 240.747C247.436 241.166 246.528 241.264 245.683 241.018C244.802 240.647 244.094 239.958 243.701 239.087C243.221 238.274 242.785 237.327 241.895 236.873C241.004 236.419 239.925 236.507 238.896 236.778C237.866 237.05 236.799 237.498 235.644 237.731C235.054 237.871 234.443 237.894 233.844 237.8C233.535 237.748 233.234 237.657 232.948 237.529C232.667 237.386 232.404 237.21 232.165 237.006C231.685 236.602 231.287 236.129 230.858 235.7C230.458 235.25 229.949 234.911 229.38 234.716C228.793 234.558 228.172 234.573 227.593 234.76C226.985 234.952 226.392 235.188 225.819 235.466C225.21 235.759 224.576 235.995 223.925 236.173C223.251 236.361 222.536 236.343 221.873 236.122C220.54 235.611 219.713 234.47 218.627 233.839C218.101 233.513 217.49 233.35 216.872 233.372C216.254 233.409 215.648 233.552 215.079 233.795C213.959 234.337 212.795 234.785 211.599 235.132C210.398 235.327 209.168 235.218 208.019 234.817C206.902 234.482 205.854 234.06 204.805 233.776C203.807 233.465 202.748 233.395 201.718 233.574C200.771 233.842 199.853 234.203 198.977 234.653C198.139 235.08 197.203 235.28 196.262 235.233C195.431 235.095 194.619 234.858 193.844 234.526C193.17 234.243 192.441 234.114 191.71 234.148C190.533 234.276 189.374 234.528 188.25 234.899L186.097 235.574L185.535 235.738L185.402 235.794Z" fill="#FAFAFA"/>
    <path d="M220.875 220.168C220.763 220.256 220.643 220.332 220.515 220.396C220.158 220.592 219.787 220.761 219.404 220.9C217.981 221.42 216.451 221.578 214.952 221.361C214.456 221.286 213.966 221.172 213.487 221.02C212.989 220.862 212.49 220.635 211.985 220.421C211.484 220.184 210.934 220.072 210.381 220.093C209.802 220.178 209.256 220.412 208.796 220.774C208.291 221.127 207.805 221.55 207.23 221.903C206.936 222.086 206.617 222.226 206.283 222.32C206.112 222.367 205.936 222.394 205.759 222.402C205.581 222.424 205.4 222.424 205.222 222.402C203.776 222.219 202.627 221.266 201.377 220.629C200.792 220.275 200.115 220.101 199.432 220.131H199.192C199.116 220.131 199.041 220.181 198.965 220.206C198.811 220.254 198.665 220.322 198.529 220.408C198.258 220.587 198.01 220.799 197.79 221.039C197.366 221.564 196.901 222.055 196.401 222.509C196.13 222.732 195.806 222.882 195.461 222.944C195.116 222.995 194.764 222.943 194.45 222.793C193.899 222.472 193.438 222.016 193.112 221.468C192.808 220.99 192.472 220.533 192.108 220.099C191.762 219.74 191.344 219.46 190.881 219.276C190.419 219.092 189.922 219.009 189.424 219.033C188.592 219.096 187.8 219.415 187.157 219.948C186.632 220.338 186.181 220.819 185.825 221.367C185.515 221.813 185.338 222.338 185.314 222.881C185.287 222.739 185.287 222.594 185.314 222.452C185.364 222.041 185.506 221.646 185.73 221.298C186.077 220.746 186.52 220.261 187.037 219.866C187.703 219.294 188.531 218.945 189.405 218.869C189.94 218.835 190.476 218.918 190.977 219.11C191.477 219.303 191.929 219.602 192.303 219.985C192.68 220.422 193.026 220.884 193.339 221.367C193.639 221.869 194.06 222.287 194.564 222.585C194.832 222.704 195.13 222.743 195.42 222.697C195.71 222.651 195.981 222.522 196.199 222.326C196.683 221.878 197.132 221.395 197.544 220.881C197.781 220.615 198.05 220.38 198.346 220.181C198.504 220.082 198.673 220.003 198.851 219.948C198.94 219.948 199.028 219.878 199.116 219.859L199.394 219.821C200.142 219.783 200.885 219.968 201.528 220.351C202.791 220.982 203.959 221.935 205.26 222.093C205.894 222.163 206.532 222.011 207.066 221.664C207.609 221.336 208.095 220.919 208.619 220.56C209.125 220.171 209.724 219.923 210.356 219.84C210.956 219.82 211.551 219.945 212.092 220.206C212.61 220.427 213.09 220.654 213.569 220.837C215.45 221.466 217.485 221.466 219.366 220.837C220.357 220.459 220.856 220.137 220.875 220.168Z" fill="#FAFAFA"/>
    <path d="M186.021 252.651L186.21 252.701L186.438 252.777L186.766 252.827C187.505 252.857 188.237 252.68 188.881 252.316C189.911 251.722 191.004 251.243 192.139 250.891C192.886 250.719 193.669 250.832 194.337 251.206C195.049 251.63 195.728 252.107 196.37 252.632C197.045 253.205 197.908 253.511 198.794 253.49C199.747 253.316 200.665 252.986 201.509 252.512C201.988 252.285 202.493 252.117 203.012 252.014C203.557 251.925 204.113 251.935 204.654 252.045C205.746 252.247 206.775 252.714 207.862 253.01C208.973 253.319 210.145 253.336 211.265 253.061C212.444 252.769 213.598 252.387 214.719 251.919C215.896 251.419 217.13 251.063 218.394 250.859C219.726 250.691 221.078 250.91 222.289 251.49C223.514 252.02 224.632 252.708 225.813 253.181C226.942 253.697 228.213 253.814 229.418 253.515C231.78 252.84 233.497 250.929 235.732 250.19C236.825 249.816 238.011 249.816 239.104 250.19C240.109 250.548 241.06 251.04 241.933 251.654C242.785 252.216 243.587 252.783 244.401 253.244C245.173 253.694 246.007 254.028 246.877 254.234C248.39 254.553 249.96 254.488 251.442 254.045C252.562 253.712 253.611 253.176 254.536 252.462C255.318 251.843 256 251.107 256.556 250.279C256.531 250.339 256.499 250.396 256.462 250.449L256.152 250.941C255.713 251.548 255.195 252.093 254.611 252.563C253.531 253.427 252.274 254.045 250.929 254.372C249.584 254.699 248.183 254.727 246.826 254.455C245.94 254.249 245.089 253.913 244.3 253.458C243.467 252.991 242.659 252.43 241.806 251.875C240.952 251.282 240.022 250.806 239.041 250.462C238.008 250.107 236.885 250.107 235.852 250.462C234.772 250.886 233.75 251.443 232.809 252.121C231.806 252.85 230.696 253.42 229.519 253.812C228.254 254.126 226.919 254.006 225.731 253.471C224.518 252.985 223.401 252.298 222.201 251.78C221.042 251.228 219.749 251.022 218.476 251.187C217.237 251.387 216.026 251.734 214.87 252.222C213.734 252.694 212.562 253.078 211.366 253.37C210.197 253.653 208.975 253.631 207.817 253.307C206.7 252.998 205.677 252.531 204.66 252.329C204.154 252.221 203.632 252.206 203.12 252.285C202.622 252.381 202.139 252.538 201.68 252.752C200.807 253.235 199.86 253.567 198.876 253.736C197.934 253.755 197.017 253.427 196.3 252.815C195.673 252.292 195.008 251.815 194.311 251.389C193.686 251.031 192.95 250.919 192.247 251.074C191.128 251.413 190.049 251.87 189.026 252.436C188.362 252.795 187.608 252.955 186.854 252.897L186.52 252.834L186.292 252.739L186.021 252.651Z" fill="#FAFAFA"/>
    <path d="M187.58 144.182C187.58 144.182 187.764 144.409 188.212 144.75C188.852 145.23 189.596 145.555 190.384 145.696C191.636 145.911 192.913 145.936 194.172 145.772C194.911 145.715 195.707 145.64 196.559 145.652C197.465 145.647 198.363 145.807 199.211 146.125C200.109 146.529 200.982 146.987 201.825 147.494C202.275 147.746 202.746 147.957 203.233 148.125C203.739 148.282 204.264 148.369 204.793 148.384C205.921 148.376 207.045 148.247 208.146 147.999C209.337 147.726 210.563 147.632 211.783 147.721C213.056 147.947 214.264 148.446 215.325 149.185C216.385 149.943 217.588 150.477 218.861 150.756C219.516 150.83 220.179 150.785 220.818 150.623C221.468 150.439 222.102 150.201 222.712 149.911C223.965 149.24 225.275 148.683 226.627 148.245C227.337 148.057 228.078 148.012 228.806 148.113C229.516 148.244 230.197 148.498 230.82 148.863C232.051 149.557 233.105 150.459 234.305 151.015C235.493 151.546 236.813 151.709 238.094 151.481C239.335 151.262 240.558 150.946 241.75 150.535C242.901 150.146 244.084 149.859 245.285 149.677C246.434 149.543 247.597 149.615 248.72 149.892C250.688 150.461 252.613 151.172 254.479 152.018C256.013 152.695 257.697 152.963 259.366 152.793C260.628 152.69 261.865 152.381 263.028 151.879C264.024 151.453 264.909 150.805 265.617 149.986C265.461 150.215 265.281 150.427 265.08 150.617C264.502 151.186 263.826 151.648 263.085 151.98C261.917 152.51 260.669 152.843 259.391 152.964C258.594 153.053 257.789 153.053 256.992 152.964C256.101 152.84 255.23 152.598 254.403 152.245C252.543 151.419 250.627 150.726 248.67 150.169C247.577 149.905 246.446 149.839 245.33 149.974C244.145 150.158 242.979 150.445 241.844 150.832C240.638 151.25 239.401 151.573 238.144 151.797C236.804 152.035 235.422 151.866 234.179 151.311C232.916 150.731 231.862 149.828 230.668 149.153C230.083 148.808 229.442 148.567 228.774 148.441C228.09 148.348 227.395 148.39 226.728 148.567C225.396 149.001 224.105 149.552 222.87 150.213C222.238 150.512 221.581 150.757 220.907 150.945C220.226 151.118 219.52 151.165 218.823 151.084C217.506 150.798 216.262 150.247 215.167 149.463C214.145 148.744 212.98 148.255 211.751 148.031C209.32 147.766 207.041 148.769 204.805 148.661C204.252 148.643 203.704 148.55 203.176 148.384C202.677 148.217 202.193 148.006 201.73 147.753C200.899 147.245 200.039 146.786 199.154 146.378C197.424 145.69 195.675 145.905 194.21 145.993C192.938 146.144 191.649 146.099 190.39 145.86C189.59 145.701 188.84 145.35 188.206 144.838C187.964 144.654 187.753 144.433 187.58 144.182Z" fill="#FAFAFA"/>
    <g opacity="0.3">
    <path opacity="0.3" d="M234.943 151.437L243.859 157.6C241.023 164.622 243.65 174.368 246.106 182.342C247.06 185.446 250.223 188.651 250.072 191.919C249.92 195.187 252.635 200.675 249.491 201.495C248.433 201.714 247.34 201.698 246.29 201.449C245.239 201.199 244.256 200.722 243.41 200.05C241.729 198.694 240.321 197.031 239.262 195.149C232.998 185.03 230.075 165.675 234.943 151.437Z" fill=""/>
    </g>
    <path d="M188.01 247.282C188.125 247.28 188.239 247.293 188.351 247.32L189.311 247.497L192.834 248.166C195.808 248.721 199.931 249.427 204.502 250.058C209.074 250.689 213.235 251.131 216.253 251.408L219.827 251.724L220.799 251.818C220.807 251.777 220.83 251.739 220.864 251.714C220.898 251.688 220.94 251.676 220.983 251.68C221.025 251.684 221.064 251.704 221.093 251.735C221.121 251.766 221.137 251.807 221.137 251.85C221.137 251.892 221.121 251.933 221.093 251.965C221.064 251.996 221.025 252.015 220.983 252.019C220.94 252.023 220.898 252.011 220.864 251.986C220.83 251.96 220.807 251.923 220.799 251.881L219.827 251.85C218.981 251.818 217.756 251.743 216.247 251.635C213.222 251.421 209.055 251.004 204.471 250.374C199.887 249.743 195.77 248.979 192.802 248.367C191.318 248.058 190.119 247.793 189.298 247.592L188.351 247.358C188.234 247.348 188.12 247.322 188.01 247.282Z" fill="#263238"/>
    <path d="M201.888 245.636C202.066 245.659 202.241 245.697 202.412 245.749C202.753 245.825 203.246 245.989 203.903 246.109C211.858 247.875 220.19 246.448 227.103 242.137C234.017 237.826 238.959 230.974 240.866 223.058C241.042 222.427 241.112 221.903 241.194 221.562C241.222 221.387 241.264 221.214 241.32 221.045C241.314 221.223 241.293 221.4 241.257 221.575C241.194 221.922 241.143 222.439 240.986 223.089C240.591 224.935 240.015 226.737 239.268 228.47C236.816 234.254 232.639 239.142 227.306 242.469C221.973 245.796 215.743 247.4 209.465 247.062C207.578 246.97 205.704 246.693 203.871 246.235C203.24 246.09 202.728 245.907 202.393 245.812C202.22 245.768 202.052 245.708 201.888 245.636Z" fill="#263238"/>
    <path d="M207.483 134.745C207.497 134.896 207.497 135.048 207.483 135.199V136.498C207.443 138.087 207.605 139.675 207.963 141.223C208.225 142.281 208.688 143.279 209.326 144.163C210.077 145.162 211.041 145.981 212.149 146.561C213.374 147.21 214.686 147.68 216.045 147.955C217.495 148.275 218.979 148.419 220.465 148.384C223.358 148.356 226.192 147.557 228.673 146.068C230.68 144.829 232.309 143.064 233.383 140.965C234.107 139.549 234.526 137.997 234.615 136.41C234.652 135.287 234.539 134.663 234.577 134.663C234.619 134.809 234.646 134.959 234.659 135.11C234.72 135.543 234.747 135.98 234.741 136.416C234.701 138.031 234.308 139.618 233.592 141.066C232.526 143.226 230.88 145.048 228.837 146.327C226.318 147.859 223.432 148.683 220.484 148.712C218.966 148.75 217.45 148.601 215.969 148.27C214.582 147.985 213.244 147.498 211.997 146.825C210.853 146.213 209.863 145.351 209.099 144.302C208.45 143.386 207.985 142.354 207.729 141.261C207.385 139.69 207.255 138.079 207.344 136.473C207.344 135.905 207.394 135.47 207.413 135.174C207.423 135.029 207.446 134.885 207.483 134.745Z" fill="#263238"/>
    <path d="M203.625 135.842C203.625 135.842 188.262 136.423 184.613 151.752C180.389 169.505 182.94 189.08 188.25 198.883L188.502 181.421C188.676 169.303 191.597 157.382 197.045 146.554L203.625 135.842Z" fill="#455A64"/>
    <path d="M185.566 186.228C185.539 186.051 185.526 185.872 185.528 185.692L185.478 184.159C185.478 183.49 185.44 182.677 185.478 181.73C185.516 180.784 185.478 179.705 185.585 178.513L185.699 176.62C185.743 175.99 185.825 175.296 185.888 174.602C186.008 173.201 186.236 171.719 186.45 170.186C187.501 163.409 189.371 156.785 192.019 150.459C192.651 149.014 193.232 147.626 193.863 146.377C194.172 145.747 194.45 145.116 194.76 144.554L195.644 142.901C196.187 141.842 196.761 140.921 197.235 140.1C197.708 139.28 198.144 138.586 198.498 138.031L199.344 136.77C199.437 136.616 199.542 136.47 199.659 136.334C199.586 136.499 199.5 136.657 199.401 136.807L198.618 138.094C198.264 138.662 197.841 139.356 197.386 140.189C196.932 141.021 196.37 141.936 195.839 143.002L194.981 144.661C194.684 145.242 194.412 145.86 194.103 146.491C193.472 147.753 192.916 149.128 192.291 150.573C189.684 156.888 187.822 163.485 186.741 170.23C186.513 171.788 186.28 173.264 186.147 174.646C186.078 175.34 185.989 176.015 185.939 176.658L185.806 178.551C185.699 179.737 185.693 180.816 185.648 181.762C185.604 182.708 185.598 183.522 185.604 184.191V185.724C185.605 185.893 185.592 186.061 185.566 186.228Z" fill="#263238"/>
    <path d="M192.594 139.728C192.546 139.87 192.485 140.008 192.411 140.138L191.824 141.286C191.299 142.27 190.561 143.728 189.765 145.544C189.367 146.459 188.906 147.437 188.502 148.554C188.294 149.103 188.054 149.664 187.871 150.251L187.239 152.074C186.333 154.788 185.591 157.554 185.017 160.357C184.037 165.469 183.561 170.665 183.596 175.87C183.596 177.869 183.647 179.484 183.704 180.601L183.748 181.863C183.762 182.012 183.762 182.162 183.748 182.311C183.714 182.164 183.695 182.014 183.691 181.863L183.584 180.601C183.489 179.484 183.413 177.863 183.369 175.863C183.265 170.637 183.711 165.414 184.701 160.281C185.264 157.468 186.004 154.693 186.917 151.973L187.549 150.15C187.764 149.563 188.01 149.002 188.224 148.453C188.648 147.355 189.127 146.365 189.538 145.45C190.397 143.639 191.135 142.195 191.697 141.223L192.329 140.1C192.404 139.968 192.493 139.843 192.594 139.728Z" fill="#263238"/>
    <path d="M253.26 141.753C253.26 141.753 242.943 169.82 250.545 193.483L250.962 201.855C250.962 201.855 245.147 201.457 240.739 193.149C236.332 184.841 234.911 176.267 233.421 163.915C231.931 151.563 238.706 135.823 238.706 135.823C238.706 135.823 250.728 138.473 253.26 141.753Z" fill="#455A64"/>
    <path d="M251.233 201.18C251.18 201.163 251.129 201.14 251.082 201.11L250.653 200.871C250.118 200.536 249.622 200.142 249.175 199.697C247.591 197.984 246.466 195.899 245.904 193.635C245.466 192.098 245.128 190.534 244.894 188.954C244.597 187.263 244.357 185.44 244.143 183.516C243.691 179.347 243.509 175.154 243.6 170.962C243.69 166.768 244.055 162.585 244.692 158.439C245.182 155.05 245.899 151.696 246.839 148.403C247.476 146.179 248.364 144.035 249.484 142.012C249.895 141.299 250.242 140.75 250.488 140.416L250.779 140.018C250.809 139.972 250.845 139.929 250.886 139.892C250.856 139.939 250.82 139.981 250.779 140.018L250.52 140.435C250.293 140.794 249.958 141.337 249.573 142.056C248.505 144.092 247.658 146.237 247.047 148.453C246.143 151.745 245.451 155.091 244.976 158.471C244.358 162.614 244.004 166.793 243.915 170.981C243.824 175.159 243.995 179.34 244.427 183.497C244.635 185.389 244.862 187.231 245.147 188.922C245.372 190.504 245.699 192.07 246.125 193.609C246.665 195.851 247.749 197.924 249.282 199.647C249.875 200.227 250.53 200.741 251.233 201.18Z" fill="#263238"/>
    <path d="M250.861 200.902L250.69 200.845L250.204 200.643C249.593 200.348 249.012 199.995 248.468 199.59C246.531 198.009 244.933 196.055 243.77 193.843C241.961 190.622 240.448 187.243 239.249 183.749C237.792 179.474 236.793 175.056 236.269 170.571C235.746 166.084 235.691 161.556 236.105 157.058C236.445 153.387 237.113 149.753 238.1 146.201C238.548 144.693 238.927 143.318 239.363 142.157C239.798 140.996 240.139 139.962 240.518 139.173L241.339 137.325L241.56 136.845C241.583 136.789 241.613 136.736 241.649 136.688C241.637 136.746 241.617 136.804 241.592 136.858L241.402 137.35L240.638 139.242C240.278 140.044 239.956 141.066 239.54 142.239C239.123 143.412 238.738 144.762 238.277 146.283C237.334 149.828 236.701 153.448 236.383 157.102C235.989 161.578 236.052 166.082 236.572 170.545C237.088 175.011 238.068 179.411 239.495 183.673C240.672 187.148 242.151 190.513 243.915 193.729C245.05 195.93 246.605 197.887 248.493 199.489C249.023 199.901 249.587 200.268 250.179 200.587L250.652 200.82C250.726 200.837 250.796 200.864 250.861 200.902Z" fill="#263238"/>
    <path d="M245.955 152.376L252.641 154.143L251.675 156.477L245.38 155.222L245.955 152.376Z" fill="#263238"/>
    <path d="M246.106 154.616C246.37 154.203 246.686 153.826 247.047 153.493L247.161 153.374L247.249 153.519L248.057 154.78L247.843 154.724L248.581 154.301L249.346 153.878L249.484 153.803L249.56 153.941L250.286 155.272L250.116 155.222C250.526 154.972 250.968 154.777 251.429 154.642C251.068 154.959 250.667 155.229 250.236 155.443L250.128 155.506L250.059 155.392L249.276 154.093L249.491 154.156L248.733 154.585L247.988 155.001L247.849 155.077L247.773 154.944L247.016 153.645H247.218C246.891 154.016 246.517 154.342 246.106 154.616Z"/>
    <path d="M191.123 192.468L183.842 179.037H161.674L160.973 180.374L179.732 211.538L200.973 212.56L191.123 192.468Z" fill="#455A64"/>
    <path d="M275.638 199.874V223.348C275.638 225.464 275.168 227.553 274.26 229.465C273.353 231.376 272.031 233.062 270.391 234.4C268.403 236.021 266.016 237.076 263.479 237.456C260.943 237.835 258.35 237.525 255.975 236.558L204.25 213.652L209.301 196.417L250.911 210.119L250.861 199.432L275.638 199.874Z" fill="#FFBE9D"/>
    <path d="M190.422 193.799L183.135 180.374H160.973L179.031 212.869L200.272 213.891L190.422 193.799Z" fill="#263238"/>
    <path d="M211.347 198.265L207.843 193.918C206.702 192.506 205.26 191.366 203.621 190.583C201.982 189.8 200.188 189.395 198.371 189.395H195.296L193.219 191.717C193.219 191.717 178.229 192.348 177.68 194.24V194.84V195.186L190.498 196.051C190.498 196.051 179.593 196.019 178.936 196.051C178.28 196.082 175.893 195.868 175.944 197.148C175.981 198.202 177.206 199.041 179.101 199.306C179.877 199.42 189.323 200.24 189.323 200.24L178.924 200.145C177.756 200.145 177.907 202.038 178.595 202.239C179.145 202.422 192.487 206.308 192.487 206.308C192.487 206.308 190.245 207.81 188.42 207.677C186.595 207.545 183.457 205.198 182.807 206.308C182.157 207.419 182.283 208.069 182.674 208.333C184.648 209.438 186.699 210.397 188.812 211.204C190.245 211.595 201.977 213.45 201.977 213.45L206.207 214.131L211.347 198.265Z" fill="#FFBE9D"/>
    <path d="M164.073 185.61C164.073 185.61 161.756 186.418 162.936 189.395C164.059 192.129 165.651 194.646 167.64 196.833C167.536 197.319 167.567 197.825 167.73 198.295C167.892 198.766 168.18 199.183 168.562 199.502C168.562 199.502 166.921 199.912 167.931 202.656C167.776 203.052 167.704 203.476 167.719 203.901C167.734 204.326 167.836 204.743 168.019 205.127C168.202 205.512 168.462 205.854 168.782 206.134C169.102 206.415 169.477 206.626 169.882 206.756C169.882 206.756 169.061 209.116 172.035 210.245C175.009 211.374 177.882 209.425 177.882 209.425L164.073 185.61Z" fill="#FFBE9D"/>
    <path d="M168.777 196.606C170.886 197.174 173.197 197.628 175.148 198.366C175.779 198.612 176.411 198.625 176.846 199.161C177.076 199.421 177.206 199.754 177.213 200.1C177.22 200.447 177.103 200.785 176.884 201.053C176.642 201.234 176.363 201.358 176.068 201.418C175.772 201.478 175.466 201.472 175.173 201.4C172.936 201.043 170.746 200.436 168.644 199.59" fill="#FFBE9D"/>
    <path d="M169.617 200.12C171.726 200.687 174.037 201.142 175.988 201.88C176.619 202.126 177.251 202.138 177.686 202.675C177.916 202.934 178.046 203.267 178.053 203.614C178.06 203.961 177.943 204.298 177.724 204.567C177.482 204.748 177.203 204.872 176.907 204.932C176.612 204.992 176.306 204.986 176.013 204.914C173.772 204.547 171.58 203.929 169.478 203.072" fill="#FFBE9D"/>
    <path d="M170.81 203.703C172.919 204.271 175.23 204.725 177.181 205.463C177.812 205.709 178.444 205.722 178.88 206.258C179.109 206.518 179.239 206.851 179.246 207.197C179.253 207.544 179.137 207.882 178.917 208.15C178.676 208.331 178.397 208.455 178.101 208.515C177.805 208.575 177.5 208.569 177.206 208.497C174.967 208.144 172.775 207.541 170.671 206.699" fill="#FFBE9D"/>
    <path d="M168.777 199.647C168.815 199.559 170.299 200.076 172.168 200.593C174.037 201.11 175.577 201.439 175.558 201.533C173.199 201.335 170.898 200.693 168.777 199.641V199.647Z" fill="#EB996E"/>
    <path d="M168.373 202.744C168.404 202.656 170.109 203.217 172.231 203.836C174.352 204.454 176.089 204.902 176.07 204.996C173.41 204.626 170.818 203.868 168.379 202.744H168.373Z" fill="#EB996E"/>
    <path d="M176.916 208.521C176.938 208.434 175.354 207.962 173.378 207.469C171.402 206.976 169.783 206.647 169.761 206.735C169.739 206.823 171.323 207.294 173.298 207.787C175.274 208.281 176.894 208.609 176.916 208.521Z" fill="#EB996E"/>
    <path d="M167.022 196.177C167.053 196.089 168.916 196.72 171.271 197.319C173.626 197.918 175.552 198.278 175.539 198.372C175.115 198.394 174.691 198.358 174.277 198.265C172.216 197.946 170.192 197.424 168.234 196.707C167.807 196.589 167.398 196.41 167.022 196.177Z" fill="#EB996E"/>
    <path d="M193.369 192.069C196.273 192.054 198.628 191.968 198.627 191.877C198.627 191.787 196.272 191.726 193.367 191.741C190.462 191.756 188.108 191.842 188.108 191.932C188.109 192.023 190.464 192.084 193.369 192.069Z" fill="#EB996E"/>
    <path d="M173.79 185.819C174.174 185.341 174.097 184.642 173.618 184.259C173.139 183.875 172.439 183.953 172.055 184.431C171.672 184.91 171.749 185.608 172.228 185.992C172.707 186.375 173.406 186.298 173.79 185.819Z" fill="#EBEBEB"/>
    <path d="M248.209 209.513C248.381 209.504 248.554 209.523 248.72 209.57C249.18 209.656 249.633 209.772 250.078 209.917C253.04 210.863 255.65 212.673 257.573 215.115C257.863 215.48 258.128 215.864 258.368 216.263C258.471 216.403 258.55 216.558 258.602 216.724C258.558 216.724 258.154 216.15 257.39 215.267C255.405 212.954 252.859 211.19 249.996 210.144C248.904 209.728 248.196 209.564 248.209 209.513Z" fill="#EB996E"/>
    <path d="M219.991 147.33C216.708 147.067 213.657 145.536 211.484 143.063C209.312 140.59 208.189 137.369 208.354 134.082C208.594 129.288 208.84 124.966 208.84 124.966C208.84 124.966 198.554 123.37 198.428 113.094C198.302 102.817 200.082 79.2233 200.082 79.2233C205.929 76.7131 212.34 75.8077 218.654 76.6006C224.967 77.3936 230.955 79.8561 235.997 83.7339L237.519 84.9073L233.623 135.685C233.496 137.345 233.043 138.963 232.288 140.448C231.534 141.932 230.494 143.253 229.227 144.335C227.961 145.417 226.493 146.239 224.908 146.753C223.323 147.267 221.652 147.463 219.991 147.33Z" fill="#FFBE9D"/>
    <path d="M208.821 124.847C213.567 124.942 218.233 123.624 222.226 121.062C222.226 121.062 219.069 128.455 208.796 127.534L208.821 124.847Z" fill="#EB996E"/>
    <path d="M202.621 95.3288C202.617 95.7112 202.763 96.0799 203.027 96.3567C203.291 96.6335 203.653 96.7966 204.035 96.8113C204.222 96.8268 204.411 96.8045 204.589 96.7458C204.768 96.6871 204.932 96.5931 205.074 96.4696C205.215 96.346 205.33 96.1953 205.412 96.0264C205.494 95.8575 205.541 95.6739 205.551 95.4865C205.554 95.1042 205.408 94.7354 205.144 94.4586C204.88 94.1819 204.519 94.0188 204.136 94.004C203.949 93.9894 203.761 94.0123 203.583 94.0714C203.405 94.1304 203.241 94.2244 203.099 94.3478C202.958 94.4712 202.843 94.6216 202.761 94.7901C202.679 94.9585 202.631 95.1417 202.621 95.3288Z" fill="#263238"/>
    <path d="M202.027 93.6821C202.21 93.8714 203.322 93.0513 204.9 93.0513C206.479 93.0513 207.641 93.8461 207.811 93.6821C207.893 93.5938 207.71 93.2531 207.18 92.8809C206.496 92.4065 205.682 92.1552 204.85 92.1617C204.029 92.1594 203.228 92.4178 202.564 92.8998C202.103 93.2468 201.939 93.5938 202.027 93.6821Z" fill="#263238"/>
    <path d="M217.522 95.7009C217.519 96.0833 217.664 96.452 217.928 96.7288C218.192 97.0055 218.554 97.1686 218.937 97.1834C219.124 97.1988 219.312 97.1765 219.491 97.1178C219.669 97.0591 219.834 96.9652 219.975 96.8416C220.116 96.718 220.231 96.5673 220.313 96.3985C220.395 96.2296 220.442 96.046 220.452 95.8586C220.456 95.4762 220.31 95.1075 220.046 94.8307C219.782 94.5539 219.42 94.3908 219.038 94.3761C218.851 94.3615 218.663 94.3844 218.484 94.4435C218.306 94.5025 218.142 94.5965 218.001 94.7199C217.86 94.8433 217.745 94.9937 217.662 95.1621C217.58 95.3306 217.533 95.5138 217.522 95.7009Z" fill="#263238"/>
    <path d="M217.56 93.9787C217.743 94.168 218.854 93.3479 220.433 93.3479C222.012 93.3479 223.173 94.1427 223.344 93.9787C223.426 93.8904 223.243 93.5497 222.712 93.1775C222.029 92.7031 221.215 92.4518 220.383 92.4584C219.559 92.4546 218.756 92.7132 218.09 93.1965C217.636 93.5434 217.472 93.8904 217.56 93.9787Z" fill="#263238"/>
    <path d="M211.827 105.687C211.827 105.599 210.854 105.429 209.257 105.227C208.853 105.183 208.474 105.107 208.405 104.829C208.372 104.414 208.466 103.998 208.676 103.637L209.869 100.565C211.524 96.193 212.73 92.5971 212.553 92.534C212.376 92.471 210.892 95.9596 209.232 100.331L208.089 103.423C207.835 103.909 207.761 104.47 207.88 105.006C207.939 105.148 208.029 105.274 208.144 105.376C208.259 105.477 208.396 105.552 208.543 105.593C208.768 105.653 208.999 105.685 209.232 105.687C210.829 105.769 211.82 105.776 211.827 105.687Z" fill="#263238"/>
    <path d="M216.48 106.779C216.221 106.779 216.221 108.476 214.75 109.693C213.279 110.911 211.454 110.721 211.442 110.955C211.442 111.062 211.852 111.289 212.622 111.308C213.626 111.323 214.603 110.983 215.382 110.349C216.129 109.738 216.609 108.86 216.72 107.902C216.764 107.182 216.594 106.766 216.48 106.779Z" fill="#263238"/>
    <path d="M217.156 87.7902C217.314 88.2192 218.892 88.0173 220.742 88.2381C222.592 88.4589 224.095 88.9636 224.341 88.5788C224.449 88.3958 224.19 87.9921 223.584 87.5757C222.778 87.064 221.867 86.7414 220.919 86.6321C219.971 86.5229 219.01 86.6298 218.109 86.9449C217.427 87.2477 217.086 87.582 217.156 87.7902Z" fill="#263238"/>
    <path d="M202.608 89.1085C202.886 89.468 203.972 89.1085 205.285 89.1085C206.599 89.1085 207.704 89.3482 207.956 88.976C208.07 88.793 207.893 88.4335 207.407 88.0928C206.756 87.6855 205.998 87.4807 205.23 87.5043C204.463 87.5279 203.719 87.7788 203.094 88.2253C202.64 88.5659 202.482 88.9381 202.608 89.1085Z" fill="#263238"/>
    <path d="M236.256 95.5495C236.433 95.4738 243.322 93.4614 243.101 100.489C242.88 107.517 235.865 105.839 235.858 105.637C235.852 105.435 236.256 95.5495 236.256 95.5495Z" fill="#FFBE9D"/>
    <path d="M238.087 103.044C238.119 103.044 238.207 103.133 238.409 103.234C238.697 103.368 239.025 103.386 239.325 103.284C240.076 103.038 240.739 101.877 240.815 100.609C240.853 100.009 240.756 99.4074 240.531 98.8492C240.473 98.6272 240.361 98.4227 240.206 98.2534C240.051 98.0842 239.857 97.9552 239.641 97.8777C239.501 97.838 239.352 97.8477 239.218 97.9052C239.085 97.9627 238.975 98.0643 238.908 98.1931C238.807 98.3886 238.845 98.5274 238.807 98.5401C238.769 98.5527 238.662 98.4202 238.725 98.13C238.77 97.9582 238.873 97.8069 239.016 97.701C239.213 97.5609 239.458 97.5043 239.697 97.5433C239.987 97.6069 240.256 97.7443 240.477 97.9421C240.699 98.14 240.865 98.3916 240.96 98.6725C241.24 99.2915 241.363 99.9694 241.32 100.647C241.232 102.06 240.461 103.36 239.426 103.625C239.236 103.673 239.038 103.678 238.845 103.64C238.653 103.602 238.472 103.521 238.315 103.404C238.094 103.215 238.062 103.057 238.087 103.044Z" fill="#EB996E"/>
    <path d="M196.142 70.3471C196.892 68.867 197.972 67.5781 199.298 66.5794C200.624 65.5807 202.161 64.8987 203.791 64.5857C205.422 64.2726 207.103 64.3369 208.705 64.7735C210.307 65.2101 211.787 66.0075 213.033 67.1045C213.814 65.549 214.964 64.2088 216.384 63.2011C217.804 62.1935 219.45 61.5494 221.177 61.3252C222.904 61.101 224.66 61.3036 226.291 61.9153C227.921 62.5269 229.377 63.5289 230.529 64.8334C232.499 67.0666 233.522 70.0947 235.833 71.9747C237.835 73.6023 240.544 74.1385 242.551 75.7598C243.664 76.6533 244.508 77.8357 244.992 79.1771C245.475 80.5186 245.58 81.9674 245.293 83.3642C245.007 84.7611 244.341 86.0521 243.368 87.0955C242.395 88.1389 241.154 88.8944 239.78 89.279C241.983 93.2533 239.918 98.9562 235.675 100.596L234.652 100.174C232.741 97.9947 231.521 95.2975 231.147 92.4244C230.772 89.5513 231.261 86.6319 232.55 84.0366C232.424 84.0366 232.304 84.0366 232.184 84.0366C230.413 85.0216 228.34 85.3172 226.364 84.8664C224.388 84.4157 222.649 83.2505 221.481 81.5952C220.056 82.588 218.377 83.1539 216.641 83.2265C214.905 83.2992 213.185 82.8755 211.682 82.0052C211.243 81.6784 210.739 81.4502 210.204 81.3365C209.55 81.344 208.912 81.5342 208.36 81.8854C206.839 82.7089 205.106 83.0583 203.385 82.8884C202.588 82.7891 201.829 82.4924 201.176 82.0253C200.523 81.5581 199.997 80.9354 199.647 80.2136H199.527C198.542 79.9883 197.637 79.4976 196.911 78.7947C196.185 78.0917 195.666 77.2036 195.41 76.2266C194.912 74.2441 195.173 72.1473 196.142 70.3471Z" fill="#263238"/>
</svg>
