<svg viewBox="0 0 312 221" xmlns="http://www.w3.org/2000/svg">
    <path fill-rule="evenodd" clip-rule="evenodd" d="M146.137 4.22643C177.748 -2.97581 206.274 23.1576 229.992 40.5258C251.017 55.9222 262.978 75.8309 272.499 96.7598C282.192 118.066 300.281 142.538 285.25 161.993C269.962 181.783 230.296 177.103 202.881 186.874C182.644 194.086 167.895 207.639 146.137 211.573C119.351 216.416 86.2133 225.465 65.5354 211.707C44.5361 197.736 61.8497 170.746 54.1954 150.402C47.0089 131.301 13.4763 116.078 22.5437 97.4402C31.6999 78.6197 73.623 86.0355 92.3992 71.8745C117.647 52.8331 111.996 12.005 146.137 4.22643Z"/>
    <path d="M265.796 16.6642H203.683V128.316H265.796V16.6642Z" fill="#EBEBEB"/>
    <path d="M262.671 19.9052H206.165V124.99H262.671V19.9052Z" fill="#FAFAFA"/>
    <path d="M268.421 129.321L265.796 128.316V14.77H268.421V129.321Z" fill="#E0E0E0"/>
    <path d="M263.898 50.1346H206.165V51.253H263.898V50.1346Z" fill="#E0E0E0"/>
    <path d="M263.898 75.1578H206.165V76.2762H263.898V75.1578Z" fill="#E0E0E0"/>
    <path d="M263.898 100.186H206.165V101.304H263.898V100.186Z" fill="#E0E0E0"/>
    <path d="M232.994 50.6915V127.969H235.848V50.6915H232.994Z" fill="#E0E0E0"/>
    <path d="M218.341 19.9052H217.047V50.6963H218.341V19.9052Z" fill="#E0E0E0"/>
    <path d="M229.498 19.9052H228.205V50.6963H229.498V19.9052Z" fill="#E0E0E0"/>
    <path d="M240.651 19.9052H239.357V50.6963H240.651V19.9052Z" fill="#E0E0E0"/>
    <path d="M251.809 19.9052H250.515V50.6963H251.809V19.9052Z" fill="#E0E0E0"/>
    <path d="M203.683 14.77H201.057V129.006H203.683V14.77Z" fill="#E0E0E0"/>
    <path d="M268.421 13.6184H201.057V16.6642H268.421V13.6184Z" fill="#E0E0E0"/>
    <path d="M275.203 197.647L278.261 209.782L283.464 218.686C283.553 218.838 283.61 219.006 283.63 219.181C283.651 219.355 283.636 219.532 283.586 219.7C283.535 219.869 283.451 220.025 283.337 220.159C283.224 220.293 283.084 220.403 282.927 220.481C282.745 220.575 282.544 220.624 282.34 220.624C282.135 220.624 281.934 220.575 281.752 220.481C279.427 219.224 270.885 214.56 270.709 213.656C270.509 212.614 266.633 201.068 266.633 201.068L275.203 197.647Z"/>
    <g opacity="0.6">
    <path opacity="0.6" d="M282.903 220.485L270.462 212.828L270.604 213.337C270.725 213.78 271 214.164 271.379 214.422C272.392 215.112 275.237 216.949 281.695 220.476C281.881 220.575 282.088 220.628 282.299 220.628C282.51 220.628 282.717 220.575 282.903 220.476V220.485Z" fill="white"/>
    </g>
    <g opacity="0.6">
    <path opacity="0.6" d="M271.865 208.25C272.043 208.318 272.19 208.449 272.278 208.618C272.365 208.788 272.388 208.983 272.34 209.168C272.278 209.349 272.149 209.498 271.98 209.587C271.812 209.675 271.615 209.696 271.432 209.644C271.247 209.568 271.097 209.426 271.009 209.247C270.922 209.067 270.903 208.861 270.956 208.669C271.039 208.486 271.19 208.344 271.376 208.27C271.562 208.196 271.77 208.198 271.955 208.274" fill="white"/>
    </g>
    <path d="M278.708 215.974C278.855 215.495 279.129 215.065 279.501 214.729C279.873 214.394 280.329 214.166 280.82 214.07C280.82 214.037 280.644 213.985 280.344 214.023C279.962 214.085 279.605 214.255 279.315 214.513C279.026 214.771 278.815 215.106 278.708 215.479C278.628 215.788 278.661 215.974 278.708 215.974Z" fill="#263238"/>
    <path d="M279.997 217.349C280.069 217.387 280.349 216.873 280.92 216.535C281.289 216.354 281.669 216.196 282.057 216.059C281.839 215.995 281.61 215.984 281.388 216.026C281.165 216.068 280.956 216.163 280.777 216.302C280.135 216.711 279.926 217.349 279.997 217.349Z" fill="#263238"/>
    <path d="M276.521 214.346C277.284 213.313 278.332 212.526 279.536 212.081C278.87 212.132 278.232 212.372 277.698 212.773C277.164 213.175 276.755 213.72 276.521 214.346Z" fill="#263238"/>
    <path d="M275.284 210.734C275.336 210.796 275.926 210.334 276.782 210.063C277.638 209.792 278.385 209.811 278.39 209.73C277.83 209.601 277.245 209.626 276.698 209.803C276.152 209.98 275.663 210.302 275.284 210.734Z" fill="#263238"/>
    <path d="M274.295 207.193C274.751 206.84 275.277 206.588 275.838 206.453C276.398 206.319 276.981 206.305 277.548 206.413C277.548 206.384 277.386 206.265 277.072 206.184C276.648 206.085 276.207 206.086 275.783 206.187C275.359 206.289 274.965 206.488 274.633 206.77C274.376 206.989 274.271 207.17 274.295 207.193Z" fill="#263238"/>
    <path d="M275.631 205.785C275.632 205.62 275.594 205.457 275.522 205.309C275.365 204.901 275.129 204.529 274.828 204.214C274.627 203.963 274.35 203.786 274.038 203.71C273.933 203.694 273.826 203.712 273.732 203.759C273.637 203.807 273.56 203.883 273.51 203.976C273.424 204.164 273.41 204.378 273.472 204.576C273.611 204.974 273.885 205.311 274.246 205.53C274.608 205.748 275.033 205.833 275.451 205.77C275.861 205.701 276.241 205.51 276.544 205.224C276.846 204.938 277.056 204.568 277.148 204.162C277.171 204.059 277.172 203.953 277.149 203.85C277.127 203.748 277.083 203.651 277.02 203.567C276.948 203.488 276.853 203.434 276.749 203.413C276.645 203.392 276.537 203.404 276.44 203.448C276.162 203.595 275.927 203.814 275.76 204.081C275.503 204.433 275.312 204.828 275.194 205.247C275.136 205.398 275.111 205.561 275.122 205.723C275.31 205.182 275.576 204.672 275.912 204.209C276.068 203.983 276.277 203.798 276.521 203.672C276.573 203.646 276.633 203.638 276.69 203.649C276.748 203.661 276.8 203.69 276.839 203.733C276.876 203.791 276.901 203.856 276.911 203.924C276.922 203.992 276.919 204.062 276.901 204.128C276.812 204.477 276.624 204.793 276.36 205.038C276.096 205.282 275.767 205.446 275.413 205.509C275.057 205.559 274.695 205.487 274.386 205.304C274.077 205.12 273.84 204.836 273.715 204.5C273.665 204.364 273.665 204.216 273.715 204.081C273.741 204.028 273.783 203.985 273.835 203.958C273.887 203.931 273.947 203.92 274.005 203.929C274.267 203.994 274.503 204.139 274.68 204.343C275.081 204.763 275.403 205.251 275.631 205.785Z" fill="#263238"/>
    <path d="M234.34 199.564L235.015 209.763C235.015 209.763 224.871 213.133 224.814 215.027L244.632 215.169L244.232 199.236L234.34 199.564Z"/>
    <g opacity="0.6">
    <path opacity="0.6" d="M241.136 208.716C241.328 208.769 241.495 208.891 241.603 209.059C241.711 209.226 241.753 209.428 241.721 209.625C241.675 209.819 241.557 209.988 241.391 210.098C241.225 210.208 241.023 210.25 240.827 210.215C240.625 210.16 240.45 210.033 240.336 209.857C240.222 209.682 240.177 209.47 240.209 209.263C240.277 209.066 240.419 208.903 240.606 208.808C240.792 208.713 241.007 208.694 241.207 208.754" fill="white"/>
    </g>
    <g opacity="0.6">
    <path opacity="0.6" d="M244.632 215.17L244.594 213.566L225.441 214.094C225.239 214.198 225.065 214.351 224.937 214.538C224.808 214.726 224.728 214.943 224.704 215.17H244.632Z" fill="white"/>
    </g>
    <path d="M234.692 209.668C234.692 209.763 235.167 209.792 235.667 210.091C236.166 210.391 236.418 210.786 236.504 210.748C236.589 210.71 236.432 210.153 235.838 209.796C235.243 209.44 234.668 209.582 234.692 209.668Z" fill="#263238"/>
    <path d="M232.642 210.591C232.642 210.686 233.046 210.839 233.389 211.238C233.731 211.638 233.836 212.067 233.935 212.062C234.035 212.057 234.078 211.505 233.645 211.015C233.213 210.525 232.642 210.501 232.642 210.591Z" fill="#263238"/>
    <path d="M231.538 213.118C231.629 213.118 231.748 212.642 231.481 212.128C231.215 211.614 230.758 211.41 230.72 211.491C230.682 211.572 230.973 211.848 231.196 212.281C231.42 212.714 231.439 213.109 231.538 213.118Z" fill="#263238"/>
    <path d="M234.796 207.327C234.839 207.412 235.272 207.265 235.828 207.289C236.385 207.312 236.808 207.469 236.856 207.384C236.903 207.298 236.485 206.965 235.838 206.951C235.191 206.936 234.744 207.255 234.796 207.327Z" fill="#263238"/>
    <g opacity="0.3">
    <path opacity="0.3" d="M234.478 201.582L234.597 203.4L244.327 203.015L244.289 201.378L234.478 201.582Z" fill=""/>
    </g>
    <path d="M234.697 205.271C235.025 205.35 235.368 205.338 235.69 205.237C236.046 205.162 236.391 205.044 236.718 204.885C236.912 204.792 237.099 204.685 237.279 204.566C237.389 204.501 237.489 204.419 237.574 204.324C237.634 204.253 237.67 204.164 237.675 204.071C237.68 203.979 237.655 203.886 237.602 203.81C237.552 203.743 237.486 203.69 237.411 203.653C237.336 203.617 237.253 203.599 237.17 203.6C237.044 203.603 236.919 203.623 236.799 203.662C236.589 203.719 236.385 203.796 236.19 203.89C235.861 204.052 235.559 204.264 235.296 204.519C234.849 204.957 234.701 205.323 234.735 205.342C234.768 205.361 234.996 205.061 235.453 204.695C235.719 204.484 236.012 204.308 236.323 204.171C236.506 204.091 236.695 204.026 236.889 203.976C237.098 203.914 237.274 203.91 237.331 203.976C237.388 204.043 237.331 204.024 237.331 204.086C237.268 204.154 237.196 204.213 237.117 204.262C236.952 204.376 236.781 204.481 236.604 204.576C236.3 204.737 235.981 204.869 235.652 204.971C235.327 205.047 235.007 205.147 234.697 205.271Z" fill="#263238"/>
    <path d="M234.83 205.404C235.006 205.119 235.088 204.786 235.063 204.452C235.073 203.864 234.921 203.285 234.625 202.777C234.567 202.649 234.477 202.537 234.364 202.454C234.251 202.371 234.118 202.318 233.978 202.301C233.891 202.307 233.807 202.338 233.735 202.389C233.664 202.44 233.608 202.51 233.574 202.591C233.527 202.709 233.496 202.832 233.484 202.958C233.45 203.179 233.45 203.403 233.484 203.624C233.556 203.996 233.719 204.345 233.959 204.638C234.364 205.137 234.768 205.242 234.777 205.209C234.787 205.175 234.478 204.976 234.145 204.5C233.965 204.221 233.848 203.905 233.802 203.576C233.775 203.385 233.775 203.192 233.802 203.001C233.826 202.791 233.902 202.615 233.978 202.634C234.054 202.653 234.249 202.782 234.335 202.948C234.438 203.116 234.525 203.293 234.597 203.477C234.717 203.793 234.793 204.124 234.82 204.462C234.868 205.023 234.773 205.39 234.83 205.404Z" fill="#263238"/>
    <path d="M234.292 110.651L264.488 110.427L279.079 206.322L266.547 207.912L250.486 129.064L245.678 208.193L245.669 208.431L232.114 208.193L234.292 110.651Z" fill="#263238"/>
    <path d="M249.473 126.998C249.483 126.607 249.458 126.215 249.397 125.828C249.331 125.109 249.25 124.114 249.217 123.015C249.183 121.916 249.217 120.921 249.217 120.198C249.252 119.807 249.252 119.413 249.217 119.022C249.107 119.4 249.045 119.79 249.031 120.183C248.862 122.071 248.919 123.973 249.202 125.847C249.244 126.24 249.335 126.627 249.473 126.998Z" fill="#455A64"/>
    <path d="M246.986 119.313C246.986 119.313 246.934 119.255 246.81 119.246C246.631 119.235 246.455 119.287 246.311 119.393C246.199 119.471 246.106 119.574 246.041 119.694C245.976 119.814 245.939 119.947 245.935 120.083C245.949 120.254 246.013 120.417 246.119 120.552C246.224 120.686 246.367 120.787 246.529 120.842C246.691 120.898 246.865 120.904 247.031 120.861C247.197 120.819 247.346 120.729 247.462 120.602C247.541 120.491 247.593 120.362 247.614 120.226C247.634 120.091 247.623 119.952 247.58 119.822C247.532 119.649 247.424 119.499 247.276 119.398C247.171 119.332 247.095 119.332 247.095 119.346C247.095 119.36 247.338 119.489 247.414 119.869C247.436 119.971 247.436 120.077 247.414 120.178C247.392 120.28 247.348 120.376 247.286 120.459C247.197 120.544 247.088 120.602 246.969 120.628C246.85 120.654 246.727 120.647 246.611 120.608C246.496 120.569 246.394 120.499 246.316 120.405C246.238 120.312 246.186 120.199 246.168 120.079C246.169 119.974 246.193 119.872 246.237 119.777C246.281 119.683 246.345 119.599 246.425 119.531C246.588 119.408 246.782 119.332 246.986 119.313Z" fill="#455A64"/>
    <path d="M254.719 117.371C254.719 117.371 254.805 117.471 254.995 117.623C255.263 117.832 255.551 118.014 255.856 118.166C256.31 118.396 256.789 118.575 257.283 118.699C258.49 119.008 259.756 119.008 260.964 118.699C261.458 118.575 261.936 118.396 262.391 118.166C262.695 118.016 262.983 117.836 263.251 117.628C263.442 117.48 263.537 117.39 263.527 117.376C263.518 117.361 263.08 117.661 262.314 118.009C261.866 118.211 261.4 118.371 260.921 118.484C259.746 118.759 258.524 118.759 257.349 118.484C256.871 118.371 256.404 118.211 255.956 118.009C255.166 117.656 254.748 117.333 254.719 117.371Z" fill="#455A64"/>
    <path d="M236.028 119.403C236.289 119.519 236.571 119.579 236.856 119.579C238.236 119.68 239.608 119.289 240.727 118.475C241.146 118.161 241.36 117.909 241.336 117.89C239.809 119.023 237.923 119.563 236.028 119.408V119.403Z" fill="#455A64"/>
    <path d="M274.295 207.193C274.259 207.128 274.231 207.06 274.209 206.989C274.166 206.846 274.105 206.636 274.038 206.356C273.905 205.794 273.724 204.961 273.505 203.881C273.073 201.725 272.488 198.598 271.784 194.734C270.357 187.001 268.502 176.302 266.433 164.49L261.111 134.237L259.456 125.076L258.981 122.587L258.852 121.939C258.824 121.792 258.8 121.721 258.8 121.721C258.8 121.721 258.8 121.797 258.828 121.944L258.933 122.596L259.351 125.09L260.93 134.265L266.162 164.533C268.231 176.35 270.133 187.039 271.584 194.767C272.307 198.632 272.92 201.754 273.386 203.905C273.853 206.056 274.204 207.231 274.295 207.193Z" fill="#455A64"/>
    <path d="M235.814 206.113C235.814 206.113 235.814 206.037 235.814 205.894V205.247V202.753C235.814 201.668 235.814 200.345 235.857 198.803C235.9 197.261 235.895 195.51 235.947 193.568C236.023 189.694 236.171 185.083 236.394 179.967C236.618 174.851 236.951 169.225 237.388 163.31C237.826 157.394 238.34 151.803 238.886 146.71C239.433 141.618 239.971 137.035 240.475 133.19C240.713 131.286 240.951 129.53 241.165 128.007C241.379 126.484 241.555 125.152 241.712 124.095L242.059 121.625L242.144 120.983C242.144 120.835 242.144 120.764 242.144 120.764C242.144 120.764 242.144 120.835 242.097 120.983L241.987 121.621L241.593 124.086C241.421 125.157 241.217 126.465 241.003 127.988C240.789 129.511 240.527 131.243 240.275 133.166C239.747 137.007 239.191 141.59 238.634 146.682C238.078 151.774 237.564 157.39 237.117 163.291C236.67 169.192 236.366 174.817 236.142 179.948C235.919 185.078 235.8 189.68 235.748 193.558C235.705 195.495 235.705 197.252 235.695 198.793C235.686 200.335 235.695 201.649 235.695 202.743C235.695 203.838 235.695 204.647 235.695 205.237V205.884C235.805 206.037 235.814 206.113 235.814 206.113Z" fill="#455A64"/>
    <path d="M204.596 73.6921L223.463 79.2031L234.031 72.9592L242.049 82.4773L227.092 88.9592C226.035 89.4186 224.889 89.6372 223.738 89.5994C222.586 89.5615 221.458 89.2681 220.433 88.7403L201.885 79.2221L204.596 73.6921Z" fill="#FFBE9D"/>
    <path d="M200.292 71.8742L197.956 70.6606L191.46 67.2769C191.343 67.2294 191.215 67.2194 191.092 67.2485C190.97 67.2776 190.859 67.3442 190.777 67.4391C190.694 67.534 190.643 67.6524 190.631 67.7778C190.618 67.9031 190.646 68.0292 190.708 68.1383L194.851 71.5458L193.101 72.1978C192.758 72.3291 192.476 72.5837 192.311 72.9117L191.388 74.7439C191.388 74.7439 190.337 74.8581 190.233 75.5387C190.128 76.2192 190.918 76.4572 190.918 76.4572L190.718 77.2567C190.672 77.4416 190.665 77.6341 190.697 77.8218C190.73 78.0096 190.802 78.1883 190.908 78.3465C191.916 78.7606 192.715 76.6523 192.715 76.6523L193.785 76.7665L194.955 79.146C196.444 79.5077 195.74 77.1615 195.74 77.1615L196.397 77.3233C197.053 77.4851 197.395 77.9515 198.418 78.475C199.44 78.9985 201.447 79.1841 201.447 79.1841L202.931 80.2787L207.445 74.1014L200.292 71.8742Z" fill="#FAFAFA"/>
    <path d="M200.292 71.8742L200.42 71.9028L200.786 72.0075L202.213 72.4263L207.478 74.0348L207.587 74.0682L207.521 74.1633L203.041 80.3501L202.979 80.4358L202.893 80.3691L201.409 79.2793H201.466C200.464 79.2029 199.478 78.985 198.537 78.6321C198.063 78.3992 197.611 78.1253 197.186 77.8135C196.98 77.6636 196.755 77.5434 196.515 77.4566C196.273 77.39 196.002 77.3281 195.745 77.2615L195.888 77.1092C196.02 77.5468 196.075 78.0042 196.049 78.4608C196.045 78.5911 196.014 78.7191 195.959 78.837C195.903 78.9549 195.824 79.0601 195.726 79.1461C195.613 79.2162 195.486 79.2617 195.354 79.2797C195.222 79.2978 195.088 79.2879 194.96 79.2508H194.908L194.879 79.1984L193.705 76.8189L193.804 76.8855L192.853 76.7856H192.72L192.849 76.7047C192.7 77.0838 192.508 77.4447 192.278 77.7802C192.171 77.9651 192.027 78.1265 191.857 78.2548C191.686 78.3832 191.491 78.4759 191.284 78.5274H191.113C191.056 78.5176 191.001 78.5049 190.946 78.4893H190.903L190.846 78.4417L190.803 78.3751C190.67 78.1453 190.601 77.884 190.604 77.6184C190.613 77.4165 190.648 77.2166 190.708 77.0235L190.846 76.4667L190.937 76.6143C190.68 76.5474 190.453 76.3946 190.295 76.1812C190.221 76.0675 190.174 75.9384 190.159 75.8039C190.143 75.6693 190.159 75.533 190.204 75.4055C190.307 75.1637 190.497 74.9698 190.737 74.8629C190.954 74.758 191.187 74.6889 191.426 74.6583L191.331 74.7249L191.912 73.5685L192.197 73.0021C192.287 72.7969 192.417 72.611 192.577 72.4548C192.74 72.3008 192.933 72.1824 193.143 72.1074L193.719 71.8885L194.846 71.4602L194.813 71.6506L190.68 68.2336C190.608 68.1039 190.58 67.9551 190.597 67.8081C190.615 67.6612 190.679 67.5236 190.78 67.415C190.875 67.3102 190.999 67.2371 191.137 67.2056C191.275 67.1741 191.419 67.1857 191.55 67.2389L197.99 70.6369L199.74 71.5887L200.216 71.8409C200.269 71.8674 200.32 71.8993 200.368 71.9361C200.312 71.9195 200.258 71.8972 200.206 71.8695L199.73 71.641L197.956 70.7463L191.479 67.415C191.383 67.3765 191.278 67.3682 191.178 67.3912C191.078 67.4142 190.987 67.4673 190.918 67.5435C190.845 67.6229 190.8 67.7232 190.788 67.8301C190.776 67.937 190.798 68.0449 190.851 68.1384V68.1098L195.003 71.5078L195.15 71.6315L194.97 71.7029L193.847 72.136L193.272 72.3549C193.094 72.4209 192.932 72.523 192.796 72.6547C192.655 72.7902 192.542 72.9518 192.463 73.1306L192.178 73.7017L191.598 74.8582L191.569 74.9153H191.503C191.098 74.9724 190.618 75.1437 190.48 75.5054C190.448 75.5972 190.438 75.695 190.449 75.7915C190.461 75.8879 190.494 75.9805 190.547 76.0622C190.673 76.2243 190.848 76.3411 191.046 76.3953L191.165 76.4286L191.136 76.5429L190.998 77.0997C190.944 77.2742 190.912 77.4549 190.903 77.6374C190.902 77.8579 190.959 78.0748 191.07 78.2656L191.103 78.3228L191.046 78.2799H191.075L191.189 78.3085H191.308C191.654 78.2093 191.947 77.9788 192.126 77.666C192.344 77.3481 192.526 77.0064 192.668 76.6476L192.706 76.5571H192.796H192.929L193.881 76.6571H193.947L193.976 76.719L195.146 79.0985L195.065 79.0319C195.158 79.0609 195.255 79.0703 195.352 79.0597C195.448 79.049 195.542 79.0185 195.626 78.97C195.768 78.8341 195.85 78.6476 195.854 78.4512C195.878 78.0271 195.828 77.6021 195.707 77.1949L195.65 76.9902L195.85 77.0426C196.116 77.1092 196.363 77.1663 196.639 77.2425C196.9 77.3356 197.147 77.4654 197.371 77.6279C197.786 77.9323 198.227 78.1999 198.689 78.4275C199.606 78.7718 200.566 78.9865 201.542 79.0652H201.576L203.055 80.1645H202.903L207.369 74.0634L207.411 74.1919L202.18 72.5072L200.777 72.0313L200.415 71.9075L200.292 71.8742Z" fill="#263238"/>
    <path d="M195.911 77.1949C195.911 77.2234 195.393 77.1282 194.513 76.9997C193.633 76.8712 192.387 76.7094 190.918 76.5857C190.782 76.5862 190.649 76.553 190.53 76.4893C190.41 76.4256 190.309 76.3332 190.234 76.2205C190.159 76.1078 190.113 75.9783 190.1 75.8435C190.088 75.7088 190.109 75.573 190.161 75.4483C190.278 75.2061 190.454 74.9978 190.674 74.8436C190.894 74.6894 191.15 74.5945 191.417 74.5679C191.973 74.4774 192.492 74.4489 192.996 74.3585C193.5 74.268 193.98 74.1729 194.423 74.0586C194.865 73.9444 195.303 73.8159 195.702 73.6827C195.876 73.6298 196.038 73.5424 196.178 73.4257C196.236 73.3781 196.277 73.313 196.295 73.2401C196.313 73.1671 196.307 73.0903 196.278 73.0212C196.203 72.8806 196.101 72.7561 195.978 72.6547L195.655 72.3311C195.46 72.1265 195.284 71.9551 195.136 71.8266C194.841 71.5649 194.661 71.4554 194.661 71.4364C194.86 71.5057 195.044 71.6123 195.203 71.7505C195.395 71.8995 195.579 72.0583 195.754 72.2264L196.087 72.5357C196.231 72.6468 196.351 72.7861 196.439 72.945C196.486 73.0478 196.498 73.1626 196.475 73.2729C196.452 73.3832 196.394 73.4833 196.311 73.5589C196.147 73.703 195.954 73.8102 195.745 73.873C195.345 74.0158 194.917 74.1538 194.456 74.2776C193.995 74.4013 193.505 74.506 193.001 74.5964C192.497 74.6868 191.945 74.7249 191.426 74.8106C191.202 74.8309 190.985 74.9078 190.798 75.0343C190.611 75.1608 190.459 75.3327 190.356 75.5339C190.32 75.6206 190.304 75.7148 190.312 75.8086C190.319 75.9024 190.348 75.9932 190.398 76.0733C190.447 76.1534 190.515 76.2205 190.595 76.2691C190.676 76.3177 190.767 76.3463 190.861 76.3525H190.884C192.354 76.4953 193.605 76.6856 194.48 76.857C194.917 76.9426 195.265 77.0188 195.498 77.0806C195.641 77.0967 195.78 77.1353 195.911 77.1949Z" fill="#263238"/>
    <path d="M195.74 73.8587C195.351 74.031 194.92 74.0887 194.499 74.0253C194.277 74.0138 194.056 73.9851 193.838 73.9396L193.952 73.873C193.814 74.1966 193.695 74.4013 193.657 74.387C193.619 74.3727 193.657 74.1395 193.757 73.8016V73.7255H193.847L194.489 73.7683C194.908 73.7524 195.328 73.7827 195.74 73.8587Z" fill="#263238"/>
    <path d="M238.335 66.0443L226.178 75.3768L234.701 86.6082L245.098 80.7022L238.335 66.0443Z"/>
    <path d="M238.335 66.0443C240.094 64.9593 246.182 63.6267 246.182 63.6267L257.948 62.3466L268.155 67.0342L263.965 84.6094L267.636 117.747L232.609 119.65L238.335 66.0443Z"/>
    <path d="M258.334 80.745H252.298V82.3726H258.334V80.745Z" fill="#FAFAFA"/>
    <path d="M258.343 82.387H252.284V80.7356H258.343V82.387ZM252.308 82.387H258.315V80.7641H252.308V82.387Z" fill="#263238"/>
    <path d="M236.871 76.2212C236.939 76.2199 236.973 75.0089 236.946 73.5162C236.919 72.0235 236.841 70.8145 236.773 70.8157C236.705 70.817 236.671 72.028 236.699 73.5207C236.726 75.0134 236.803 76.2224 236.871 76.2212Z" fill="#263238"/>
    <path d="M258.938 46.2181L257.649 64.469C257.542 65.9033 256.899 67.2446 255.847 68.2248C254.795 69.205 253.412 69.7519 251.975 69.7564C251.198 69.7533 250.429 69.5914 249.717 69.2806C249.004 68.9699 248.363 68.5167 247.832 67.949C247.3 67.3813 246.891 66.711 246.627 65.9792C246.364 65.2474 246.253 64.4696 246.301 63.6933C246.415 61.9563 246.52 60.5333 246.52 60.5333C246.52 60.5333 242.106 59.848 242.049 55.4316C242.016 52.8807 242.458 47.089 242.834 42.6535C242.957 41.2072 243.618 39.8597 244.686 38.8779C245.755 37.8961 247.152 37.3515 248.603 37.3519H251.271C252.362 37.4153 253.428 37.6969 254.408 38.1799C255.388 38.663 256.261 39.3378 256.976 40.1644C257.691 40.991 258.233 41.9526 258.57 42.9924C258.907 44.0322 259.032 45.129 258.938 46.2181Z" fill="#FFBE9D"/>
    <path d="M246.515 60.4715C248.553 60.5097 250.557 59.9398 252.27 58.8344C252.27 58.8344 250.91 62.0134 246.506 61.6136L246.515 60.4715Z" fill="#EB996E"/>
    <path d="M243.738 48.236C243.736 48.4006 243.799 48.5593 243.913 48.6784C244.026 48.7975 244.182 48.8675 244.346 48.8737C244.427 48.8802 244.508 48.8704 244.584 48.845C244.661 48.8197 244.732 48.7791 244.793 48.7259C244.853 48.6727 244.903 48.6078 244.938 48.5351C244.973 48.4624 244.994 48.3833 244.998 48.3026C244.999 48.138 244.936 47.9793 244.823 47.8602C244.709 47.7412 244.554 47.6711 244.389 47.6649C244.309 47.6584 244.228 47.6682 244.151 47.6936C244.074 47.719 244.004 47.7595 243.943 47.8127C243.882 47.866 243.833 47.9308 243.797 48.0036C243.762 48.0763 243.742 48.1553 243.738 48.236Z" fill="#263238"/>
    <path d="M243.6 47.0843C243.676 47.1652 244.156 46.813 244.836 46.813C245.516 46.813 246.011 47.1557 246.087 47.07C246.163 46.9843 246.044 46.8844 245.825 46.7273C245.532 46.5237 245.184 46.4157 244.827 46.418C244.473 46.4166 244.128 46.5283 243.842 46.7369C243.633 46.8987 243.562 47.051 243.6 47.0843Z" fill="#263238"/>
    <path d="M250.258 48.2406C250.257 48.4053 250.32 48.564 250.433 48.683C250.547 48.8021 250.702 48.8722 250.867 48.8783C250.947 48.8848 251.028 48.8751 251.105 48.8497C251.182 48.8243 251.252 48.7838 251.313 48.7305C251.374 48.6773 251.423 48.6124 251.459 48.5397C251.494 48.467 251.514 48.388 251.518 48.3073C251.52 48.1426 251.457 47.9839 251.343 47.8648C251.23 47.7458 251.074 47.6757 250.91 47.6695C250.829 47.6631 250.748 47.6728 250.672 47.6982C250.595 47.7236 250.524 47.7641 250.463 47.8173C250.403 47.8706 250.353 47.9355 250.318 48.0082C250.283 48.0809 250.262 48.1599 250.258 48.2406Z" fill="#263238"/>
    <path d="M250.268 47.2127C250.344 47.2936 250.824 46.9414 251.504 46.9414C252.184 46.9414 252.679 47.2841 252.755 47.1984C252.831 47.1128 252.712 47.0128 252.493 46.8558C252.2 46.6521 251.852 46.5441 251.495 46.5464C251.141 46.545 250.796 46.6567 250.51 46.8653C250.301 47.0271 250.23 47.1746 250.268 47.2127Z" fill="#263238"/>
    <path d="M247.866 52.0765C247.508 51.9641 247.137 51.8969 246.762 51.8767C246.591 51.8767 246.425 51.8243 246.396 51.7053C246.381 51.5264 246.421 51.347 246.51 51.1913L247.024 49.8731C247.737 47.9933 248.251 46.4466 248.175 46.4228C248.099 46.399 247.462 47.8933 246.748 49.7541L246.273 51.0819C246.163 51.2911 246.131 51.532 246.182 51.7624C246.207 51.8235 246.246 51.8779 246.296 51.9216C246.345 51.9654 246.404 51.9972 246.468 52.0147C246.564 52.0414 246.663 52.0557 246.762 52.0575C247.128 52.1101 247.499 52.1165 247.866 52.0765Z" fill="#263238"/>
    <path d="M250.092 44.857C250.158 45.0426 250.834 44.9522 251.633 45.0521C252.432 45.1521 253.059 45.3662 253.178 45.1996C253.226 45.1187 253.112 44.9474 252.855 44.7666C252.509 44.5473 252.117 44.4097 251.71 44.3643C251.303 44.319 250.891 44.367 250.505 44.5048C250.211 44.6238 250.063 44.7713 250.092 44.857Z" fill="#263238"/>
    <path d="M243.604 45.7518C243.723 45.9041 244.189 45.7518 244.755 45.7518C245.321 45.7518 245.792 45.8565 245.902 45.6947C245.949 45.6185 245.873 45.4615 245.669 45.3139C245.389 45.1392 245.064 45.0513 244.735 45.0615C244.405 45.0716 244.087 45.1794 243.818 45.3711C243.619 45.5186 243.552 45.6804 243.604 45.7518Z" fill="#263238"/>
    <path d="M257.449 49.5352C257.525 49.5019 260.483 48.6357 260.384 51.6577C260.284 54.6797 257.278 53.9563 257.273 53.8707C257.268 53.785 257.449 49.5352 257.449 49.5352Z" fill="#FFBE9D"/>
    <path d="M258.258 52.7571C258.258 52.7571 258.31 52.7952 258.396 52.838C258.522 52.8891 258.664 52.8891 258.79 52.838C258.988 52.7202 259.152 52.5521 259.264 52.3506C259.376 52.1491 259.432 51.9215 259.428 51.6911C259.443 51.4328 259.401 51.1742 259.304 50.9344C259.279 50.839 259.232 50.751 259.165 50.6781C259.099 50.6051 259.016 50.5494 258.924 50.5156C258.864 50.4975 258.8 50.501 258.742 50.5253C258.685 50.5497 258.638 50.5934 258.61 50.6488C258.567 50.7297 258.586 50.7916 258.567 50.7964C258.548 50.8011 258.505 50.744 258.534 50.6203C258.553 50.5462 258.596 50.4807 258.657 50.4347C258.743 50.3747 258.849 50.3507 258.952 50.368C259.074 50.3957 259.187 50.4539 259.28 50.5371C259.373 50.6204 259.443 50.726 259.485 50.8439C259.605 51.1093 259.659 51.4001 259.642 51.6911C259.648 51.9605 259.575 52.2257 259.431 52.4535C259.287 52.6813 259.079 52.8615 258.833 52.9712C258.752 52.992 258.667 52.9942 258.585 52.9777C258.502 52.9612 258.425 52.9265 258.358 52.8761C258.258 52.8285 258.224 52.7618 258.258 52.7571Z" fill="#EB996E"/>
    <path d="M259.128 49.4304C258.841 49.4115 258.555 49.4711 258.299 49.6027C258.044 49.7344 257.829 49.9331 257.677 50.1776C257.482 50.6107 257.44 51.0961 257.245 51.5292C257.167 51.7536 257.017 51.9457 256.818 52.075C256.619 52.2044 256.382 52.2635 256.146 52.243C255.991 52.1916 255.852 52.1011 255.742 51.9803C255.632 51.8594 255.555 51.7122 255.518 51.553C255.459 51.2385 255.459 50.9156 255.518 50.6012C255.694 49.1734 255.994 47.7933 256.051 46.3704C256.166 44.9435 255.856 43.5146 255.161 42.2633C254.806 41.6459 254.29 41.1358 253.669 40.7866C253.048 40.4374 252.345 40.262 251.633 40.2788C250.681 40.3549 249.835 40.8451 248.903 40.9736C248.348 41.0468 247.784 40.9927 247.253 40.8155C246.723 40.6382 246.239 40.3423 245.84 39.9504C245.74 39.8504 245.269 39.5363 245.269 39.5363C245.279 39.1946 245.39 38.8635 245.588 38.5845C247.438 36.876 250.767 36.3954 253.197 37.0093C254.439 37.3146 255.6 37.887 256.599 38.6867C257.598 39.4864 258.41 40.4941 258.981 41.6399C260.032 43.929 259.718 47.1128 259.142 49.4304" fill="#263238"/>
    <path d="M242.786 41.973C242.786 41.973 254.367 38.2467 259.375 48.2693C259.375 48.2693 260.122 45.7612 260.122 44.4144C260.122 43.515 259.585 38.1658 254.082 36.4858C254.091 36.5049 245.802 33.321 242.786 41.973Z"/>
    <path d="M252.741 42.2157C252.535 42.5477 252.255 42.8274 251.923 43.0327C251.591 43.2381 251.216 43.3635 250.827 43.399C250.439 43.4345 250.047 43.3792 249.683 43.2375C249.32 43.0957 248.994 42.8714 248.731 42.5822C248.616 42.8702 248.414 43.1149 248.153 43.2821C247.892 43.4492 247.585 43.5303 247.276 43.5141C246.966 43.4978 246.669 43.3849 246.427 43.1913C246.185 42.9977 246.01 42.7331 245.925 42.4346C245.611 42.7847 245.227 43.0652 244.798 43.258C244.582 43.3507 244.342 43.3749 244.112 43.3272C243.881 43.2796 243.671 43.1624 243.509 42.9914C243.38 42.7904 243.318 42.5531 243.332 42.3143C243.347 42.0755 243.437 41.8475 243.59 41.6637C243.906 41.3021 244.311 41.0297 244.765 40.8737C246.138 40.2706 247.646 40.0423 249.136 40.2121C250.634 40.3914 252.006 41.1392 252.969 42.3014" fill="#263238"/>
    <g opacity="0.4">
    <path opacity="0.4" d="M242.786 41.973C243.749 40.9572 245.07 40.3564 246.468 40.2978C249.882 40.1455 256.279 42.0682 259.375 48.2693C259.375 48.2693 260.122 45.7612 260.122 44.4144C260.122 43.515 259.585 38.1658 254.082 36.4858C254.091 36.5049 245.802 33.321 242.786 41.973Z" fill=""/>
    </g>
    <path d="M258.895 47.0986C257.139 44.4801 254.836 42.2735 252.146 40.631C249.483 38.9653 245.084 37.2996 242.049 36.5144C241.152 36.2174 240.202 36.1168 239.262 36.2193C238.791 36.2797 238.346 36.4727 237.98 36.776C237.613 37.0793 237.341 37.4804 237.193 37.9326C236.903 39.0748 238.934 40.8452 239.89 41.5352C240.826 42.158 241.794 42.7299 242.791 43.2485C242.791 43.2485 242.767 41.1259 246.158 40.6881C250.776 40.0789 258.895 47.0986 258.895 47.0986Z"/>
    <path d="M249.397 38.437C248.356 37.8806 247.232 37.4965 246.068 37.2996C246.347 37.0805 246.652 36.8966 246.976 36.7523C247.886 36.9028 248.766 37.1984 249.583 37.628L249.397 38.437Z" fill="#E0E0E0"/>
    <path d="M258.234 49.6398C258.038 49.813 257.83 49.972 257.611 50.1157L256.089 51.2293C255.393 51.7878 254.651 52.2876 253.873 52.7237C254.505 52.09 255.199 51.5223 255.946 51.0295C257.126 50.1443 258.182 49.5399 258.234 49.6398Z" fill="#EBEBEB"/>
    <path d="M258.543 54.0468C257.56 55.5645 256.152 56.7594 254.496 57.4829C254.458 57.4162 255.499 56.8261 256.612 55.8743C257.725 54.9225 258.486 53.9992 258.543 54.0468Z" fill="#EBEBEB"/>
    <path d="M241.945 52.5858C242.438 52.7346 242.942 52.8429 243.452 52.9094C245.635 52.7904 246.406 52.0527 249.978 52.8142C250.555 52.9356 251.149 52.9533 251.732 52.8665C252.441 52.7648 253.157 52.7139 253.873 52.7142L254.562 57.4733C254.562 57.4733 250.325 61.1806 246.51 60.7666C241.569 60.2431 240.989 54.4846 241.945 52.5858Z" fill="#FAFAFA"/>
    <path d="M241.945 52.5857C241.945 52.5857 241.902 52.7095 241.816 52.9331C241.714 53.2714 241.645 53.6189 241.612 53.9706C241.506 55.2781 241.744 56.5906 242.301 57.7779C242.685 58.5902 243.265 59.2937 243.99 59.8243C244.841 60.4087 245.84 60.7388 246.872 60.7761C248.016 60.796 249.151 60.5704 250.201 60.1146C251.332 59.6442 252.405 59.0471 253.402 58.3347C253.792 58.0587 254.168 57.7731 254.524 57.4733V57.5161L253.839 52.7571L253.887 52.7951C253.042 52.803 252.198 52.8666 251.361 52.9855C250.963 53.013 250.562 52.9922 250.168 52.9236C249.787 52.8522 249.421 52.7666 249.064 52.7142C248.392 52.5961 247.711 52.5388 247.029 52.5429C246.444 52.5598 245.862 52.6235 245.288 52.7333C244.765 52.8237 244.289 52.8998 243.861 52.9331C243.668 52.9516 243.474 52.9516 243.281 52.9331C243.105 52.9093 242.948 52.8713 242.805 52.838C242.244 52.6999 241.945 52.6 241.945 52.6C243.024 52.9497 244.183 52.9696 245.274 52.6571C245.849 52.5436 246.433 52.4767 247.019 52.4572C247.706 52.449 248.392 52.5032 249.069 52.619C249.431 52.6714 249.802 52.757 250.177 52.8237C250.564 52.8895 250.956 52.9086 251.347 52.8808C252.185 52.7598 253.031 52.6946 253.877 52.6857H253.915L254.605 57.4447V57.4733C254.244 57.7779 253.868 58.0634 253.473 58.3442C252.469 59.0597 251.388 59.6584 250.249 60.1288C249.189 60.5866 248.044 60.8121 246.891 60.7904C245.845 60.757 244.831 60.4269 243.966 59.8385C243.229 59.3017 242.639 58.5882 242.249 57.7636C241.698 56.5747 241.468 55.2619 241.583 53.9563C241.621 53.602 241.696 53.2526 241.807 52.9141C241.892 52.6857 241.945 52.5857 241.945 52.5857Z" fill="#263238"/>
    <path d="M242.344 55.3698C243.999 56.1767 245.822 56.5796 247.663 56.5457C249.504 56.5118 251.311 56.042 252.936 55.1747C252.328 55.9974 251.564 56.6914 250.686 57.2163C249.645 57.7493 248.422 57.7731 247.252 57.7731C246.318 57.8386 245.381 57.6888 244.513 57.3353C243.688 56.842 242.987 56.1664 242.463 55.3603" fill="#E0E0E0"/>
    <path d="M252.432 54.1658C251.992 54.3374 251.534 54.4588 251.067 54.5275C248.826 54.9618 246.531 55.0436 244.266 54.7702C243.794 54.7357 243.328 54.6478 242.877 54.5084C243.354 54.5076 243.83 54.5378 244.304 54.5988C246.558 54.775 248.825 54.6951 251.062 54.3609C251.514 54.2671 251.971 54.202 252.432 54.1658Z" fill="#E0E0E0"/>
    <path d="M253.25 56.1502C252.99 56.5205 252.668 56.8426 252.298 57.102C251.452 57.7785 250.478 58.2765 249.434 58.5661C248.39 58.8556 247.299 58.9307 246.225 58.7867C245.779 58.7508 245.343 58.6381 244.936 58.4536C244.936 58.4155 245.435 58.544 246.244 58.6106C248.365 58.805 250.485 58.2215 252.208 56.9688C252.869 56.4929 253.221 56.1217 253.25 56.1502Z" fill="#E0E0E0"/>
    <path d="M253.326 55.0652C253.211 55.1639 253.083 55.2456 252.945 55.3079C252.586 55.5081 252.212 55.6815 251.828 55.8267C251.258 56.0472 250.671 56.2207 250.073 56.3454C248.602 56.6536 247.086 56.6778 245.607 56.4168C245.005 56.3068 244.413 56.1476 243.837 55.9409C243.449 55.8102 243.071 55.6512 242.706 55.465C242.565 55.4064 242.434 55.3278 242.316 55.2318C242.316 55.189 242.91 55.4745 243.895 55.7791C244.469 55.9545 245.056 56.0897 245.65 56.1836C247.104 56.4138 248.588 56.3896 250.035 56.1122C250.625 55.9943 251.207 55.8352 251.775 55.6363C252.736 55.3175 253.302 55.0129 253.326 55.0652Z" fill="#263238"/>
    <path d="M249.778 55.0653C247.908 55.4277 245.98 55.3495 244.147 54.8368C244.147 54.7654 245.407 54.9701 246.957 55.0319C248.508 55.0938 249.773 54.9844 249.778 55.0653Z" fill="#263238"/>
    <path d="M197.262 114.392V75.8004H250.91V114.392L222.478 114.63L197.262 114.392Z"/>
    <g opacity="0.4">
    <path opacity="0.4" d="M250.91 75.8004H197.262V114.392H250.91V75.8004Z" fill=""/>
    </g>
    <path d="M222.478 114.63L197.262 114.392V75.8004H222.393L222.478 114.63Z"/>
    <path d="M210.855 75.8004H207.511V82.4964H210.855V75.8004Z" fill="#263238"/>
    <path d="M205.709 105.873H199.05V112.536H205.709V105.873Z" fill="#FAFAFA"/>
    <path d="M205.723 112.55H199.041V105.863H205.723V112.55ZM199.065 112.526H205.723V105.863H199.065V112.526Z" fill="#263238"/>
    <path d="M263.461 84.6618L264.569 93.6422L247.923 103.527L250.51 109.238L269.429 101.59C271.722 100.429 273.686 98.7058 273.524 96.1217L272.611 83.5577L263.461 84.6618Z" fill="#FFBE9D"/>
    <path d="M268.15 67.0343C269.769 68.4227 270.846 70.3394 271.189 72.4454C271.826 75.9242 273.99 85.6517 273.99 85.6517L262.576 87.0033C262.576 87.0033 262.576 84.3335 262.576 84.3287C262.576 84.324 261.525 79.3365 261.525 79.3365L263.651 72.4692L268.15 67.0343Z"/>
    <path d="M273.534 85.6944C273.278 85.7633 273.017 85.811 272.754 85.8372L270.618 86.1322C268.811 86.3702 266.338 86.6843 263.561 87.0127L262.609 87.1269H262.481V86.9984C262.291 84.4523 262.081 82.187 261.924 80.5641L261.739 78.6605C261.704 78.4274 261.69 78.1918 261.696 77.9562C261.76 78.1819 261.805 78.4128 261.829 78.6462C261.896 79.0936 261.986 79.7456 262.086 80.5499C262.286 82.1727 262.524 84.4333 262.723 86.9841L262.586 86.8699L263.537 86.7557C266.295 86.4273 268.792 86.1418 270.604 85.9466L272.749 85.7277C273.009 85.6954 273.272 85.6842 273.534 85.6944Z" fill="#263238"/>
    <path d="M267.213 67.6625C267.213 67.7005 266.799 67.8814 266.167 68.2716C264.51 69.2917 263.223 70.8162 262.495 72.6214C262.219 73.3115 262.115 73.7636 262.072 73.7541C262.091 73.344 262.18 72.9401 262.334 72.5596C262.99 70.6661 264.326 69.0838 266.081 68.1193C266.43 67.9044 266.813 67.7499 267.213 67.6625Z" fill="#263238"/>
    <path d="M247.666 103.027L245.221 104.15L244.175 103.746L238.839 103.412L235.51 104.15L235.415 104.34C235.415 106.154 238.848 105.44 239.895 105.725C240.941 106.011 239.99 108.252 239.99 108.252C239.99 108.252 235.272 114.406 234.449 115.867C234.04 116.605 234.173 117.014 234.411 117.233C234.534 117.34 234.69 117.401 234.852 117.407C235.015 117.413 235.175 117.363 235.305 117.266L237.046 116.034C237.046 116.034 241.84 116.314 242.168 116.148C242.622 115.806 243.015 115.389 243.329 114.915C245.611 112.725 248.169 110.842 250.938 109.314L247.666 103.027Z" fill="#FAFAFA"/>
    <path d="M247.666 103.027C247.69 103.058 247.711 103.091 247.728 103.127L247.899 103.436L248.551 104.664L250.976 109.29L251.014 109.361L250.943 109.399C248.196 110.944 245.659 112.836 243.395 115.029C243.092 115.496 242.715 115.909 242.278 116.252C242.206 116.299 242.124 116.328 242.04 116.338H241.821H241.398C241.117 116.338 240.832 116.338 240.546 116.338C239.4 116.31 238.221 116.252 237.013 116.186H237.089L235.971 116.933L235.4 117.337C235.293 117.422 235.168 117.481 235.034 117.509C234.9 117.537 234.762 117.534 234.63 117.499C234.494 117.46 234.371 117.385 234.275 117.282C234.178 117.179 234.11 117.052 234.078 116.914C234.031 116.652 234.064 116.381 234.173 116.138C234.385 115.693 234.638 115.27 234.93 114.872C236.585 112.493 238.292 110.261 239.885 108.162V108.186C240.017 107.864 240.12 107.531 240.194 107.191C240.279 106.871 240.29 106.536 240.228 106.211C240.196 106.07 240.111 105.947 239.99 105.868C239.849 105.805 239.697 105.769 239.543 105.763C239.215 105.73 238.882 105.735 238.549 105.735C237.894 105.754 237.239 105.708 236.594 105.597C236.269 105.539 235.962 105.403 235.7 105.202C235.576 105.091 235.477 104.955 235.409 104.803C235.341 104.652 235.306 104.488 235.305 104.321L235.4 104.131V104.088H235.448L238.777 103.36H238.801L244.132 103.722L245.179 104.136H245.141L246.986 103.322L247.462 103.122L247.619 103.06L247.457 103.146L246.981 103.374L245.188 104.226L244.137 103.831L238.801 103.527H238.825L235.495 104.279L235.567 104.226L235.472 104.417V104.369C235.472 104.506 235.501 104.64 235.557 104.765C235.612 104.89 235.694 105.001 235.795 105.092C236.032 105.269 236.308 105.386 236.599 105.435C237.227 105.539 237.865 105.58 238.501 105.559C238.834 105.559 239.167 105.559 239.514 105.587C239.701 105.595 239.883 105.64 240.052 105.721C240.223 105.829 240.346 106 240.394 106.197C240.468 106.557 240.458 106.93 240.366 107.286C240.288 107.641 240.18 107.988 240.042 108.324C238.454 110.423 236.751 112.65 235.101 115.029C234.82 115.412 234.575 115.82 234.368 116.248C234.278 116.444 234.248 116.663 234.283 116.876C234.304 116.971 234.351 117.059 234.418 117.13C234.485 117.201 234.569 117.253 234.663 117.28C234.76 117.305 234.861 117.307 234.959 117.285C235.056 117.264 235.147 117.22 235.224 117.157L235.795 116.752L236.927 115.953L236.96 115.929H237.003C238.206 115.995 239.381 116.057 240.527 116.086C240.813 116.086 241.093 116.086 241.374 116.086H241.788H241.987C242.04 116.081 242.091 116.063 242.135 116.033C242.546 115.707 242.903 115.316 243.191 114.877C245.472 112.688 248.03 110.808 250.8 109.285L250.767 109.395L248.441 104.774L247.814 103.512L247.652 103.179C247.652 103.128 247.657 103.077 247.666 103.027Z" fill="#263238"/>
    <path d="M241.55 111.893C240.86 112.65 240.125 113.363 239.348 114.03C238.725 114.606 238.159 115.12 237.74 115.486C237.528 115.7 237.292 115.888 237.036 116.048C236.979 115.991 237.935 115.001 239.181 113.849C239.904 113.12 240.697 112.465 241.55 111.893Z" fill="#263238"/>
    <path d="M243 113.083C242.63 113.71 242.163 114.276 241.616 114.758C241.134 115.303 240.582 115.783 239.976 116.186C240.411 115.607 240.902 115.071 241.44 114.587C241.925 114.05 242.446 113.547 243 113.083Z" fill="#263238"/>
    <path d="M46.4212 204.428C46.8207 202.882 45.8076 201.325 44.671 200.202C43.5343 199.079 42.1741 198.075 41.5843 196.59C40.6331 194.187 41.9125 191.07 40.2812 189.061C39.33 187.881 37.594 187.486 36.7427 186.206C36.3481 185.508 36.0868 184.743 35.9723 183.95C35.0585 179.951 33.0873 176.27 30.2651 173.295C30.0737 176.856 30.8441 180.404 32.4956 183.565C33.1567 184.826 33.97 186.058 34.1888 187.462C34.5455 189.747 33.2709 192.102 33.8321 194.349C34.4741 196.919 37.3562 198.632 37.4942 201.278C37.6083 203.515 35.6631 205.475 35.8106 207.707C35.9269 208.657 36.2677 209.566 36.8046 210.358C38.531 213.214 41.0849 215.208 44.8897 215.146L49.5982 215.312L46.4212 204.428Z"/>
    <g opacity="0.3">
    <path opacity="0.3" d="M46.4212 204.428C46.8207 202.882 45.8076 201.325 44.671 200.202C43.5343 199.079 42.1741 198.075 41.5843 196.59C40.6331 194.187 41.9125 191.07 40.2812 189.061C39.33 187.881 37.594 187.486 36.7427 186.206C36.3481 185.508 36.0868 184.743 35.9723 183.95C35.0585 179.951 33.0873 176.27 30.2651 173.295C30.0737 176.856 30.8441 180.404 32.4956 183.565C33.1567 184.826 33.97 186.058 34.1888 187.462C34.5455 189.747 33.2709 192.102 33.8321 194.349C34.4741 196.919 37.3562 198.632 37.4942 201.278C37.6083 203.515 35.6631 205.475 35.8106 207.707C35.9269 208.657 36.2677 209.566 36.8046 210.358C38.531 213.214 41.0849 215.208 44.8897 215.146L49.5982 215.312L46.4212 204.428Z" fill=""/>
    </g>
    <path d="M50.5874 215.445C51.0186 215.511 51.458 215.502 51.8858 215.417C52.4079 215.34 52.921 215.211 53.4172 215.031C54.105 214.795 54.7481 214.444 55.3196 213.994C55.6602 213.718 55.9267 213.361 56.0949 212.956C56.2398 212.494 56.3151 212.013 56.3184 211.529C56.3264 211.019 56.3629 210.511 56.4278 210.006C56.5197 209.469 56.7152 208.955 57.0033 208.492C57.5597 207.517 58.4824 206.589 58.7772 205.266C59.0721 203.943 58.8676 202.553 58.6488 201.135C58.4301 199.717 58.216 198.18 58.7582 196.709C59.3004 195.238 60.2944 193.906 60.8128 192.245C61.3312 190.584 61.0886 188.761 61.198 186.982C61.2311 186.077 61.4395 185.189 61.8116 184.364C62.192 183.531 62.72 182.741 63.1337 181.866C63.9708 180.09 64.1182 178.058 64.3465 176.107L64.6842 173.095C64.7538 172.075 64.9291 171.065 65.2073 170.082C65.5255 169.088 65.9019 168.114 66.3345 167.165C66.559 166.673 66.7419 166.164 66.8814 165.642C66.961 165.104 67.0118 164.562 67.0336 164.019C67.0854 162.931 67.044 161.84 66.91 160.759C66.7816 159.669 66.5866 158.594 66.4677 157.504V157.318L66.4439 157.099L66.2489 157.195C65.2504 157.704 64.3829 158.436 63.714 159.336C63.0618 160.209 62.5366 161.171 62.154 162.192C61.3693 164.214 61.0839 166.337 60.6891 168.378C60.2944 170.42 59.7903 172.395 58.7535 174.089C58.2398 174.927 57.612 175.693 57.0651 176.512C56.481 177.308 56.0814 178.225 55.8951 179.196C55.6145 181.19 56.7131 182.941 56.4849 184.707C56.3761 185.574 56.0826 186.408 55.624 187.153C55.196 187.905 54.6728 188.581 54.1972 189.304C53.7102 189.989 53.2868 190.717 52.9321 191.479C52.5983 192.231 52.4018 193.037 52.3519 193.858C52.2378 195.448 52.4613 196.956 52.3519 198.379C52.2222 199.734 51.8279 201.05 51.1914 202.253C50.6207 203.415 49.9882 204.462 49.4555 205.475C49.1926 205.964 48.9545 206.466 48.7421 206.979C48.5525 207.46 48.4138 207.959 48.3283 208.469C48.1886 209.359 48.1774 210.264 48.295 211.158C48.4182 212.404 48.8841 213.591 49.641 214.589C49.7557 214.738 49.8829 214.876 50.0215 215.003C50.1149 215.101 50.2185 215.189 50.3306 215.265C50.5066 215.393 50.6017 215.455 50.6017 215.455C50.2656 215.187 49.9595 214.884 49.6885 214.551C48.9614 213.552 48.5192 212.374 48.4092 211.143C48.3039 210.261 48.3247 209.369 48.471 208.492C48.5594 207.994 48.6997 207.506 48.8895 207.036C49.0893 206.56 49.3366 206.056 49.6077 205.556C50.1404 204.547 50.7824 203.505 51.3627 202.339C52.018 201.117 52.4268 199.778 52.5659 198.398C52.6896 196.947 52.4708 195.434 52.5897 193.882C52.6414 193.093 52.833 192.32 53.1557 191.598C53.5071 190.851 53.9258 190.137 54.4065 189.466C54.8821 188.771 55.391 188.067 55.8333 187.3C56.3114 186.526 56.6179 185.658 56.7322 184.754C56.9604 182.851 55.8713 181.114 56.1519 179.258C56.3329 178.328 56.7179 177.45 57.2791 176.688C57.8165 175.883 58.4443 175.117 58.977 174.256C60.0471 172.523 60.5655 170.496 60.9555 168.464C61.3455 166.432 61.6403 164.328 62.4108 162.344C62.7814 161.344 63.2923 160.402 63.928 159.546C64.5695 158.684 65.4012 157.982 66.3583 157.494L66.1395 157.375V157.566C66.2584 158.67 66.4534 159.75 66.5818 160.826C66.7135 161.894 66.7533 162.972 66.7007 164.048C66.68 164.573 66.6324 165.097 66.558 165.618C66.4228 166.122 66.2462 166.614 66.0301 167.089C65.5935 168.049 65.214 169.034 64.8934 170.039C64.6118 171.04 64.4349 172.067 64.3655 173.104L64.0326 176.117C63.8091 178.096 63.6616 180.076 62.8531 181.789C62.4536 182.641 61.9257 183.431 61.5357 184.293C61.1517 185.147 60.9369 186.069 60.9032 187.005C60.7985 188.823 61.0363 190.603 60.5465 192.212C60.0566 193.82 59.0293 195.153 58.5109 196.671C57.9925 198.189 58.1875 199.798 58.411 201.206C58.6346 202.615 58.8866 204.005 58.5632 205.261C58.2398 206.517 57.398 207.441 56.8273 208.445C56.532 208.927 56.3333 209.462 56.2423 210.02C56.1799 210.532 56.1466 211.047 56.1424 211.562C56.143 212.026 56.0757 212.488 55.9427 212.933C55.784 213.318 55.5324 213.658 55.2102 213.923C54.6627 214.369 54.0458 214.723 53.3839 214.97C52.8957 215.154 52.3908 215.291 51.8763 215.379C51.5621 215.434 51.2441 215.464 50.9251 215.469C50.7016 215.445 50.5874 215.445 50.5874 215.445Z" fill="#263238"/>
    <path d="M65.4689 159.945C65.4466 159.991 65.4306 160.039 65.4213 160.088L65.3167 160.512C65.2263 160.883 65.1122 161.463 64.9362 162.144C64.7602 162.825 64.3227 163.634 63.9565 164.604C63.5903 165.575 63.1908 166.689 62.8388 167.936C62.4869 169.183 62.1635 170.587 61.8305 172.081C61.544 173.678 61.0366 175.226 60.3229 176.683C59.9377 177.449 59.5001 178.225 59.1577 179.062C58.8185 179.931 58.59 180.84 58.4776 181.766C58.2411 183.686 57.903 185.592 57.4646 187.476L54.8107 198.375L52.5802 207.255L51.101 213.247L50.7158 214.879L50.6207 215.307C50.6141 215.356 50.6141 215.406 50.6207 215.455C50.6443 215.411 50.6619 215.365 50.673 215.317L50.7967 214.898L51.239 213.28L52.8132 207.312L55.1056 198.446L57.7927 187.553C58.2326 185.669 58.5707 183.762 58.8057 181.842C58.9119 180.939 59.1308 180.053 59.4573 179.205C59.7902 178.377 60.2183 177.606 60.6035 176.826C61.3206 175.346 61.8265 173.773 62.1064 172.152C62.4298 170.653 62.7342 169.264 63.0576 168.007C63.381 166.751 63.7662 165.628 64.1277 164.676C64.4891 163.724 64.8886 162.905 65.0789 162.187C65.2691 161.468 65.331 160.916 65.4071 160.535L65.4831 160.107C65.4863 160.053 65.4815 159.998 65.4689 159.945Z" fill="#263238"/>
    <path d="M51.4197 215.469C54.4968 213.642 55.3767 208.088 54.0973 204.742C52.818 201.397 50.5684 198.346 50.2212 194.782C49.9549 192.04 50.8538 189.233 50.2212 186.553C49.3604 182.941 45.8362 180.143 45.8742 176.426C45.8742 174.342 47.0823 172.381 46.9871 170.301C46.873 167.746 44.9135 165.723 43.7007 163.472C41.8459 160.026 41.7223 155.957 41.085 152.098C40.4477 148.238 38.9781 144.102 35.5585 142.204C35.0544 145.483 34.1935 147.729 34.4599 152.169C34.555 153.763 36.4098 156.819 36.6619 160.312C36.8141 162.401 36.9187 164.495 37.0424 166.584C37.166 168.674 37.2992 170.691 38.0269 172.595C38.5833 174.051 39.4822 175.379 39.896 176.878C40.6759 179.734 39.6486 182.779 40.2812 185.649C40.8139 188.081 42.4975 190.175 42.8399 192.64C43.3155 196.105 41.0802 199.703 42.2312 203.01C42.8019 204.652 44.1335 205.966 44.533 207.66C44.8279 208.973 44.5045 210.363 44.7756 211.686C45.2084 213.813 49.2605 215.465 51.434 215.331"/>
    <path d="M36.4003 145.459C36.3935 145.521 36.3935 145.583 36.4003 145.644L36.4716 146.182C36.543 146.658 36.6238 147.353 36.7808 148.248C36.9377 149.142 37.4181 150.151 37.789 151.398C38.16 152.645 38.5738 154.035 38.9162 155.615C39.2586 157.195 39.563 158.946 39.8674 160.821C40.1718 162.696 40.5095 164.752 41.4464 166.708C41.8792 167.693 42.3643 168.678 42.7258 169.725C43.08 170.804 43.2973 171.923 43.3726 173.057C43.5448 175.462 43.8464 177.856 44.2762 180.229L46.9301 193.92L49.2177 205.076L50.7872 212.59L51.2295 214.632L51.3531 215.16C51.3641 215.221 51.3817 215.28 51.4054 215.336C51.4123 215.275 51.4123 215.212 51.4054 215.151L51.3103 214.618L50.9251 212.566L49.4507 205.033L47.2011 193.863L44.5711 180.171C44.1441 177.81 43.8424 175.427 43.6674 173.033C43.587 171.878 43.3617 170.738 42.9969 169.64C42.6211 168.569 42.1313 167.579 41.6985 166.603C40.7711 164.676 40.4476 162.658 40.1147 160.783C39.7818 158.908 39.4869 157.152 39.1255 155.548C38.764 153.944 38.3598 152.55 37.9507 151.327C37.5417 150.104 37.0804 149.085 36.8949 148.205C36.7094 147.324 36.6191 146.62 36.5287 146.154L36.4288 145.621C36.4246 145.566 36.415 145.512 36.4003 145.459Z" fill="#263238"/>
    <path d="M197.793 57.5922H182.507V79.0317H197.793V57.5922Z" fill="#455A64"/>
    <path d="M197.793 57.5922H182.507V60.0764H197.793V57.5922Z" fill="#263238"/>
    <path d="M197.793 76.5475H182.507V79.0317H197.793V76.5475Z" fill="#263238"/>
    <path d="M194.778 61.604H185.489V66.4487H194.778V61.604Z" fill="#263238"/>
    <path d="M192.333 64.0264C192.31 64.0264 192.333 63.8313 192.219 63.5077C192.085 63.0497 191.804 62.6484 191.42 62.3655C191.112 62.1362 190.746 61.9972 190.363 61.964C189.98 61.9308 189.595 62.0047 189.252 62.1774C188.909 62.3502 188.62 62.615 188.418 62.9423C188.217 63.2697 188.11 63.6466 188.11 64.0312C188.11 64.4157 188.217 64.7927 188.418 65.12C188.62 65.4473 188.909 65.7122 189.252 65.8849C189.595 66.0577 189.98 66.1316 190.363 66.0984C190.746 66.0651 191.112 65.9261 191.42 65.6968C191.804 65.4139 192.085 65.0127 192.219 64.5547C192.314 64.2263 192.31 64.0312 192.333 64.0359C192.357 64.0407 192.333 64.0835 192.333 64.1787C192.338 64.3146 192.325 64.4505 192.295 64.5832C192.19 65.0829 191.912 65.5295 191.51 65.8444C191.21 66.0804 190.855 66.2366 190.479 66.2981C190.102 66.3597 189.716 66.3248 189.356 66.1965C188.912 66.0378 188.527 65.7454 188.255 65.3595C187.983 64.9735 187.838 64.5129 187.838 64.0407C187.838 63.5685 187.983 63.1079 188.255 62.7219C188.527 62.336 188.912 62.0436 189.356 61.8848C189.716 61.7566 190.102 61.7216 190.479 61.7832C190.855 61.8448 191.21 62.0009 191.51 62.237C191.912 62.5519 192.19 62.9985 192.295 63.4982C192.325 63.6309 192.338 63.7668 192.333 63.9027C192.348 63.9788 192.343 64.0264 192.333 64.0264Z" fill="#455A64"/>
    <path d="M186.198 68.6713C186.398 68.6713 186.56 68.5093 186.56 68.3096C186.56 68.1098 186.398 67.9479 186.198 67.9479C185.998 67.9479 185.837 68.1098 185.837 68.3096C185.837 68.5093 185.998 68.6713 186.198 68.6713Z" fill="#263238"/>
    <path d="M188.928 68.6713C189.128 68.6713 189.289 68.5093 189.289 68.3096C189.289 68.1098 189.128 67.9479 188.928 67.9479C188.728 67.9479 188.567 68.1098 188.567 68.3096C188.567 68.5093 188.728 68.6713 188.928 68.6713Z" fill="#263238"/>
    <path d="M191.653 68.6713C191.853 68.6713 192.015 68.5093 192.015 68.3096C192.015 68.1098 191.853 67.9479 191.653 67.9479C191.454 67.9479 191.292 68.1098 191.292 68.3096C191.292 68.5093 191.454 68.6713 191.653 68.6713Z" fill="#263238"/>
    <path d="M186.198 70.9842C186.398 70.9842 186.56 70.8223 186.56 70.6225C186.56 70.4228 186.398 70.2609 186.198 70.2609C185.998 70.2609 185.837 70.4228 185.837 70.6225C185.837 70.8223 185.998 70.9842 186.198 70.9842Z" fill="#263238"/>
    <path d="M188.928 70.9842C189.128 70.9842 189.289 70.8223 189.289 70.6225C189.289 70.4228 189.128 70.2609 188.928 70.2609C188.728 70.2609 188.567 70.4228 188.567 70.6225C188.567 70.8223 188.728 70.9842 188.928 70.9842Z" fill="#263238"/>
    <path d="M191.653 70.9842C191.853 70.9842 192.015 70.8223 192.015 70.6225C192.015 70.4228 191.853 70.2609 191.653 70.2609C191.454 70.2609 191.292 70.4228 191.292 70.6225C191.292 70.8223 191.454 70.9842 191.653 70.9842Z" fill="#263238"/>
    <path d="M186.198 73.2971C186.398 73.2971 186.56 73.1352 186.56 72.9354C186.56 72.7357 186.398 72.5737 186.198 72.5737C185.998 72.5737 185.837 72.7357 185.837 72.9354C185.837 73.1352 185.998 73.2971 186.198 73.2971Z" fill="#263238"/>
    <path d="M188.928 73.2971C189.128 73.2971 189.289 73.1352 189.289 72.9354C189.289 72.7357 189.128 72.5737 188.928 72.5737C188.728 72.5737 188.567 72.7357 188.567 72.9354C188.567 73.1352 188.728 73.2971 188.928 73.2971Z" fill="#263238"/>
    <path d="M191.653 73.2971C191.853 73.2971 192.015 73.1352 192.015 72.9354C192.015 72.7357 191.853 72.5737 191.653 72.5737C191.454 72.5737 191.292 72.7357 191.292 72.9354C191.292 73.1352 191.454 73.2971 191.653 73.2971Z" fill="#263238"/>
    <path d="M194.488 71.9312C195.21 71.9312 195.796 71.3453 195.796 70.6225C195.796 69.8997 195.21 69.3137 194.488 69.3137C193.765 69.3137 193.18 69.8997 193.18 70.6225C193.18 71.3453 193.765 71.9312 194.488 71.9312Z"/>
    <path d="M175.987 9.3877H167.141V215.331H175.987V9.3877Z" fill="#263238"/>
    <path d="M167.136 18.0776H79.0504V215.336H167.136V18.0776Z" fill="#455A64"/>
    <path d="M81.5235 9.3877H73.3718V215.331H81.5235V9.3877Z" fill="#263238"/>
    <path d="M175.987 9.3877H73.3718V18.0777H175.987V9.3877Z" fill="#263238"/>
    <path d="M175.996 9.37817C175.901 9.50655 175.789 9.62177 175.664 9.72083L174.712 10.5965L171.545 13.4519C170.313 14.5798 169.219 15.6173 168.463 16.4073C168.163 16.7065 167.881 17.0244 167.621 17.3591C167.553 17.4526 167.493 17.5513 167.44 17.6542C167.44 17.7256 167.402 17.7684 167.393 17.7684C167.383 17.7684 167.393 17.7256 167.393 17.6399C167.428 17.5247 167.478 17.4143 167.54 17.3115C167.773 16.9426 168.039 16.5954 168.335 16.2741C169.298 15.2165 170.314 14.2079 171.378 13.252C172.61 12.1242 173.756 11.1343 174.598 10.4347C175.021 10.0825 175.364 9.80649 175.606 9.61613C175.726 9.5201 175.857 9.4401 175.996 9.37817Z" fill="#455A64"/>
    <path d="M82.031 18.0584C82.0816 18.0119 80.2895 15.9781 78.0282 13.5158C75.767 11.0534 73.8929 9.09498 73.8424 9.14145C73.7919 9.18792 75.584 11.2217 77.8452 13.6841C80.1065 16.1464 81.9805 18.1049 82.031 18.0584Z" fill="#455A64"/>
    <path d="M86.9216 107.834H86.6743C85.1061 107.834 83.8349 109.106 83.8349 110.675V131.339C83.8349 132.908 85.1061 134.18 86.6743 134.18H86.9216C88.4897 134.18 89.7609 132.908 89.7609 131.339V110.675C89.7609 109.106 88.4897 107.834 86.9216 107.834Z" fill="#263238"/>
    <path d="M88.0107 127.707C88.013 127.528 87.967 127.351 87.8776 127.196C87.7881 127.04 87.6585 126.912 87.5023 126.824C87.3462 126.736 87.1692 126.691 86.9899 126.695C86.8107 126.699 86.6358 126.751 86.4837 126.846C86.3315 126.941 86.2077 127.075 86.1252 127.235C86.0427 127.394 86.0046 127.572 86.0149 127.751C86.0251 127.931 86.0834 128.104 86.1835 128.252C86.2836 128.401 86.4219 128.52 86.5839 128.597V129.759C86.5839 129.877 86.631 129.991 86.7148 130.075C86.7987 130.159 86.9124 130.206 87.0309 130.206C87.1495 130.206 87.2632 130.159 87.3471 130.075C87.4309 129.991 87.478 129.877 87.478 129.759V128.597C87.64 128.512 87.7755 128.384 87.8695 128.227C87.9634 128.07 88.0123 127.89 88.0107 127.707Z" fill="#455A64"/>
    <path d="M101.527 116.704H88.2247C87.392 116.704 86.717 117.38 86.717 118.213V118.346C86.717 119.18 87.392 119.855 88.2247 119.855H101.527C102.36 119.855 103.035 119.18 103.035 118.346V118.213C103.035 117.38 102.36 116.704 101.527 116.704Z" fill="#263238"/>
    <path d="M92.6478 119.945C92.4913 119.977 92.3318 119.992 92.1722 119.988L90.8215 120.045C90.1485 120.078 89.4739 120.054 88.8049 119.974C88.4018 119.929 88.0065 119.83 87.6302 119.679C87.1982 119.521 86.8304 119.225 86.5839 118.836C86.4711 118.633 86.4068 118.407 86.396 118.175C86.3853 117.943 86.4284 117.712 86.522 117.499C86.6199 117.298 86.7778 117.131 86.9739 117.023C87.1503 116.924 87.3369 116.844 87.5303 116.785C88.1839 116.599 88.8631 116.519 89.5421 116.547C90.1176 116.547 90.5789 116.576 90.8976 116.595C91.0578 116.595 91.2175 116.614 91.3732 116.652C90.7599 116.711 90.1438 116.734 89.5278 116.723C88.8691 116.72 88.2136 116.815 87.5826 117.004C87.4051 117.041 87.2373 117.115 87.0899 117.221C86.9424 117.327 86.8187 117.462 86.7266 117.618C86.6515 117.796 86.6181 117.989 86.6288 118.182C86.6396 118.375 86.6941 118.563 86.7884 118.732C86.9957 119.074 87.3075 119.341 87.6778 119.493C88.0328 119.638 88.4054 119.736 88.7859 119.784C89.4433 119.871 90.1061 119.911 90.7691 119.902C91.3953 119.858 92.0243 119.872 92.6478 119.945Z" fill="#455A64"/>
    <path d="M120.665 62.2465C120.665 62.2465 120.665 62.1894 120.665 62.0894V61.6135V59.8622L120.637 53.2661C120.637 47.6076 120.603 39.5696 120.58 30.0086L120.689 30.1181H94.5311L94.6548 29.9943C94.6548 41.892 94.6548 52.9949 94.6548 62.2132L94.5502 62.1085L113.498 62.1608L118.801 62.1894H120.199H120.675H120.199H118.82L113.541 62.2179L94.5169 62.2703H94.4122V62.1656C94.4122 52.9473 94.4122 41.8682 94.4122 29.9467V29.823H94.5407H120.699H120.808V29.9325C120.808 39.522 120.765 47.5886 120.751 53.2519C120.751 56.0692 120.751 58.2917 120.722 59.8241V61.5517V61.9942C120.713 62.0802 120.694 62.1648 120.665 62.2465Z" fill="#263238"/>
    <path d="M116.366 58.2584C116.363 58.2172 116.363 58.1758 116.366 58.1346V57.7872V56.4404L116.337 51.391C116.337 47.0651 116.304 40.9211 116.28 33.6921L116.394 33.8063H98.3835L98.5071 33.6873V35.3863C98.5071 35.9542 98.5071 36.519 98.5071 37.0805C98.5071 38.2037 98.5071 39.3141 98.5071 40.4119C98.5071 42.6058 98.5071 44.7426 98.5071 46.8081C98.5071 50.9389 98.5071 54.789 98.5071 58.2298L98.4072 58.1299L111.477 58.1822L115.12 58.206H116.071H116.409H116.095H115.144L111.524 58.2298L98.393 58.2822H98.2931V58.1822C98.2931 54.7319 98.2931 50.8866 98.2931 46.7605C98.2931 44.695 98.2931 42.5582 98.2931 40.3643C98.2931 39.2665 98.2931 38.1561 98.2931 37.033V33.7064L98.4168 33.5779H116.428H116.542V33.6921C116.542 40.9687 116.499 47.1174 116.485 51.4624C116.485 53.6088 116.485 55.3077 116.456 56.4832V57.8063V58.1441C116.431 58.1856 116.4 58.2239 116.366 58.2584Z" fill="#263238"/>
    <path d="M120.665 130.258C120.665 130.258 120.665 130.154 120.665 129.958V129.092V125.761L120.632 113.245C120.632 102.565 120.599 87.5457 120.575 70.0371L120.694 70.156H94.5359L94.6596 70.0323C94.6596 93.4897 94.6358 114.767 94.6263 130.268L94.5359 130.177L113.636 130.225H118.868H120.228H120.703H120.252H118.906H113.717L94.5644 130.272H94.4741V130.258C94.4741 114.753 94.4741 93.4802 94.4408 70.0228V69.899H120.822V70.018C120.822 87.5361 120.779 102.603 120.765 113.325L120.732 125.813C120.732 127.241 120.732 128.374 120.732 129.145V129.996C120.67 130.158 120.665 130.258 120.665 130.258Z" fill="#263238"/>
    <path d="M116.366 126.927C116.366 126.927 116.366 126.832 116.366 126.66V125.885V122.901C116.366 120.298 116.366 116.524 116.333 111.788C116.333 102.327 116.299 89.0496 116.275 73.7397L116.394 73.8587H98.355L98.4786 73.7349C98.4786 94.9984 98.4453 114.082 98.4358 126.922L98.355 126.841L111.572 126.884H115.125H116.047H116.366H116.061H115.153H111.619L98.355 126.927H98.2741C98.2741 114.078 98.2503 95.0032 98.2313 73.7397V73.6255H116.485V73.7445C116.485 89.0829 116.442 102.394 116.428 111.874C116.428 116.595 116.404 120.364 116.394 122.958V125.918V126.68C116.371 126.827 116.366 126.927 116.366 126.927Z" fill="#263238"/>
    <path d="M120.665 206.536C120.665 206.536 120.665 206.432 120.665 206.237V205.37V202.039L120.632 189.523C120.632 178.843 120.599 163.824 120.575 146.315L120.694 146.434H94.5359L94.6596 146.311C94.6596 169.768 94.6358 191.046 94.6263 206.546L94.5359 206.456L113.636 206.503H118.868H120.228H120.703H120.252H118.906H113.717L94.5644 206.551H94.4741V206.46C94.4741 190.955 94.4741 169.682 94.4408 146.225V146.101H120.822V146.22C120.822 163.738 120.779 178.805 120.765 189.528L120.732 202.015C120.732 203.443 120.732 204.576 120.732 205.347V206.199C120.67 206.441 120.665 206.536 120.665 206.536Z" fill="#263238"/>
    <path d="M116.366 203.2C116.366 203.2 116.366 203.105 116.366 202.934V202.158V199.174C116.366 196.571 116.366 192.797 116.333 188.062C116.333 178.601 116.299 165.323 116.275 150.013L116.394 150.132H98.355L98.4786 150.008C98.4786 171.272 98.4453 190.356 98.4358 203.196L98.355 203.115L111.572 203.158H115.125H116.047H116.366H116.061H115.153H111.619L98.355 203.2H98.2741V203.119C98.2741 190.27 98.2503 171.196 98.2313 149.932V149.808H116.485V149.927C116.485 165.266 116.442 178.577 116.428 188.057C116.428 192.778 116.404 196.547 116.394 199.141V202.101V202.862C116.371 203.115 116.366 203.2 116.366 203.2Z" fill="#263238"/>
    <path d="M96.5403 60.2145C97.8175 59.174 98.8179 58.2876 98.7748 58.2346C98.7317 58.1816 97.6614 58.9821 96.3842 60.0226C95.107 61.063 94.1066 61.9495 94.1497 62.0024C94.1928 62.0554 95.2631 61.2549 96.5403 60.2145Z" fill="#263238"/>
    <path d="M120.827 61.7706C119.207 60.8672 117.759 59.6865 116.547 58.2822C116.599 58.2299 117.498 59.0627 118.687 60.0241C119.876 60.9854 120.856 61.7278 120.827 61.7706Z" fill="#263238"/>
    <path d="M118.302 32.3685C119.432 31.546 120.315 30.8345 120.275 30.7792C120.235 30.7239 119.286 31.3459 118.156 32.1684C117.026 32.9908 116.142 33.7024 116.183 33.7577C116.223 33.8129 117.171 33.191 118.302 32.3685Z" fill="#263238"/>
    <path d="M98.4263 33.2876C97.6519 32.9839 96.9236 32.5739 96.2623 32.0693C95.5577 31.6302 94.9174 31.0952 94.3599 30.4797C95.0702 30.9 95.7547 31.3625 96.4097 31.8646C97.1096 32.2984 97.783 32.7735 98.4263 33.2876Z" fill="#263238"/>
    <path d="M98.2598 73.8015C96.6019 72.8466 95.301 71.3761 94.5549 69.6135C94.6215 69.5754 95.2208 70.6938 96.2481 71.8455C97.2754 72.9972 98.3026 73.7396 98.2598 73.8015Z" fill="#263238"/>
    <path d="M118.494 71.7862C119.563 70.8458 120.393 70.0419 120.348 69.9905C120.303 69.9392 119.4 70.6599 118.331 71.6003C117.261 72.5407 116.431 73.3447 116.476 73.396C116.521 73.4474 117.424 72.7266 118.494 71.7862Z" fill="#263238"/>
    <path d="M98.2503 127.184C98.2884 127.246 97.4228 127.874 96.4383 128.75C95.4538 129.625 94.7214 130.406 94.6643 130.358C95.5984 129.037 96.8259 127.95 98.2503 127.184Z" fill="#263238"/>
    <path d="M119.933 130.188C119.98 130.138 119.243 129.382 118.287 128.499C117.332 127.616 116.52 126.941 116.474 126.992C116.428 127.042 117.164 127.798 118.12 128.681C119.075 129.563 119.887 130.238 119.933 130.188Z" fill="#263238"/>
    <path d="M98.6976 150.712C98.7468 150.664 97.8427 149.643 96.6781 148.43C95.5135 147.216 94.5295 146.271 94.4802 146.319C94.431 146.366 95.3351 147.388 96.4997 148.601C97.6643 149.814 98.6483 150.759 98.6976 150.712Z" fill="#263238"/>
    <path d="M118.575 148.257C119.727 147.147 120.623 146.207 120.576 146.158C120.528 146.109 119.556 146.969 118.404 148.079C117.251 149.189 116.356 150.129 116.403 150.179C116.451 150.228 117.423 149.368 118.575 148.257Z" fill="#263238"/>
    <path d="M96.2919 204.764C97.1907 203.771 97.8783 202.928 97.8276 202.882C97.777 202.836 97.0073 203.604 96.1085 204.598C95.2097 205.592 94.5222 206.435 94.5728 206.481C94.6234 206.527 95.3931 205.758 96.2919 204.764Z" fill="#263238"/>
    <path d="M120.232 206.536C118.787 205.587 117.516 204.396 116.475 203.015C117.143 203.558 117.778 204.139 118.378 204.756C119.03 205.313 119.649 205.908 120.232 206.536Z" fill="#263238"/>
    <path d="M155.455 62.2465C155.455 62.2465 155.455 62.1894 155.455 62.0894V61.6135V59.8622L155.427 53.2661C155.427 47.6076 155.394 39.5696 155.37 30.0086L155.479 30.1181H129.321L129.445 29.9943C129.445 41.892 129.445 52.9949 129.445 62.2132L129.34 62.1085L148.288 62.1608L153.591 62.1894H154.989H155.465H154.989H153.61L148.331 62.2179L129.307 62.2703H129.202V62.1656C129.202 52.9473 129.202 41.8682 129.202 29.9467V29.823H129.331H155.489H155.546V29.9325C155.546 39.522 155.503 47.5886 155.489 53.2519L155.46 59.8241V61.5517V61.9942C155.468 62.0782 155.466 62.1628 155.455 62.2465Z" fill="#263238"/>
    <path d="M151.156 58.2584C151.153 58.2172 151.153 58.1758 151.156 58.1346V57.7872V56.4404L151.127 51.391C151.127 47.0651 151.094 40.9211 151.07 33.6921L151.184 33.8063H133.174L133.297 33.6873V35.3863C133.297 35.9542 133.297 36.519 133.297 37.0805C133.297 38.2037 133.297 39.3141 133.297 40.4119C133.297 42.6058 133.297 44.7426 133.297 46.8081C133.297 50.9389 133.297 54.789 133.297 58.2298L133.197 58.1299L146.267 58.1822L149.91 58.206H150.861H151.199H150.885H149.934L146.314 58.2298L133.183 58.2822H133.083V58.1822C133.083 54.7319 133.083 50.8866 133.083 46.7605C133.083 44.695 133.083 42.5582 133.083 40.3643C133.083 39.2665 133.083 38.1561 133.083 37.033C133.083 36.4714 133.083 35.9066 133.083 35.3387V33.7064L133.207 33.5779H151.218H151.265V33.6921C151.265 40.9687 151.223 47.1174 151.208 51.4624C151.208 53.6088 151.208 55.3077 151.18 56.4832V57.8063V58.1441C151.175 58.1829 151.167 58.2211 151.156 58.2584Z" fill="#263238"/>
    <path d="M155.455 130.258C155.455 130.258 155.455 130.154 155.455 129.958V129.092V125.761L155.422 113.245C155.422 102.565 155.389 87.5457 155.365 70.0371L155.484 70.156H129.326L129.45 70.0323C129.45 93.4897 129.426 114.767 129.416 130.268L129.326 130.177L148.426 130.225H153.658H155.018H155.493H155.042L153.643 130.258H148.455L129.302 130.306H129.212V130.258C129.212 114.753 129.212 93.4802 129.179 70.0228V69.899H155.56V70.018C155.56 87.5361 155.517 102.603 155.503 113.325L155.47 125.813C155.47 127.241 155.47 128.374 155.47 129.145V129.996C155.46 130.158 155.455 130.258 155.455 130.258Z" fill="#263238"/>
    <path d="M151.156 126.927C151.156 126.927 151.156 126.832 151.156 126.66V125.885C151.156 125.199 151.156 124.195 151.156 122.901C151.156 120.298 151.156 116.524 151.123 111.788C151.123 102.327 151.089 89.0496 151.066 73.7397L151.184 73.8587H133.145L133.269 73.7349C133.269 94.9984 133.235 114.082 133.226 126.922L133.145 126.841L146.362 126.884H149.915H150.837H151.156H150.852H149.943H146.409L133.145 126.927H133.064C133.064 114.078 133.04 95.0032 133.021 73.7397V73.6255H151.265V73.7445C151.265 89.0829 151.223 102.394 151.208 111.874C151.208 116.595 151.184 120.364 151.175 122.958C151.175 124.243 151.175 125.238 151.175 125.918V126.68C151.161 126.827 151.156 126.927 151.156 126.927Z" fill="#263238"/>
    <path d="M155.455 206.536C155.455 206.536 155.455 206.432 155.455 206.237V205.37V202.039L155.422 189.523C155.422 178.843 155.389 163.824 155.365 146.315L155.484 146.434H129.326L129.45 146.311C129.45 169.768 129.426 191.046 129.416 206.546L129.326 206.456L148.426 206.503H153.658H155.018H155.493H155.042H153.696H148.507L129.354 206.551H129.264V206.46C129.264 190.955 129.264 169.682 129.231 146.225V146.101H155.612V146.22C155.612 163.738 155.569 178.805 155.555 189.528L155.522 202.015C155.522 203.443 155.522 204.576 155.522 205.347V206.199C155.46 206.441 155.455 206.536 155.455 206.536Z" fill="#263238"/>
    <path d="M151.156 203.2C151.156 203.2 151.156 203.105 151.156 202.934V202.158C151.156 201.473 151.156 200.469 151.156 199.174C151.156 196.571 151.156 192.797 151.123 188.062C151.123 178.601 151.089 165.323 151.066 150.013L151.184 150.132H133.145L133.269 150.008C133.269 171.272 133.235 190.356 133.226 203.196L133.145 203.115L146.362 203.158H149.915H150.837H151.156H150.852H149.943H146.409L133.145 203.2H133.064V203.119C133.064 190.27 133.04 171.196 133.021 149.932V149.808H151.265V149.927C151.265 165.266 151.223 178.577 151.208 188.057C151.208 192.778 151.184 196.547 151.175 199.141C151.175 200.426 151.175 201.42 151.175 202.101V202.862C151.161 203.115 151.156 203.2 151.156 203.2Z" fill="#263238"/>
    <path d="M131.324 60.208C132.602 59.1675 133.602 58.2811 133.559 58.2281C133.516 58.1751 132.445 58.9756 131.168 60.0161C129.891 61.0566 128.891 61.943 128.934 61.996C128.977 62.049 130.047 61.2485 131.324 60.208Z" fill="#263238"/>
    <path d="M155.608 61.7706C153.988 60.8672 152.539 59.6865 151.327 58.2822C151.379 58.2299 152.278 59.0627 153.467 60.0241C154.656 60.9854 155.646 61.7278 155.608 61.7706Z" fill="#263238"/>
    <path d="M153.09 32.3649C154.22 31.5425 155.104 30.8309 155.064 30.7756C155.024 30.7204 154.075 31.3423 152.945 32.1648C151.815 32.9873 150.931 33.6989 150.971 33.7541C151.011 33.8094 151.96 33.1874 153.09 32.3649Z" fill="#263238"/>
    <path d="M133.216 33.2876C132.442 32.9839 131.714 32.5739 131.052 32.0693C130.348 31.6302 129.707 31.0952 129.15 30.4797C129.86 30.9 130.545 31.3625 131.2 31.8646C131.9 32.2984 132.573 32.7735 133.216 33.2876Z" fill="#263238"/>
    <path d="M133.05 73.8015C131.392 72.8466 130.091 71.3761 129.345 69.6135C129.412 69.5754 130.011 70.6938 131.038 71.8455C132.065 72.9972 133.093 73.7396 133.05 73.8015Z" fill="#263238"/>
    <path d="M153.282 71.7867C154.352 70.8463 155.182 70.0423 155.137 69.991C155.092 69.9397 154.188 70.6604 153.119 71.6008C152.05 72.5412 151.219 73.3452 151.264 73.3965C151.309 73.4479 152.213 72.7271 153.282 71.7867Z" fill="#263238"/>
    <path d="M133.04 127.184C133.078 127.246 132.213 127.874 131.228 128.75C130.244 129.625 129.511 130.406 129.454 130.358C130.389 129.037 131.616 127.95 133.04 127.184Z" fill="#263238"/>
    <path d="M154.721 130.192C154.768 130.142 154.031 129.386 153.076 128.503C152.12 127.62 151.309 126.945 151.262 126.996C151.216 127.046 151.953 127.802 152.908 128.685C153.863 129.567 154.675 130.242 154.721 130.192Z" fill="#263238"/>
    <path d="M133.489 150.709C133.538 150.661 132.634 149.64 131.469 148.427C130.305 147.213 129.321 146.268 129.271 146.316C129.222 146.363 130.126 147.385 131.291 148.598C132.456 149.811 133.44 150.756 133.489 150.709Z" fill="#263238"/>
    <path d="M153.37 148.257C154.523 147.147 155.418 146.207 155.371 146.157C155.324 146.108 154.351 146.968 153.199 148.079C152.047 149.189 151.151 150.129 151.198 150.178C151.246 150.227 152.218 149.367 153.37 148.257Z" fill="#263238"/>
    <path d="M131.077 204.759C131.976 203.765 132.663 202.922 132.613 202.876C132.562 202.831 131.792 203.599 130.894 204.593C129.995 205.587 129.307 206.43 129.358 206.476C129.409 206.522 130.178 205.753 131.077 204.759Z" fill="#263238"/>
    <path d="M155.023 206.536C153.577 205.587 152.306 204.396 151.265 203.015C152.541 204.163 153.794 205.337 155.023 206.536Z" fill="#263238"/>
    <path d="M206.753 173.37H148.416V215.335H206.753V173.37Z"/>
    <path d="M164.064 173.37C164.145 173.37 164.064 182.232 164.064 182.232H159.745V173.37H164.064Z" fill="#263238"/>
    <g opacity="0.4">
    <path opacity="0.4" d="M177.585 215.331H206.753V173.366H177.585V215.331Z" fill=""/>
    </g>
    <path d="M158.005 207.117H150.195V212.647H158.005V207.117Z" fill="#FAFAFA"/>
    <path d="M158.014 212.661H150.181V207.107H158.014V212.661ZM150.205 212.637H157.99V207.131H150.205V212.637Z" fill="#263238"/>
    <path d="M163.35 207.117H159.446V212.647H163.35V207.117Z" fill="#FAFAFA"/>
    <path d="M163.36 212.661H159.431V207.107H163.36V212.661ZM159.455 212.637H163.336V207.131H159.455V212.637Z" fill="#263238"/>
</svg>
