<svg viewBox="0 0 121 94" xmlns="http://www.w3.org/2000/svg">
    <g clip-path="url(#clip0)">
    <path fill-rule="evenodd" clip-rule="evenodd" d="M0.589969 39.7146C6.08002 24.8492 31.0948 33.048 44.116 24.0714C50.5948 19.605 47.0911 7.34051 53.7136 3.0917C60.5886 -1.31913 70.0641 -0.570697 77.5892 2.59584C84.837 5.64566 87.1021 14.5377 93.0805 19.6571C101.992 27.2881 122.282 28.0361 120.936 39.7146C119.512 52.0758 98.1689 48.4924 88.8176 56.6639C82.7752 61.9439 83.7198 72.0283 77.7809 77.4252C69.22 85.2047 59.4022 96.0671 48.1047 93.6608C36.9994 91.2955 35.8221 75.4232 28.3035 66.8869C19.5357 56.9323 -4.01089 52.1723 0.589969 39.7146Z"/>
    <path d="M104.368 4.84725C104.487 3.97731 103.261 3.26177 102.338 3.18783C101.903 3.15303 101.442 3.22045 101.033 3.07474C100.131 2.75938 99.7698 1.59365 98.889 1.22175C98.2366 0.943365 97.4732 1.1913 96.8338 1.51318C96.1944 1.83506 95.5637 2.23959 94.8525 2.28526C94.2326 2.32441 93.5584 2.09387 93.0169 2.39835C92.6124 2.61584 92.4014 3.08996 92.0273 3.36617C91.6532 3.64238 91.1878 3.6924 90.7354 3.71632C90.2814 3.70502 89.8292 3.77878 89.4022 3.93381C88.9912 4.12302 88.6497 4.558 88.7346 5.00385L104.368 4.84725Z" fill="#EAEAEA"/>
    <path d="M41.2028 5.86069C41.3899 4.49922 39.4629 3.38134 38.0275 3.26389C37.3403 3.20735 36.6247 3.31392 35.9723 3.08555C34.5608 2.59403 33.9953 0.769319 32.6186 0.188629C31.5877 -0.246345 30.4024 0.140782 29.4042 0.643176C28.4059 1.14557 27.4185 1.77846 26.3006 1.84153C25.3306 1.9046 24.2758 1.54357 23.4276 2.01769C22.7948 2.37002 22.4642 3.10513 21.8813 3.5401C21.2984 3.97508 20.5764 4.04902 19.8587 4.08817C19.141 4.12732 18.4189 4.13384 17.773 4.42962C17.127 4.72541 16.5942 5.40614 16.729 6.1021L41.2028 5.86069Z" fill="#F5F5F5"/>
    <path d="M91.1574 13.5858C91.3401 12.257 89.4654 11.1652 88.056 11.0499C87.384 10.9956 86.6859 11.0978 86.0486 10.876C84.6698 10.3953 84.1195 8.61409 82.7733 8.04863C81.7663 7.61365 80.5984 8.00295 79.6328 8.4836C78.6671 8.96424 77.6928 9.59278 76.6032 9.66238C75.6549 9.72327 74.6262 9.37095 73.7976 9.83419C73.1799 10.18 72.8559 10.8912 72.286 11.3109C71.7162 11.7307 71.0029 11.809 70.3113 11.8459C69.6197 11.8829 68.9041 11.8894 68.2756 12.1787C67.647 12.468 67.1251 13.1335 67.2556 13.812L91.1574 13.5858Z" fill="#F5F5F5"/>
    <path d="M88.6759 93.4882C84.0847 91.3699 82.21 86.2459 81.5162 81.4611C81.4009 80.663 81.1639 79.8409 81.4162 79.0688C81.6684 78.2967 82.4644 77.6703 83.2365 77.877C83.8759 78.0488 84.2565 78.6882 84.6872 79.1971C85.2618 79.8735 86.0157 80.374 86.862 80.6412C87.4144 80.813 88.0691 80.8587 88.5193 80.4955C89.1369 79.9953 89.0478 79.034 88.8999 78.2445L88.08 73.8339C87.9342 73.0444 87.7863 72.2397 87.8973 71.4415C88.0082 70.6433 88.4258 69.8539 89.1391 69.5102C89.8525 69.1666 90.8594 69.4319 91.1574 70.1758C91.2453 70.4972 91.3114 70.8241 91.3553 71.1544C91.4358 71.4785 91.6533 71.8069 91.9817 71.8482C92.3101 71.8896 92.5885 71.6046 92.7842 71.3306C93.4562 70.3867 93.8238 69.2601 94.1587 68.1466C94.4936 67.0331 94.8112 65.8978 95.3897 64.8843C95.9682 63.8708 96.8729 63.0096 97.9995 62.742C99.1261 62.4745 100.448 62.9595 100.933 64.0165C101.418 65.0735 100.973 66.3241 100.429 67.3528C99.6196 68.8777 98.594 70.2776 97.384 71.5089C97.1411 71.7063 96.9674 71.976 96.8882 72.2788C96.812 72.8356 97.4036 73.2684 97.9539 73.3489C98.578 73.4402 99.2044 73.2641 99.8329 73.2249C100.461 73.1858 101.177 73.338 101.514 73.8774C101.982 74.6255 101.46 75.5933 100.894 76.2697C99.7628 77.6186 98.4077 78.7626 96.8882 79.6517C96.3445 79.9692 95.7681 80.265 95.3658 80.7565C94.9634 81.248 94.8155 82.0092 95.1983 82.5138C95.5811 83.0184 96.3401 83.0684 96.9382 82.8444C97.5363 82.6204 98.0126 82.1919 98.5519 81.8722C99.5633 81.2676 100.979 81.0914 101.843 81.9048C102.41 82.4398 102.604 83.2902 102.495 84.0666C102.362 84.841 102.074 85.5807 101.649 86.2415C100.277 88.5947 98.3453 90.6369 95.9943 91.9614C93.6433 93.2859 91.3444 93.9405 88.678 93.4838" fill="#EAEAEA"/>
    <path d="M89.3696 90.2871C89.6944 87.5547 90.1758 84.8433 90.8116 82.1661L91.2987 80.0565C91.4597 79.3649 91.6206 78.6776 91.8185 78.0165C92.2008 76.7469 92.6531 75.4995 93.1735 74.28C93.6628 73.1121 94.1696 72.0225 94.6502 71.0069C95.1309 69.9912 95.6028 69.0495 96.0661 68.2165C96.7931 66.8926 97.6244 65.6286 98.5519 64.4366C98.8782 64.0147 99.1413 63.695 99.324 63.4818L99.5415 63.2404C99.5637 63.2121 99.5885 63.1859 99.6154 63.1621C99.5973 63.1938 99.5762 63.2236 99.5524 63.2513L99.3545 63.5014C99.1805 63.7189 98.9195 64.0451 98.6041 64.4714C97.6954 65.6742 96.8783 66.9435 96.1596 68.2687C95.7028 69.106 95.2418 70.0434 94.7633 71.0612C94.2848 72.0791 93.7868 73.1687 93.3018 74.3344C92.7871 75.5502 92.3391 76.7932 91.9599 78.0578C91.7642 78.7102 91.6054 79.3953 91.4445 80.0891L90.9573 82.1966C90.3231 84.8686 89.8388 87.574 89.5066 90.3001" fill="#E0E0E0"/>
    <path d="M91.8577 78.0032C91.8005 77.9005 91.7545 77.7918 91.7207 77.6792C91.6402 77.4617 91.5336 77.1594 91.4075 76.7766C91.1552 76.0111 90.842 74.941 90.5006 73.7601C90.1591 72.5791 89.8329 71.5156 89.5697 70.7566C89.4392 70.376 89.3305 70.0693 89.2522 69.8584C89.2045 69.751 89.1688 69.6386 89.1456 69.5234C89.2099 69.6217 89.2631 69.7267 89.3044 69.8366C89.3979 70.0411 89.5219 70.3434 89.6676 70.7218C89.9569 71.4765 90.3027 72.5378 90.6419 73.7209L91.5119 76.7483L91.7794 77.664C91.8177 77.7739 91.844 77.8876 91.8577 78.0032Z" fill="#E0E0E0"/>
    <path d="M101.669 74.2842C101.541 74.337 101.408 74.3778 101.273 74.406C101.016 74.4756 100.644 74.5756 100.185 74.7126C99.274 74.9801 98.0278 75.3934 96.6707 75.9088C95.3136 76.4242 94.1087 76.9484 93.2475 77.3507C92.8125 77.5487 92.4689 77.7183 92.2296 77.8357C92.109 77.9033 91.9823 77.9593 91.8512 78.0032C91.9616 77.9198 92.0795 77.847 92.2035 77.7857C92.4362 77.6531 92.7755 77.4682 93.2018 77.2572C94.0543 76.8223 95.257 76.2916 96.6163 75.7696C97.7753 75.3231 98.9563 74.9362 100.155 74.6104C100.616 74.4864 100.992 74.3929 101.242 74.3494C101.382 74.3137 101.525 74.2918 101.669 74.2842Z" fill="#E0E0E0"/>
    <path d="M89.461 90.078C89.4256 90.0454 89.3949 90.0081 89.3696 89.9671L89.1304 89.63C88.9129 89.3364 88.6367 88.9058 88.2865 88.3686C87.5884 87.2942 86.6706 85.7783 85.6767 84.0928C84.6828 82.4073 83.7846 80.8827 83.1104 79.7953L82.3078 78.5078L82.0903 78.1554C82.0621 78.1159 82.0394 78.0728 82.0229 78.0271C82.0582 78.0599 82.0889 78.0972 82.1143 78.138L82.3535 78.473C82.571 78.7666 82.8472 79.1972 83.1973 79.7344C83.8955 80.8088 84.8133 82.3246 85.8072 84.0123C86.8011 85.7 87.7015 87.2203 88.3757 88.3077L89.1782 89.5931L89.3957 89.9454C89.4235 89.9864 89.4455 90.031 89.461 90.078Z" fill="#E0E0E0"/>
    <path d="M102.171 83.3076C102.133 83.3391 102.092 83.3654 102.047 83.3859L101.679 83.5882L100.318 84.3146C99.1696 84.9301 97.5929 85.7957 95.8508 86.757C94.1087 87.7183 92.5232 88.5708 91.3619 89.1624C90.7812 89.4581 90.3092 89.693 89.9786 89.8474L89.598 90.0236C89.555 90.0472 89.5089 90.0647 89.461 90.0758C89.4986 90.0436 89.5403 90.0166 89.585 89.9953L89.9525 89.7931L91.3118 89.0667C92.4602 88.4534 94.0369 87.5856 95.779 86.6243C97.5211 85.663 99.1066 84.8105 100.268 84.2189C100.849 83.9231 101.321 83.6882 101.651 83.5338L102.032 83.3576C102.076 83.3346 102.122 83.3178 102.171 83.3076Z" fill="#E0E0E0"/>
    <path d="M108.939 38.9012L104.766 35.4736L104.742 37.3266L93.0995 37.1831L93.0604 40.2279L104.705 40.3714L104.683 42.1592L108.939 38.9012Z" fill="#EAEAEA"/>
    <path d="M102.734 43.8339L100.04 41.6199L100.024 42.8161L92.508 42.7247L92.4819 44.6886L100 44.7821L99.9852 45.937L102.734 43.8339Z" fill="#EAEAEA"/>
    <path d="M14.191 16.2065C14.191 16.2065 11.7638 16.9612 14.0561 22.17C16.3484 27.3788 17.9926 29.9995 17.9926 29.9995C17.9926 29.9995 18.3841 31.2001 17.3837 31.3262C16.3832 31.4523 14.2258 30.9782 13.7168 32.1635C13.1883 33.3923 14.0322 34.6298 15.8199 35.7738C17.6077 36.9178 21.4354 39.5646 21.7791 39.806C22.1227 40.0474 22.4315 40.6107 21.7791 40.8043C21.1266 40.9978 16.1831 41.2392 16.4333 43.5598C16.6834 45.8804 22.1901 48.2641 22.7882 48.5338C23.3863 48.8034 23.5168 49.0709 23.4407 49.4037C23.3646 49.7365 21.7008 49.6582 20.3089 49.78C18.917 49.9017 17.3097 50.291 17.5664 51.6242C17.823 52.9574 20.9961 55.9109 29.0431 57.168L32.8078 57.5181L35.0458 54.4385C39.4325 47.5768 39.3216 43.2423 38.4929 42.1679C37.6643 41.0935 36.3181 42.0352 35.2937 43.0031C34.2694 43.9709 33.2319 45.2693 32.9383 45.0996C32.6447 44.93 32.5295 44.6647 32.7208 44.0296C32.9122 43.3945 34.7848 37.7051 33.2037 35.9826C31.6225 34.2601 28.1841 37.7921 27.5969 38.1575C27.0096 38.5228 26.7965 37.9117 26.8443 37.505C26.8922 37.0983 27.4403 32.4615 27.7665 30.3627C28.0927 28.264 27.7252 26.8133 26.4616 26.3958C25.2349 25.9934 24.1606 27.9182 23.4037 28.588C22.6469 29.2579 21.9966 28.1574 21.9966 28.1574C21.9966 28.1574 21.1266 25.1974 18.7451 20.0299C16.3637 14.8624 14.1388 16.2239 14.1388 16.2239" fill="#EAEAEA"/>
    <path d="M32.9514 58.4076C31.2115 54.606 28.2406 47.7964 25.6569 41.9634C23.0731 36.1304 20.7308 30.8564 19.0127 27.046L16.9748 22.5353L16.4202 21.3087L16.281 20.9803C16.2506 20.9085 16.2375 20.8694 16.2375 20.8694C16.2375 20.8694 16.2571 20.9042 16.2919 20.976L16.4441 21.2913L17.0183 22.5092C17.5142 23.5662 18.2232 25.1039 19.0909 27.0047C20.8308 30.8064 23.184 36.0782 25.7656 41.9091C28.3472 47.7399 31.3115 54.5559 33.0275 58.3663" fill="#E0E0E0"/>
    <path d="M16.7073 32.9421C16.7966 32.9621 16.8834 32.992 16.9661 33.0313C17.1292 33.0944 17.3641 33.1922 17.6533 33.3184C18.2297 33.5685 19.017 33.9339 19.8782 34.3536L22.0814 35.4411L22.7512 35.7651C22.8362 35.7988 22.9172 35.8418 22.9927 35.8934C22.9034 35.8742 22.8166 35.845 22.7338 35.8064C22.5707 35.7434 22.3358 35.6433 22.0488 35.5172C21.4746 35.2606 20.6916 34.8865 19.8304 34.4667L17.6207 33.4032L16.9487 33.0835C16.8631 33.0458 16.7821 32.9983 16.7073 32.9421Z" fill="#E0E0E0"/>
    <path d="M24.8953 32.004C25.7667 29.9729 26.4489 28.316 26.4191 28.3032C26.3893 28.2904 25.6588 29.9266 24.7874 31.9576C23.916 33.9887 23.2338 35.6456 23.2636 35.6584C23.2934 35.6712 24.024 34.035 24.8953 32.004Z" fill="#E0E0E0"/>
    <path d="M26.827 44.7887C26.8748 44.7104 26.931 44.6375 26.9944 44.5712L27.4773 43.9862C27.884 43.4903 28.4429 42.8052 29.0301 42.0288C29.6173 41.2524 30.1306 40.526 30.4938 39.9996L30.9288 39.3754C30.9773 39.2971 31.0342 39.2241 31.0984 39.158C31.0634 39.2445 31.0189 39.3269 30.9657 39.4037C30.8744 39.5581 30.7483 39.78 30.5634 40.0562C30.2154 40.5955 29.7152 41.3285 29.1236 42.1093C28.5321 42.89 27.9644 43.5708 27.5403 44.0536C27.3228 44.2928 27.1532 44.4886 27.0292 44.6169C26.968 44.681 26.9002 44.7386 26.827 44.7887Z" fill="#E0E0E0"/>
    <path d="M20.3567 43.6382C20.4427 43.6345 20.5289 43.6411 20.6134 43.6578L21.3093 43.7535C21.8965 43.8383 22.7034 43.9709 23.5951 44.1123C24.4868 44.2537 25.2937 44.3994 25.8765 44.506L26.566 44.6386C26.6516 44.6504 26.7356 44.6723 26.8161 44.7039C26.7316 44.7079 26.6469 44.7021 26.5638 44.6865L25.8678 44.5908C25.2806 44.506 24.4737 44.3733 23.5821 44.2319C22.6904 44.0906 21.8835 43.9448 21.3006 43.8383L20.6112 43.7056C20.5239 43.6935 20.4385 43.6709 20.3567 43.6382Z" fill="#E0E0E0"/>
    <path d="M22.4772 52.1006C22.5873 52.0999 22.6972 52.1093 22.8056 52.1289L23.6973 52.2485C24.4498 52.3551 25.4872 52.5073 26.6312 52.6835C27.7752 52.8597 28.8061 53.0271 29.5608 53.1554L30.4459 53.312C30.5553 53.3267 30.663 53.3514 30.7678 53.386C30.6577 53.3867 30.5478 53.3773 30.4394 53.3577L29.5477 53.2381C28.7952 53.1315 27.7578 52.9793 26.6138 52.8031C25.4698 52.627 24.4389 52.4595 23.6843 52.3312L22.7991 52.1746C22.6897 52.16 22.582 52.1352 22.4772 52.1006Z" fill="#E0E0E0"/>
    <path d="M30.5786 53.2988C30.6382 53.1966 30.7066 53.0999 30.7831 53.0096L31.3681 52.244C31.8618 51.5915 32.5382 50.702 33.2581 49.6929C33.9779 48.6837 34.6086 47.7529 35.0588 47.083L35.5939 46.2827C35.6577 46.1808 35.7305 46.0847 35.8113 45.9956C35.7639 46.104 35.7072 46.2081 35.6417 46.3066C35.5264 46.5023 35.3546 46.7851 35.1393 47.1287C34.7043 47.8181 34.0867 48.7577 33.3646 49.7668C32.6426 50.776 31.9553 51.6677 31.4442 52.3005C31.1876 52.6159 30.9788 52.8704 30.8309 53.0422C30.7545 53.135 30.6701 53.2209 30.5786 53.2988Z" fill="#E0E0E0"/>
    <path d="M86.9121 84.4757C87.1304 84.5716 87.3272 84.7105 87.4905 84.8843C87.6538 85.0581 87.7804 85.2631 87.8625 85.487C88.0239 85.9359 88.0805 86.4157 88.0278 86.8898C87.9517 87.8054 87.4623 88.745 86.9273 89.4996C86.1378 88.8472 85.9247 87.6858 85.8529 87.0877C85.7398 86.1416 86.1117 84.3669 86.9142 84.4779"/>
    <path d="M87.8668 90.9722C87.8065 90.7135 87.8148 90.4435 87.8911 90.189C87.9675 89.9345 88.109 89.7044 88.3018 89.5216C88.4998 89.3439 88.7312 89.2074 88.9825 89.12C89.2338 89.0326 89.5 88.9961 89.7655 89.0127C89.8874 89.0081 90.0089 89.03 90.1216 89.077C90.2342 89.1239 90.3353 89.1947 90.418 89.2845C90.4799 89.381 90.5154 89.4921 90.5207 89.6067C90.526 89.7212 90.5011 89.8351 90.4484 89.937C90.338 90.1395 90.1759 90.3091 89.9786 90.4285C89.3262 90.8635 88.6128 91.1723 87.8516 90.97"/>
    <path d="M86.9664 93.8016C86.968 93.738 86.9753 93.6747 86.9882 93.6124L87.0665 93.1013C87.1351 92.5334 87.2952 91.9804 87.5406 91.4636C87.7958 90.9472 88.1839 90.5081 88.665 90.1913C88.8118 90.1008 88.9688 90.0278 89.1326 89.9738C89.1768 89.9584 89.2218 89.9454 89.2674 89.9347C89.2833 89.9319 89.2995 89.9319 89.3153 89.9347C89.0965 90.0169 88.8866 90.1211 88.6889 90.2457C88.2258 90.5686 87.8518 91.0032 87.6015 91.5093C87.3609 92.0203 87.1975 92.5641 87.1165 93.123C87.0773 93.3405 87.0447 93.5102 87.0186 93.6298C87.0064 93.6885 86.9889 93.746 86.9664 93.8016Z" fill="#263238"/>
    <path d="M86.749 85.8525C86.7556 85.8796 86.7592 85.9073 86.7598 85.9352L86.7816 86.1701C86.799 86.3745 86.8207 86.6703 86.8425 87.04C86.8882 87.7708 86.9382 88.7799 86.9686 89.9C86.9991 91.02 87.0034 92.0292 86.9947 92.7621C86.9947 93.1275 86.9947 93.4146 86.9795 93.632V93.8669C86.9825 93.8944 86.9825 93.9221 86.9795 93.9496C86.9766 93.9221 86.9766 93.8944 86.9795 93.8669V93.632V92.7621C86.9795 92.0292 86.9621 91.0222 86.9338 89.9021C86.9056 88.7821 86.8621 87.7751 86.8273 87.0444L86.7859 86.1744V85.9395C86.7701 85.9122 86.7577 85.8829 86.749 85.8525Z" fill="#263238"/>
    <path d="M86.5532 91.568C86.4431 91.0174 86.2034 90.501 85.8539 90.0615C85.5044 89.622 85.0553 89.2721 84.5436 89.0408C84.2826 88.9255 83.9455 88.8559 83.7389 89.0539C83.5323 89.2518 83.591 89.5932 83.7041 89.8564C83.9467 90.3999 84.3445 90.8596 84.8475 91.1777C85.3506 91.4958 85.9364 91.658 86.5315 91.6441"/>
    <path d="M84.6959 89.9043C84.753 89.9206 84.8083 89.9424 84.8612 89.9695C84.9253 89.9969 84.9878 90.0281 85.0482 90.0631C85.1178 90.1044 85.2026 90.1435 85.2874 90.2023C85.3822 90.2618 85.4737 90.3264 85.5615 90.3958C85.6639 90.4737 85.7619 90.5572 85.8551 90.6459C86.0686 90.8508 86.2583 91.0792 86.4205 91.3267C86.5784 91.5771 86.7068 91.8449 86.8033 92.1248C86.8445 92.2467 86.8786 92.3709 86.9055 92.4967C86.9309 92.6064 86.9498 92.7176 86.9621 92.8295C86.9742 92.9211 86.9815 93.0133 86.9838 93.1057C86.9888 93.1781 86.9888 93.2508 86.9838 93.3232C86.9847 93.383 86.9796 93.4427 86.9686 93.5015C86.9534 93.5015 86.9686 93.2471 86.9142 92.8491C86.8992 92.7393 86.8781 92.6304 86.8512 92.5228C86.8222 92.3992 86.7867 92.2772 86.7446 92.1575C86.6466 91.8834 86.5189 91.6209 86.364 91.3745C86.2043 91.1315 86.0191 90.9062 85.8116 90.7025C85.721 90.6135 85.6259 90.5293 85.5267 90.4502C85.4353 90.3719 85.344 90.311 85.2592 90.2523C84.9242 90.0152 84.6893 89.9239 84.6959 89.9043Z" fill="#263238"/>
    <path d="M21.6595 88.4016C21.8596 87.623 21.3506 86.8422 20.7787 86.2789C20.2067 85.7157 19.5238 85.2089 19.2258 84.4629C18.743 83.2537 19.3911 81.6878 18.5733 80.6787C18.0818 80.0936 17.2119 79.8957 16.7878 79.2672C16.5896 78.9168 16.4583 78.5325 16.4006 78.1341C15.9432 76.1252 14.9547 74.276 13.5385 72.7795C13.4426 74.5694 13.8302 76.3521 14.6607 77.9405C14.9935 78.5756 15.4024 79.1932 15.5133 79.8979C15.6916 81.0462 15.05 82.2315 15.3328 83.3603C15.6547 84.65 17.1053 85.5156 17.1749 86.8401C17.2336 87.9623 16.2549 88.9497 16.3267 90.0719C16.3856 90.549 16.557 91.0052 16.8269 91.4029C17.6969 92.847 18.9713 93.841 20.9048 93.8083L23.2732 93.891L21.6595 88.4016Z"/>
    <g opacity="0.3">
    <path opacity="0.3" d="M21.6595 88.4016C21.8596 87.623 21.3506 86.8422 20.7787 86.2789C20.2067 85.7157 19.5238 85.2089 19.2258 84.4629C18.743 83.2537 19.3911 81.6878 18.5733 80.6787C18.0818 80.0936 17.2119 79.8957 16.7878 79.2672C16.5896 78.9168 16.4583 78.5325 16.4006 78.1341C15.9432 76.1252 14.9547 74.276 13.5385 72.7795C13.4426 74.5694 13.8302 76.3521 14.6607 77.9405C14.9935 78.5756 15.4024 79.1932 15.5133 79.8979C15.6916 81.0462 15.05 82.2315 15.3328 83.3603C15.6547 84.65 17.1053 85.5156 17.1749 86.8401C17.2336 87.9623 16.2549 88.9497 16.3267 90.0719C16.3856 90.549 16.557 91.0052 16.8269 91.4029C17.6969 92.847 18.9713 93.841 20.9048 93.8083L23.2732 93.891L21.6595 88.4016Z" fill=""/>
    </g>
    <path d="M23.7539 93.9539C23.9705 93.9874 24.1912 93.983 24.4063 93.9409C24.6688 93.9023 24.9267 93.8374 25.1762 93.7473C25.5207 93.6278 25.8427 93.4513 26.1288 93.2253C26.3008 93.0867 26.4354 92.9073 26.5203 92.7034C26.5916 92.4744 26.629 92.2363 26.6312 91.9965C26.635 91.7405 26.6532 91.4849 26.6856 91.231C26.7317 90.9609 26.83 90.7023 26.9748 90.4698C27.2532 89.9783 27.7187 89.515 27.8687 88.8495C28.0188 88.184 27.9144 87.4859 27.8035 86.7725C27.6926 86.0591 27.586 85.2871 27.8578 84.5476C28.1297 83.8081 28.6321 83.1383 28.8909 82.3031C29.1497 81.468 29.0279 80.5632 29.0845 79.6585C29.1026 79.2077 29.2075 78.7647 29.3933 78.3536C29.5847 77.9338 29.85 77.538 30.0588 77.0965C30.4786 76.2048 30.5525 75.1935 30.6678 74.2017L30.8374 72.6793C30.8719 72.1641 30.9601 71.6538 31.1006 71.1569C31.2609 70.6576 31.4504 70.1681 31.6682 69.6911C31.7808 69.444 31.8724 69.1879 31.9423 68.9255C31.9821 68.6552 32.0075 68.383 32.0184 68.1099C32.0442 67.5625 32.0231 67.0139 31.9553 66.4701C31.8901 65.9242 31.7922 65.3827 31.7378 64.8346V64.7411L31.7248 64.6323L31.6269 64.6802C31.1249 64.9361 30.6887 65.3046 30.3524 65.7567C30.0243 66.1986 29.7607 66.6848 29.5695 67.2008C29.1736 68.2187 29.0323 69.2844 28.8322 70.3022C28.6321 71.32 28.3798 72.3205 27.86 73.1665C27.6012 73.5884 27.2859 73.9734 27.0118 74.3844C26.7183 74.7855 26.5177 75.2468 26.4246 75.735C26.2854 76.7376 26.8357 77.6163 26.7226 78.5036C26.6671 78.9396 26.5188 79.3587 26.2876 79.7324C26.0701 80.1109 25.82 80.461 25.5808 80.8199C25.3366 81.1624 25.1241 81.5264 24.9457 81.9073C24.7789 82.2827 24.6802 82.6848 24.6543 83.0948C24.5955 83.893 24.7108 84.652 24.6543 85.3675C24.5901 86.0522 24.3913 86.7174 24.0692 87.3249C23.7821 87.9078 23.4646 88.4341 23.1993 88.9452C23.0671 89.1906 22.9473 89.4424 22.8404 89.6999C22.7419 89.9409 22.669 90.1917 22.6229 90.448C22.5523 90.8958 22.5464 91.3514 22.6055 91.8008C22.6679 92.4274 22.9028 93.0243 23.2841 93.5255C23.3413 93.6035 23.4054 93.6762 23.4755 93.7429C23.522 93.7926 23.5738 93.8371 23.6299 93.8756C23.7191 93.9409 23.7647 93.9713 23.7647 93.9713C23.5934 93.8316 23.438 93.6733 23.3015 93.4994C22.9329 92.9985 22.7073 92.4069 22.649 91.7877C22.5958 91.3442 22.606 90.8952 22.6795 90.4545C22.7263 90.204 22.7992 89.9591 22.897 89.7238C22.997 89.4802 23.1145 89.2323 23.258 88.98C23.5277 88.4732 23.8496 87.9491 24.141 87.3619C24.4705 86.7475 24.6759 86.0743 24.7456 85.3806C24.8087 84.6498 24.6978 83.8886 24.7587 83.11C24.7839 82.7135 24.8797 82.3246 25.0414 81.9617C25.2181 81.5867 25.4284 81.2286 25.6699 80.8916C25.9092 80.5415 26.1658 80.1892 26.3855 79.8042C26.6259 79.4152 26.7802 78.9791 26.8378 78.5254C26.9509 77.5793 26.4029 76.6942 26.5464 75.7633C26.6376 75.296 26.8315 74.8547 27.114 74.4714C27.3837 74.0669 27.7013 73.682 27.9666 73.2492C28.5038 72.3792 28.7648 71.3592 28.9627 70.337C29.1606 69.3148 29.3063 68.2578 29.6956 67.2617C29.8822 66.7596 30.1393 66.2866 30.459 65.8568C30.7816 65.4236 31.1999 65.0708 31.6813 64.8259L31.5725 64.765V64.8607C31.6312 65.4153 31.7313 65.9481 31.79 66.4984C31.857 67.0335 31.8781 67.5734 31.8531 68.1121C31.8427 68.3763 31.8187 68.6398 31.7813 68.9016C31.7133 69.155 31.6246 69.4023 31.516 69.641C31.2963 70.1231 31.1053 70.6176 30.944 71.1221C30.8017 71.6247 30.7121 72.1408 30.6765 72.6619L30.509 74.1844C30.3959 75.1804 30.322 76.1744 29.9174 77.0356C29.7174 77.4706 29.452 77.8621 29.265 78.2949C29.072 78.7246 28.9642 79.1877 28.9475 79.6585C28.8953 80.5719 29.0149 81.4658 28.7669 82.2683C28.519 83.0709 28.0057 83.7472 27.7426 84.5106C27.4794 85.274 27.5795 86.0831 27.6926 86.7899C27.8056 87.4967 27.9209 88.197 27.7687 88.8277C27.6164 89.4585 27.1815 89.9152 26.8987 90.4284C26.7502 90.6736 26.6512 90.9455 26.6073 91.2288C26.5759 91.4865 26.5592 91.7457 26.5573 92.0052C26.5577 92.2387 26.524 92.471 26.4572 92.6947C26.3761 92.8863 26.2492 93.0551 26.0875 93.1862C25.8089 93.4108 25.4951 93.5879 25.1588 93.7103C24.9131 93.8035 24.6589 93.8727 24.3998 93.9169C24.2403 93.945 24.0789 93.9602 23.917 93.9626C23.8104 93.9517 23.7539 93.9539 23.7539 93.9539Z" fill="#263238"/>
    <path d="M31.2376 66.0503C31.2264 66.073 31.2184 66.0972 31.2137 66.1221L31.1615 66.3395C31.1158 66.5266 31.0593 66.8071 30.9701 67.1595C30.8809 67.5118 30.6613 67.9076 30.4786 68.397C30.2959 68.8863 30.0936 69.4453 29.9153 70.0781C29.737 70.711 29.5738 71.4113 29.4064 72.1617C29.2621 72.9645 29.0067 73.7434 28.6474 74.4757C28.4538 74.8607 28.2341 75.25 28.0601 75.6763C27.8897 76.1132 27.775 76.5699 27.7187 77.0356C27.6017 77.9971 27.434 78.9517 27.2163 79.8955L25.8766 85.3696L24.7543 89.8325L24.0105 92.8447L23.8148 93.6646L23.7669 93.8821C23.76 93.9061 23.7563 93.931 23.7561 93.956C23.7679 93.9341 23.7766 93.9107 23.7822 93.8864L23.8431 93.6689L24.0606 92.8555L24.8522 89.8542L26.0071 85.3979L27.362 79.9194C27.5822 78.973 27.7514 78.0154 27.8687 77.0508C27.9223 76.5966 28.0326 76.1508 28.1972 75.7241C28.3646 75.3087 28.5799 74.9216 28.7735 74.5323C29.1345 73.7886 29.3892 72.9979 29.5303 72.1834C29.6935 71.4309 29.8457 70.7306 30.0197 70.0999C30.1937 69.4692 30.3764 68.9081 30.5591 68.4209C30.7417 67.9337 30.9418 67.5314 31.0288 67.1682C31.1158 66.805 31.155 66.5288 31.1941 66.3395L31.2311 66.1221C31.2363 66.0985 31.2385 66.0744 31.2376 66.0503Z" fill="#263238"/>
    <path d="M24.1714 93.9604C25.7178 93.0405 26.1614 90.2501 25.5177 88.5689C24.8739 86.8878 23.743 85.3545 23.5603 83.5667C23.4255 82.1901 23.8778 80.7764 23.5603 79.4345C23.1253 77.6185 21.355 76.2113 21.3854 74.3453C21.3963 73.297 21.9922 72.3118 21.9444 71.2657C21.8857 69.9825 20.9004 68.9625 20.2915 67.8337C19.3585 66.0939 19.2954 64.056 18.9866 62.116C18.6777 60.176 17.9274 58.0969 16.2071 57.1421C15.9526 58.7906 15.5198 59.9172 15.6547 62.1443C15.7047 62.9468 16.6355 64.4801 16.7617 66.2374C16.8378 67.2879 16.89 68.3383 16.9531 69.391C17.0161 70.4436 17.0814 71.4549 17.4489 72.4118C17.7295 73.1448 18.1819 73.8103 18.3906 74.5671C18.7821 75.9917 18.2667 77.5337 18.5842 78.9756C18.8517 80.1979 19.6977 81.2505 19.8717 82.4902C20.1153 84.2301 18.9866 86.0417 19.5651 87.7099C19.8522 88.5341 20.5285 89.1953 20.7221 90.0479C20.8722 90.7003 20.7091 91.4071 20.8439 92.0705C21.0614 93.1383 23.0992 93.9691 24.1888 93.9039"/>
    <path d="M16.6181 58.7688C16.6147 58.7999 16.6147 58.8312 16.6181 58.8623L16.6529 59.1342C16.6877 59.3712 16.7291 59.7214 16.8095 60.1738C16.89 60.6261 17.1292 61.1394 17.3163 61.7571C17.5033 62.3747 17.7099 63.0816 17.8839 63.8754C18.0579 64.6692 18.208 65.5479 18.3624 66.4852C18.5168 67.4226 18.6864 68.46 19.1562 69.4452C19.3737 69.9389 19.6173 70.4348 19.8087 70.9676C19.987 71.5093 20.0966 72.0712 20.1349 72.6401C20.2216 73.8487 20.3733 75.0517 20.5895 76.2439L21.9248 83.1273L23.084 88.7341L23.8735 92.5119L24.091 93.5384L24.1519 93.8038C24.1574 93.8343 24.1661 93.8642 24.178 93.8929C24.1815 93.8619 24.1815 93.8305 24.178 93.7994L24.1323 93.5297L23.9388 92.4988L23.1971 88.7124L22.0771 83.0991L20.7373 76.2221C20.5224 75.0334 20.3706 73.8341 20.2828 72.6292C20.2424 72.049 20.1292 71.4761 19.9457 70.9241C19.7565 70.3848 19.5107 69.8889 19.2932 69.4017C18.8278 68.4317 18.6625 67.4183 18.4972 66.4765C18.3319 65.5348 18.1819 64.6518 17.9992 63.8667C17.8165 63.0816 17.6142 62.3595 17.4076 61.7462C17.201 61.1329 16.9726 60.6196 16.8769 60.1781C16.7813 59.7366 16.7378 59.3821 16.6943 59.1472L16.6442 58.8797C16.6404 58.8418 16.6317 58.8045 16.6181 58.7688Z" fill="#263238"/>
    <path d="M64.624 93.8884H34.3564C30.6983 93.871 27.6143 90.7523 27.6143 87.0963L27.9362 10.865C27.9399 9.99485 28.115 9.13396 28.4515 8.3315C28.7879 7.52903 29.2792 6.80072 29.8972 6.18816C30.5152 5.5756 31.2479 5.09079 32.0533 4.76143C32.8587 4.43208 33.7211 4.26462 34.5913 4.26862L64.9981 4.40999C66.7539 4.41862 68.4345 5.12397 69.6706 6.37104C70.9066 7.61812 71.5971 9.30489 71.5901 11.0607L71.2682 87.2921C71.2607 89.0475 70.5568 90.7282 69.311 91.965C68.0652 93.2019 66.3795 93.8936 64.624 93.8884Z" fill="#263238"/>
    <path d="M65.0307 7.30681L59.1346 7.27854C58.9424 7.28194 58.7527 7.32317 58.5764 7.39988C58.4002 7.4766 58.2407 7.58729 58.1072 7.72563C57.9737 7.86398 57.8688 8.02727 57.7984 8.20617C57.728 8.38508 57.6936 8.5761 57.697 8.76832V9.83836C57.7005 10.0306 57.666 10.2216 57.5957 10.4005C57.5253 10.5794 57.4204 10.7427 57.2869 10.8811C57.1534 11.0194 56.9939 11.1301 56.8176 11.2068C56.6413 11.2835 56.4517 11.3247 56.2594 11.3281L44.7674 11.2759C44.3794 11.2651 44.0115 11.1008 43.7444 10.8191C43.4774 10.5374 43.333 10.1612 43.3429 9.77311V8.70308C43.3528 8.31501 43.2085 7.93884 42.9414 7.6571C42.6743 7.37536 42.3064 7.21106 41.9184 7.20024H39.8457L34.6848 7.17632C34.0754 7.17346 33.4714 7.29069 32.9073 7.52132C32.3433 7.75194 31.8302 8.09144 31.3973 8.52043C30.9645 8.94941 30.6205 9.45946 30.3848 10.0215C30.1492 10.5834 30.0266 11.1864 30.024 11.7957L29.7087 86.2045C29.7035 87.4345 30.1869 88.6162 31.0528 89.4898C31.9186 90.3634 33.0959 90.8573 34.3259 90.8631L64.6718 91.0023C65.2812 91.0051 65.8852 90.8879 66.4493 90.6573C67.0133 90.4267 67.5264 90.0872 67.9593 89.6582C68.3921 89.2292 68.7361 88.7191 68.9718 88.1572C69.2074 87.5952 69.33 86.9923 69.3326 86.3829L69.6479 11.9654C69.6531 10.7354 69.1697 9.55373 68.3038 8.68014C67.438 7.80655 66.2607 7.31257 65.0307 7.30681Z" fill="#F5F5F5"/>
    <path d="M52.1512 76.9309C52.1164 77.8292 52.0838 78.6708 52.0555 79.3733H56.4052L55.8724 76.696L52.1512 76.9309Z" fill="#F5F5F5"/>
    <path d="M34.4347 78.0512L34.4717 79.3714H51.6205C51.6488 78.6298 51.6814 77.8055 51.714 76.9573L34.4347 78.0512Z" fill="#F5F5F5"/>
    <path d="M56.1007 76.6832L56.6358 79.3735H64.6719L64.5762 76.146L56.1007 76.6832Z" fill="#F5F5F5"/>
    <path d="M52.5861 39.06L54.1064 30.2475L50.1263 29.9539V39.06H52.5861Z" fill="#F5F5F5"/>
    <path d="M34.0758 73.1621L29.7565 74.8542L29.7435 77.9142L34.2042 77.6315L34.0758 73.1621Z" fill="#F5F5F5"/>
    <path d="M34.0563 72.4748L33.8192 64.2668L33.817 64.269V61.3743L29.8109 61.7984L29.7587 74.1516L34.0541 72.4683L34.0563 72.4748Z" fill="#F5F5F5"/>
    <path d="M33.817 54.9126L29.8435 54.3884L29.8152 61.1414L33.817 60.7173V54.9126Z" fill="#F5F5F5"/>
    <path d="M63.4344 61.4958L63.2691 63.8469L58.5757 64.3536L58.9389 66.2153L64.2652 65.813L64.1869 63.1444L64.611 61.3762L63.4344 61.4958Z" fill="#F5F5F5"/>
    <path d="M54.9763 66.5134L58.7192 66.2307L57.9037 62.0549L54.637 62.3833L54.9763 66.5134Z" fill="#F5F5F5"/>
    <path d="M55.0111 66.9462L55.2982 70.4303L55.8049 75.2063L56.0137 76.2524L64.5631 75.7109L64.2782 66.248L55.0111 66.9462Z" fill="#F5F5F5"/>
    <path d="M40.2981 50.5019L40.6265 51.0652L34.0345 54.9082V64.0426L40.9941 63.5511L54.4021 62.1874L53.9128 56.2131L41.1006 54.5384L41.1855 53.886L53.8584 55.541L53.0276 45.4214L40.483 46.6306L40.4417 46.1956L52.9907 44.9886L52.5557 39.708H40.483L29.8979 41.6415L29.8457 53.7337L33.8583 54.2557L40.2981 50.5019ZM34.7087 63.1727C34.7087 63.1727 34.7587 55.652 34.7087 55.3692L40.0893 52.5071L40.7875 62.7877L34.7087 63.1727Z" fill="#F5F5F5"/>
    <path d="M62.9951 61.5396L58.1212 62.0332L58.4909 63.9254L62.8602 63.4534L62.9951 61.5396Z" fill="#F5F5F5"/>
    <path d="M52.2121 75.3193L52.1664 76.4938L55.7941 76.2632L55.607 75.328L52.2121 75.3193Z" fill="#F5F5F5"/>
    <path d="M44.3977 39.06L45.0371 36.1609H49.9088V29.9386L34.6782 28.8098V34.6537L29.9218 35.7302L29.9001 40.976L40.4329 39.06H44.3977Z" fill="#F5F5F5"/>
    <path d="M54.5609 21.7394L54.4304 21.2066L60.246 18.9055L56.4639 11.3109C56.392 11.3225 56.3193 11.3283 56.2464 11.3283L49.8349 11.2979L50.0089 21.9243L54.5609 21.7394Z" fill="#F5F5F5"/>
    <path d="M63.3735 17.6679V7.30031L59.1347 7.27856C58.9424 7.28196 58.7528 7.32319 58.5765 7.39991C58.4002 7.47662 58.2408 7.58731 58.1073 7.72566C57.9738 7.864 57.8688 8.02729 57.7985 8.2062C57.7281 8.38511 57.6936 8.57613 57.6971 8.76835V9.83838C57.6969 10.0773 57.6405 10.3128 57.5325 10.5259C57.4244 10.739 57.2677 10.9237 57.0751 11.065L60.8593 18.664L63.3735 17.6679Z" fill="#F5F5F5"/>
    <path d="M41.5117 18.1117L41.0224 7.19607H39.8436L35.2437 7.17432L33.2863 16.9373L41.5117 18.1117ZM40.4634 8.3009L40.62 17.1918L34.5064 16.2979L35.8462 8.30307L40.4634 8.3009Z" fill="#F5F5F5"/>
    <path d="M41.7335 18.1531V18.2466C41.7335 19.0991 41.7618 20.639 41.7748 22.2723L49.7849 21.946L49.6174 11.2979L44.7696 11.2761C44.3816 11.2653 44.0137 11.101 43.7466 10.8193C43.4796 10.5375 43.3352 10.1614 43.3451 9.77331V8.70327C43.355 8.3152 43.2106 7.93903 42.9436 7.65729C42.6765 7.37556 42.3086 7.21126 41.9206 7.20044H41.242L41.7313 18.1531H41.7335Z" fill="#F5F5F5"/>
    <path d="M32.6383 16.848L34.5782 7.18066C33.3666 7.20225 32.2116 7.69731 31.3604 8.55987C30.5092 9.42243 30.0296 10.5839 30.0241 11.7957L30.0045 16.6152L30.0241 16.4739L32.6383 16.848Z" fill="#F5F5F5"/>
    <path d="M34.0258 28.762L29.9523 28.4597L29.924 35.0604L34.0258 34.1318V28.762Z" fill="#F5F5F5"/>
    <path d="M32.5947 17.0526L30.0023 16.6807L29.9566 27.3701L30.5156 27.4115L32.5947 17.0526Z" fill="#F5F5F5"/>
    <path d="M40.8223 72.3486L40.8897 63.7666L34.0367 64.2516L34.2803 72.6596L40.8223 72.3486Z" fill="#F5F5F5"/>
    <path d="M42.0837 70.3672L51.7923 75.0171C51.9076 71.9723 52.0098 69.1449 52.0098 68.9557L52.2273 68.9448L52.3295 68.7404C52.4665 68.81 52.4665 68.81 52.3948 70.8805C52.3534 72.0353 52.2969 73.573 52.2382 75.1128H55.5766L55.0807 70.4498L54.4283 62.4028L41.7466 63.6817L42.0837 70.3672Z" fill="#F5F5F5"/>
    <path d="M65.8724 56.1263L65.7637 54.9954L54.1303 56.2046L54.6197 62.1681L64.6654 61.1546L65.8724 56.1263Z" fill="#F5F5F5"/>
    <path d="M49.9089 36.8132H45.5613L45.0654 39.0599H49.9089V36.8132Z" fill="#F5F5F5"/>
    <path d="M64.0781 37.5701L53.2038 36.8176L52.7688 39.3883L53.2277 44.969L64.7067 43.8642L64.0781 37.5701ZM53.5953 39.384L54.1803 37.7615L63.6345 38.3596L64.189 43.0008L53.9237 44.2187L53.5953 39.384Z" fill="#F5F5F5"/>
    <path d="M65.2069 49.2363L64.7284 44.2993L53.243 45.4042L53.6736 50.6565L65.2069 49.2363Z" fill="#F5F5F5"/>
    <path d="M34.2172 78.0663L29.7609 78.349L29.7435 78.0576L29.7369 79.3734H34.2541L34.2172 78.0663Z" fill="#F5F5F5"/>
    <path d="M69.5675 15.2169L69.6327 15.3822L69.6479 11.9655C69.6531 10.7355 69.1697 9.5538 68.3038 8.68021C67.438 7.80662 66.2607 7.31264 65.0307 7.30688H63.5844V17.5875L69.5675 15.2169Z" fill="#F5F5F5"/>
    <path d="M51.7792 75.2541L41.8727 70.5086L41.5226 63.7078L41.1072 63.7491L41.0376 72.5551L34.2955 72.8748V73.0706L34.426 77.6117L51.7357 76.5243L51.7792 75.2541ZM34.7087 73.436L44.1607 72.7835L50.309 75.6369L34.7087 76.4808V73.436Z" fill="#F5F5F5"/>
    <path d="M66.7511 26.635L67.1556 24.2317C63.6019 22.9638 63.3561 19.26 63.367 18.1421L61.0486 19.0599L64.5414 26.0695L66.7511 26.635Z" fill="#F5F5F5"/>
    <path d="M54.0759 55.5542L58.9063 55.0518L57.9559 50.7869L53.7279 51.3067L54.0759 55.5542Z" fill="#F5F5F5"/>
    <path d="M64.0933 30.3214L55.072 30.3193L54.3238 30.2649L53.3038 36.1718L64.0129 36.9135L63.7649 34.3449L64.8197 30.5498L64.0933 30.3214Z" fill="#F5F5F5"/>
    <path d="M63.8737 29.234L63.9868 26.4067L60.4418 19.2883L54.9437 21.4632L56.8337 29.2253L63.8737 29.234ZM60.2265 20.1626L63.4757 26.3436L63.0059 28.2705L57.447 28.053L56.0572 22.207L60.2265 20.1626Z" fill="#F5F5F5"/>
    <path d="M65.2765 63.2576L65.444 68.797L69.3522 68.5773L69.3653 68.7926L65.4505 69.0145L65.6484 75.6435L69.3435 75.4086L69.3718 75.8436L65.6615 76.0784L65.7615 79.3734H69.3631L69.4414 60.8892L65.7572 61.2611L65.2765 63.2576Z" fill="#F5F5F5"/>
    <path d="M41.5182 18.3335L33.2407 17.146L31.1702 27.4592L41.5552 28.2291C41.5965 26.635 41.5704 21.7698 41.5182 18.3335Z" fill="#F5F5F5"/>
    <path d="M55.1329 29.2339H56.3856L54.6131 21.9568L50.0067 22.1438L50.1177 28.862L55.1329 29.2339Z" fill="#F5F5F5"/>
    <path d="M41.7661 28.2422L49.898 28.8447L49.7871 22.1526L41.7879 22.4788C41.7879 24.7429 41.8009 27.157 41.7661 28.2422Z" fill="#F5F5F5"/>
    <path d="M65.27 49.8865L58.1712 50.7608L59.126 55.03L65.7006 54.345L65.27 49.8865Z" fill="#F5F5F5"/>
    <path d="M67.1947 24.0143L67.6493 21.3175L69.6067 21.4697L69.6306 15.6606L63.5866 18.053C63.4648 22.1374 66.0334 23.575 67.1947 24.0143Z" fill="#F5F5F5"/>
    <path d="M64.8676 34.4406L65.1134 36.9896L69.5392 37.2962L69.5632 32.0483L65.855 30.8782L64.8676 34.4406Z" fill="#F5F5F5"/>
    <path d="M66.9729 56.2131L65.8094 61.0479L69.4392 60.6825L69.461 55.6129C68.3474 55.3193 67.3753 55.08 66.8511 54.98L66.9729 56.2131Z" fill="#F5F5F5"/>
    <path d="M64.524 29.3165L69.5675 30.9085L69.5784 28.0398L64.6262 26.761L64.524 29.3165Z" fill="#F5F5F5"/>
    <path d="M66.7989 54.3035C67.2056 54.3644 67.9755 54.521 69.474 54.9234L69.5218 43.8315L65.8246 44.1882L66.7989 54.3035Z" fill="#F5F5F5"/>
    <path d="M65.7702 43.7622L69.5153 43.4034L69.537 37.9488L65.1765 37.6487L65.7702 43.7622Z" fill="#F5F5F5"/>
    <path d="M67.6123 24.1514C68.3213 24.3689 68.9825 24.5342 69.5936 24.6559L69.6045 21.9047L68.0103 21.7808L67.6123 24.1514Z" fill="#F5F5F5"/>
    <path d="M67.1751 26.7436L69.5827 27.3656V24.8775C68.9607 24.7536 68.2778 24.5839 67.5644 24.3643L67.1751 26.7436Z" fill="#F5F5F5"/>
    <path d="M69.3718 75.8412L69.3435 75.4063L65.6462 75.639L65.4461 69.01L69.3609 68.7925L69.3478 68.575L65.4331 68.7925L65.2765 63.2575L65.7571 61.2609L69.4414 60.889V60.6715L65.8115 61.0369L66.9729 56.2131L66.8533 54.9777C67.3752 55.0778 68.3474 55.317 69.4631 55.6106V54.9321C67.9646 54.5384 67.1947 54.3753 66.788 54.3122L65.8093 44.2034L69.5066 43.8468V43.4118L65.7615 43.7728L65.1699 37.6571L69.5197 37.9594V37.3069L65.0916 37.0003L64.8459 34.4513L65.8354 30.8889L69.5327 32.059V30.9193L64.4892 29.3273L64.5914 26.7719L69.5458 28.0529V27.3808L67.1382 26.7588L67.5383 24.3817C68.2604 24.5992 68.9324 24.771 69.5566 24.8949V24.6775C68.9455 24.5557 68.2843 24.3882 67.5753 24.1729L67.9755 21.8023L69.5697 21.9263V21.4913L67.6123 21.339L67.1577 24.0359C65.9985 23.6009 63.43 22.1611 63.5518 18.0724L69.5958 15.68V15.4038L69.5305 15.2385L63.554 17.6026V7.32201H63.3365V17.6896L60.818 18.6857L57.0337 11.0867C56.854 11.2159 56.6459 11.3002 56.4269 11.3325L60.209 18.9249L54.4304 21.1977L54.5609 21.7305L49.9937 21.9176L49.8349 11.2977H49.6174L49.7914 21.935L41.7814 22.2612C41.7683 20.6213 41.7509 19.088 41.7401 18.2355V18.1529L41.2485 7.20674H41.031L41.5204 18.1224L33.2929 16.9415L35.2502 7.17847H34.6891H34.5826L32.6382 16.8479L30.0284 16.4717L30.0088 16.613V16.687L32.6013 17.0589L30.5221 27.4156L29.9631 27.3743V28.4617L34.0367 28.764V34.136L29.9349 35.0646V35.7345L34.6913 34.6579V28.8097L49.9154 29.9385V36.1608H45.0372L44.3977 39.0577H40.433L29.9001 40.9738V41.6414L40.483 39.7102H52.5491L52.9841 44.9907L40.4351 46.1978L40.4765 46.6328L53.0189 45.4257L53.8497 55.5454L41.1768 53.8903L41.0919 54.5428L53.9041 56.2174L54.4021 62.1874L40.9919 63.5402L34.0323 64.0317V54.9081L40.6243 51.063L40.2959 50.4997L33.8583 54.2557L29.8457 53.7272V54.3796L33.817 54.9081V60.7129L29.8152 61.137V61.7894L33.8214 61.3545V64.2601L34.0584 72.4659L29.763 74.1492V74.8517L34.0823 73.1596L34.2107 77.629L29.75 77.9117V78.0574L29.7674 78.3467L34.2237 78.064L34.2607 79.3689H34.4782L34.4412 78.0487L51.7205 76.9613C51.6879 77.8095 51.6553 78.6338 51.627 79.3754H52.062C52.0903 78.6751 52.1229 77.8313 52.1577 76.933L55.8876 76.696L56.4204 79.3732H56.6379L56.1007 76.6829L64.5827 76.1457L64.6806 79.3732H65.768L69.3718 75.8412ZM52.1751 76.4937L52.2207 75.3193H55.6179L55.8049 76.2545L52.1751 76.4937ZM56.0224 76.2501L55.8049 75.204L55.2982 70.4193L55.0111 66.9395L64.2782 66.2414L64.5631 75.7042L56.0224 76.2501ZM58.1299 62.0308L63.0037 61.5393L62.8667 63.4532L58.4974 63.9251L58.1299 62.0308ZM57.9124 62.0526L58.728 66.2283L54.985 66.5111L54.6457 62.3788L57.9124 62.0526ZM64.2739 65.8108L58.9389 66.2175L58.5757 64.3558L63.2691 63.849L63.4365 61.498L64.6132 61.3784L64.1782 63.1465L64.2739 65.8108ZM57.9667 50.7846L58.9193 55.0495L54.0759 55.5606L53.7279 51.3131L57.9667 50.7846ZM59.1368 55.0278L58.1842 50.7585L65.2808 49.8885L65.7158 54.3492L59.1368 55.0278ZM64.0259 36.9111L53.3147 36.1716L54.3347 30.2647L55.0829 30.3191H64.1042L64.8198 30.5496L63.7541 34.3426L64.0259 36.9111ZM63.3735 18.1355C63.3735 19.2577 63.6084 22.9615 67.1621 24.2251L66.751 26.6348L64.5414 26.0629L61.0485 19.0533L63.3735 18.1355ZM60.4461 19.2947L63.9868 26.4174L63.8737 29.2447H56.8336L54.9437 21.4826L60.4461 19.2947ZM54.6196 21.9545L56.3921 29.2316H55.1394L50.1242 28.8597L50.0133 22.1416L54.6196 21.9545ZM49.7958 22.1524L49.9067 28.8445L41.7748 28.2421C41.8096 27.1546 41.8009 24.7427 41.7748 22.4787L49.7958 22.1524ZM33.2472 17.1502L41.5247 18.3377C41.5661 21.774 41.603 26.6435 41.5617 28.2312L31.1767 27.4613L33.2472 17.1502ZM54.1129 30.2538L52.5905 39.0642H50.1263V29.9515L54.1129 30.2538ZM45.5613 36.8132H49.911V39.0577H45.0676L45.5613 36.8132ZM52.7384 39.3904L53.1733 36.8198L64.0477 37.5723L64.6566 43.8685L53.1777 44.9733L52.7384 39.3904ZM64.7175 44.3013L65.196 49.2383L53.6692 50.6584L53.2342 45.4061L64.7175 44.3013ZM54.1303 56.2131L65.7637 55.0038L65.8724 56.1348L64.6632 61.1609L54.6196 62.1657L54.1303 56.2131ZM55.0807 70.4585L55.5766 75.1214H52.2273C52.286 73.5837 52.3425 72.0461 52.3839 70.8891C52.4556 68.8186 52.4556 68.8186 52.3186 68.749L52.2164 68.9534L51.9989 68.9643C51.9989 69.1448 51.9054 71.9874 51.7814 75.0257L42.075 70.3758L41.7314 63.6924L54.413 62.4136L55.0807 70.4585ZM40.8897 63.7751L40.8223 72.3571L34.2803 72.6681L34.0367 64.2601L40.8897 63.7751ZM34.2911 73.0857V72.89L41.0332 72.5702L41.1028 63.7642L41.5182 63.7229L41.8684 70.5237L51.7749 75.2693L51.727 76.5372L34.4173 77.6246L34.2911 73.0857Z" fill="white"/>
    <path d="M44.1607 72.7725L34.7087 73.4358V76.4697L50.309 75.6259L44.1607 72.7725Z" fill="#EBEBEB"/>
    <path d="M63.6301 38.3598L54.1781 37.7617L53.5931 39.3863L53.9128 44.2211L64.1782 43.0032L63.6301 38.3598Z" fill="#EBEBEB"/>
    <path d="M29.737 76.4939L29.7152 84.667V86.333C29.7452 87.538 30.2434 88.6839 31.1042 89.5276C31.965 90.3713 33.1206 90.8465 34.3259 90.8524L64.6719 90.9916C65.2813 90.9944 65.8852 90.8772 66.4493 90.6466C67.0134 90.4159 67.5265 90.0764 67.9593 89.6475C68.3921 89.2185 68.7362 88.7084 68.9718 88.1464C69.2075 87.5844 69.3301 86.9815 69.3326 86.3721L69.3631 76.4939H29.737Z" fill="#EBEBEB"/>
    <path d="M40.62 17.1938L40.4634 8.30298H35.844L34.5064 16.2978L40.62 17.1938Z" fill="#EBEBEB"/>
    <path d="M63.0059 28.2705L63.4757 26.3436L60.2265 20.1626L56.0572 22.2135L57.447 28.0617L63.0059 28.2705Z" fill="#EBEBEB"/>
    <path d="M34.7087 55.3607C34.7587 55.6412 34.7087 63.1641 34.7087 63.1641L40.7853 62.7791L40.0872 52.4985L34.7087 55.3607Z" fill="#EBEBEB"/>
    <path d="M54.9785 61.4697L54.6566 56.809L65.0786 55.4692V56.2718L63.8193 60.5584L54.9785 61.4697Z" fill="#EBEBEB"/>
    <path d="M64.6958 73.3446L64.5653 70.2998L55.4026 70.7348C55.1632 70.7458 54.9249 70.6949 54.711 70.5869L41.714 64.0427C41.5661 63.9676 41.4406 63.855 41.3501 63.716C41.2596 63.577 41.2073 63.4166 41.1985 63.251L39.4303 28.9447C39.4269 28.8642 39.4404 28.7838 39.47 28.7089C39.4996 28.6339 39.5446 28.5661 39.6022 28.5097C39.6595 28.454 39.7278 28.4108 39.8026 28.3827C39.8775 28.3547 39.9573 28.3424 40.0371 28.3466L45.607 28.7598V22.6702H46.2594V28.8424C46.2593 28.9213 46.243 28.9992 46.2115 29.0715C46.1799 29.1437 46.1339 29.2087 46.0761 29.2623C46.0184 29.316 45.9502 29.3572 45.8759 29.3834C45.8015 29.4095 45.7226 29.4201 45.6439 29.4144L40.0785 29.0012L41.8423 63.2184C41.8449 63.2694 41.8609 63.3188 41.8888 63.3616C41.9167 63.4044 41.9554 63.439 42.001 63.462L54.9959 70.0257C55.1094 70.0836 55.2362 70.1106 55.3634 70.104L64.6023 69.6538C64.6784 69.6495 64.7546 69.6606 64.8263 69.6864C64.8981 69.7122 64.9639 69.7521 65.0199 69.8039C65.0759 69.855 65.1213 69.9166 65.1534 69.9853C65.1855 70.054 65.2037 70.1283 65.2069 70.2041L65.3417 73.3207L64.6958 73.3446Z" fill="white"/>
    <path d="M60.7332 20.206C61.4346 20.206 62.0033 19.6374 62.0033 18.9359C62.0033 18.2344 61.4346 17.6658 60.7332 17.6658C60.0317 17.6658 59.463 18.2344 59.463 18.9359C59.463 19.6374 60.0317 20.206 60.7332 20.206Z"/>
    <g opacity="0.6">
    <path opacity="0.6" d="M60.7588 20.3876C61.4602 20.3596 62.0061 19.7682 61.9781 19.0667C61.95 18.3652 61.3586 17.8193 60.6571 17.8474C59.9557 17.8754 59.4098 18.4668 59.4378 19.1683C59.4659 19.8698 60.0573 20.4157 60.7588 20.3876Z" fill="white"/>
    </g>
    <path d="M60.7332 19.7363C61.1992 19.7363 61.577 19.3585 61.577 18.8924C61.577 18.4264 61.1992 18.0486 60.7332 18.0486C60.2671 18.0486 59.8893 18.4264 59.8893 18.8924C59.8893 19.3585 60.2671 19.7363 60.7332 19.7363Z"/>
    <path d="M64.9698 73.8102L64.8133 70.2478C64.8123 70.2222 64.8062 70.1971 64.7954 70.174C64.7845 70.1508 64.7692 70.1301 64.7502 70.1129C64.7315 70.0957 64.7096 70.0823 64.6857 70.0738C64.6618 70.0652 64.6364 70.0615 64.611 70.0629L55.0546 70.5675L53.9019 56.0741L52.4448 39.3799V39.3646L54.0781 30.4477C54.1076 30.285 54.1932 30.1379 54.3199 30.0318C54.4467 29.9257 54.6066 29.8674 54.7719 29.867L63.4126 29.8409C63.5695 29.8406 63.7204 29.7807 63.8347 29.6733C63.949 29.5658 64.0182 29.4189 64.0281 29.2624L64.176 26.87C64.1944 26.5642 64.1346 26.2588 64.002 25.9827L60.6266 18.9404L60.8224 18.8469L64.1978 25.8891C64.346 26.1993 64.4126 26.5421 64.3913 26.8852L64.2434 29.2776C64.2302 29.4895 64.1366 29.6885 63.9819 29.8339C63.8272 29.9794 63.6228 30.0604 63.4105 30.0605L54.7697 30.0866C54.6552 30.0869 54.5443 30.1272 54.4565 30.2008C54.3687 30.2743 54.3094 30.3763 54.2891 30.489L52.6623 39.3886L54.102 56.048L55.2373 70.3304L64.5892 69.8454C64.6432 69.8423 64.6972 69.8501 64.748 69.8684C64.7989 69.8868 64.8455 69.9152 64.885 69.952C64.9253 69.9881 64.958 70.0319 64.9812 70.0808C65.0043 70.1298 65.0175 70.1828 65.0199 70.2369L65.1765 73.7993L64.9698 73.8102Z"/>
    <path d="M65.0199 74.0623C65.3189 74.0623 65.5614 73.8199 65.5614 73.5208C65.5614 73.2217 65.3189 72.9792 65.0199 72.9792C64.7208 72.9792 64.4783 73.2217 64.4783 73.5208C64.4783 73.8199 64.7208 74.0623 65.0199 74.0623Z"/>
    <path d="M54.6251 64.0322C54.9055 64.013 55.1173 63.7701 55.098 63.4897C55.0788 63.2092 54.8359 62.9975 54.5555 63.0167C54.2751 63.0359 54.0634 63.2788 54.0826 63.5592C54.1018 63.8397 54.3447 64.0514 54.6251 64.0322Z"/>
    <path d="M54.637 63.9188C54.3936 63.9355 54.1668 64.0482 54.0065 64.2322C53.8462 64.4161 53.7656 64.6562 53.7823 64.8996L55.6157 64.7735C55.599 64.5305 55.4866 64.304 55.3031 64.1438C55.1196 63.9836 54.8801 63.9026 54.637 63.9188Z"/>
    <path d="M61.8837 58.0835H57.3687C57.1858 58.0835 57.0105 58.1561 56.8812 58.2854C56.7519 58.4147 56.6792 58.5901 56.6792 58.7729V61.6003C56.6792 61.7831 56.7519 61.9585 56.8812 62.0878C57.0105 62.2171 57.1858 62.2897 57.3687 62.2897H57.46V62.9661L58.243 62.2897H61.8837C62.0665 62.2897 62.2419 62.2171 62.3712 62.0878C62.5005 61.9585 62.5731 61.7831 62.5731 61.6003V58.7729C62.5731 58.5901 62.5005 58.4147 62.3712 58.2854C62.2419 58.1561 62.0665 58.0835 61.8837 58.0835Z"/>
    <g opacity="0.4">
    <path opacity="0.4" d="M61.8837 58.0835H57.3687C57.1858 58.0835 57.0105 58.1561 56.8812 58.2854C56.7519 58.4147 56.6792 58.5901 56.6792 58.7729V61.6003C56.6792 61.7831 56.7519 61.9585 56.8812 62.0878C57.0105 62.2171 57.1858 62.2897 57.3687 62.2897H57.46V62.9661L58.243 62.2897H61.8837C62.0665 62.2897 62.2419 62.2171 62.3712 62.0878C62.5005 61.9585 62.5731 61.7831 62.5731 61.6003V58.7729C62.5731 58.5901 62.5005 58.4147 62.3712 58.2854C62.2419 58.1561 62.0665 58.0835 61.8837 58.0835Z" fill="white"/>
    </g>
    <path d="M58.8019 60.3062V60.6781H58.6497V60.3019L58.2147 59.6038H58.3778L58.7214 60.1692L59.0672 59.6038H59.2195L58.8019 60.3062Z" fill="white"/>
    <path d="M59.1869 60.2693C59.1856 60.1856 59.2092 60.1035 59.2546 60.0333C59.3001 59.9631 59.3654 59.9081 59.4423 59.8751C59.5191 59.8421 59.604 59.8326 59.6862 59.848C59.7684 59.8634 59.8442 59.9028 59.904 59.9613C59.9637 60.0198 60.0047 60.0948 60.0218 60.1767C60.0389 60.2585 60.0312 60.3436 59.9998 60.4212C59.9684 60.4987 59.9147 60.5651 59.8454 60.612C59.7762 60.6589 59.6946 60.6842 59.611 60.6847C59.5553 60.6874 59.4997 60.6786 59.4475 60.6588C59.3954 60.639 59.348 60.6086 59.3082 60.5696C59.2683 60.5306 59.237 60.4838 59.2161 60.4321C59.1953 60.3804 59.1853 60.325 59.1869 60.2693ZM59.8828 60.2693C59.8789 60.2155 59.8593 60.1641 59.8263 60.1215C59.7934 60.0789 59.7486 60.0469 59.6976 60.0296C59.6465 60.0123 59.5915 60.0104 59.5395 60.0242C59.4874 60.038 59.4405 60.0668 59.4047 60.1071C59.3689 60.1473 59.3458 60.1973 59.3382 60.2506C59.3306 60.3039 59.3389 60.3583 59.3621 60.407C59.3853 60.4556 59.4223 60.4963 59.4685 60.5241C59.5147 60.5518 59.568 60.5653 59.6218 60.5629C59.6593 60.5631 59.6963 60.5554 59.7306 60.5403C59.7649 60.5253 59.7956 60.5032 59.8209 60.4755C59.8461 60.4479 59.8652 60.4152 59.877 60.3797C59.8888 60.3441 59.893 60.3065 59.8894 60.2693H59.8828Z" fill="white"/>
    <path d="M60.9986 59.8647V60.6782H60.8594V60.5629C60.8274 60.6056 60.7857 60.64 60.7376 60.6632C60.6895 60.6863 60.6365 60.6974 60.5831 60.6955C60.5356 60.7004 60.4875 60.6946 60.4425 60.6784C60.3975 60.6622 60.3567 60.6362 60.3231 60.6022C60.2895 60.5682 60.264 60.527 60.2484 60.4818C60.2328 60.4367 60.2275 60.3885 60.233 60.341V59.8734H60.3809V60.3236C60.3809 60.4824 60.4613 60.5629 60.5984 60.5629C60.6336 60.5651 60.6689 60.5595 60.7017 60.5465C60.7345 60.5335 60.764 60.5133 60.7881 60.4876C60.8123 60.4618 60.8304 60.431 60.8412 60.3974C60.852 60.3638 60.8552 60.3282 60.8507 60.2932V59.8734L60.9986 59.8647Z" fill="white"/>
    <path d="M35.1132 80.6979C35.1445 80.6979 35.1698 80.5518 35.1698 80.3716C35.1698 80.1915 35.1445 80.0454 35.1132 80.0454C35.082 80.0454 35.0567 80.1915 35.0567 80.3716C35.0567 80.5518 35.082 80.6979 35.1132 80.6979Z" fill="#263238"/>
    <path d="M35.1132 82.0028C35.1445 82.0028 35.1698 81.8567 35.1698 81.6766C35.1698 81.4964 35.1445 81.3503 35.1132 81.3503C35.082 81.3503 35.0567 81.4964 35.0567 81.6766C35.0567 81.8567 35.082 82.0028 35.1132 82.0028Z" fill="#263238"/>
    <path d="M35.1132 83.3077C35.1445 83.3077 35.1698 83.1617 35.1698 82.9815C35.1698 82.8013 35.1445 82.6553 35.1132 82.6553C35.082 82.6553 35.0567 82.8013 35.0567 82.9815C35.0567 83.1617 35.082 83.3077 35.1132 83.3077Z" fill="#263238"/>
    <path d="M35.1132 84.6127C35.1445 84.6127 35.1698 84.4666 35.1698 84.2864C35.1698 84.1063 35.1445 83.9602 35.1132 83.9602C35.082 83.9602 35.0567 84.1063 35.0567 84.2864C35.0567 84.4666 35.082 84.6127 35.1132 84.6127Z" fill="#263238"/>
    <path d="M35.1132 85.7349C35.1445 85.7349 35.1698 85.6297 35.1698 85.5C35.1698 85.3703 35.1445 85.2651 35.1132 85.2651C35.082 85.2651 35.0567 85.3703 35.0567 85.5C35.0567 85.6297 35.082 85.7349 35.1132 85.7349Z" fill="#263238"/>
    <path d="M36.0375 86.8506C36.0379 86.7084 36.0054 86.568 35.9426 86.4403C35.8798 86.3127 35.7884 86.2013 35.6755 86.1147C35.5626 86.0282 35.4312 85.9689 35.2917 85.9415C35.1521 85.914 35.008 85.9191 34.8708 85.9564C34.7335 85.9937 34.6067 86.0622 34.5002 86.1566C34.3938 86.2509 34.3105 86.3685 34.2569 86.5003C34.2034 86.6321 34.1809 86.7745 34.1914 86.9163C34.2019 87.0582 34.2449 87.1957 34.3172 87.3182C34.352 87.377 34.3977 87.4205 34.4412 87.4835L34.9784 88.1947C34.994 88.215 35.0141 88.2315 35.0371 88.2428C35.0601 88.2541 35.0854 88.26 35.111 88.26C35.1367 88.26 35.162 88.2541 35.185 88.2428C35.208 88.2315 35.2281 88.215 35.2437 88.1947L35.7722 87.4966C35.8236 87.4385 35.8715 87.3775 35.9157 87.3139C35.9966 87.173 36.0387 87.0131 36.0375 86.8506ZM35.1132 87.253C35.0328 87.253 34.9542 87.2291 34.8873 87.1844C34.8204 87.1398 34.7683 87.0762 34.7375 87.0019C34.7067 86.9276 34.6986 86.8458 34.7143 86.7669C34.73 86.688 34.7688 86.6156 34.8256 86.5587C34.8825 86.5018 34.955 86.4631 35.0339 86.4474C35.1128 86.4317 35.1945 86.4398 35.2689 86.4705C35.3432 86.5013 35.4067 86.5535 35.4514 86.6203C35.4961 86.6872 35.5199 86.7658 35.5199 86.8463C35.5199 86.9541 35.4771 87.0576 35.4008 87.1339C35.3245 87.2101 35.2211 87.253 35.1132 87.253Z" fill="#455A64"/>
    <path d="M58.5757 87.2528C58.5757 87.2833 53.8867 87.3094 48.1059 87.3094C42.3251 87.3094 37.6361 87.2833 37.6361 87.2528C37.6361 87.2224 42.3229 87.1963 48.1059 87.1963C53.8889 87.1963 58.5757 87.2224 58.5757 87.2528Z" fill="#263238"/>
    <path d="M43.9671 86.3917C47.4709 86.3917 50.3112 86.3663 50.3112 86.3351C50.3112 86.3039 47.4709 86.2786 43.9671 86.2786C40.4634 86.2786 37.623 86.3039 37.623 86.3351C37.623 86.3663 40.4634 86.3917 43.9671 86.3917Z"/>
    <path d="M39.3803 88.3489C40.3064 88.3489 41.0572 88.3236 41.0572 88.2924C41.0572 88.2612 40.3064 88.2358 39.3803 88.2358C38.4543 88.2358 37.7035 88.2612 37.7035 88.2924C37.7035 88.3236 38.4543 88.3489 39.3803 88.3489Z" fill="#263238"/>
    <path d="M36.0375 79.6409C36.0379 79.4987 36.0054 79.3583 35.9426 79.2306C35.8798 79.103 35.7884 78.9916 35.6755 78.905C35.5626 78.8185 35.4312 78.7592 35.2917 78.7317C35.1521 78.7043 35.008 78.7094 34.8708 78.7467C34.7335 78.784 34.6067 78.8525 34.5002 78.9469C34.3938 79.0412 34.3105 79.1588 34.2569 79.2906C34.2034 79.4224 34.1809 79.5647 34.1914 79.7066C34.2019 79.8485 34.2449 79.986 34.3172 80.1085C34.352 80.1672 34.3977 80.2107 34.4412 80.2738L34.9784 80.985C34.994 81.0053 35.0141 81.0217 35.0371 81.0331C35.0601 81.0444 35.0854 81.0503 35.111 81.0503C35.1367 81.0503 35.162 81.0444 35.185 81.0331C35.208 81.0217 35.2281 81.0053 35.2437 80.985L35.7722 80.2869C35.8205 80.23 35.8655 80.1704 35.907 80.1085C35.9917 79.9672 36.0368 79.8057 36.0375 79.6409ZM35.1132 80.0433C35.0328 80.0433 34.9542 80.0194 34.8873 79.9747C34.8204 79.93 34.7683 79.8665 34.7375 79.7922C34.7067 79.7179 34.6986 79.6361 34.7143 79.5572C34.73 79.4783 34.7688 79.4059 34.8256 79.349C34.8825 79.2921 34.955 79.2534 35.0339 79.2377C35.1128 79.222 35.1945 79.23 35.2689 79.2608C35.3432 79.2916 35.4067 79.3437 35.4514 79.4106C35.4961 79.4775 35.5199 79.5561 35.5199 79.6366C35.5199 79.7444 35.4771 79.8479 35.4008 79.9241C35.3245 80.0004 35.2211 80.0433 35.1132 80.0433Z"/>
    <path d="M62.9972 80.0431C62.9972 80.0736 57.3186 80.0997 50.3177 80.0997C43.3168 80.0997 37.6361 80.0736 37.6361 80.0431C37.6361 80.0127 43.3125 79.9866 50.3177 79.9866C57.323 79.9866 62.9972 80.0127 62.9972 80.0431Z" fill="#263238"/>
    <path d="M55.5766 79.1254C55.5766 79.1559 51.5574 79.1819 46.5987 79.1819C41.64 79.1819 37.6208 79.1559 37.6208 79.1254C37.6208 79.0949 41.64 79.0688 46.5987 79.0688C51.5574 79.0688 55.5766 79.0949 55.5766 79.1254Z"/>
    <path d="M42.6209 81.1395C45.3379 81.1395 47.5404 81.1141 47.5404 81.0829C47.5404 81.0517 45.3379 81.0264 42.6209 81.0264C39.9039 81.0264 37.7013 81.0517 37.7013 81.0829C37.7013 81.1141 39.9039 81.1395 42.6209 81.1395Z" fill="#263238"/>
    <path d="M99.3024 27.8137L98.3128 25.6062C96.9101 25.4925 95.6006 24.8583 94.6417 23.8282C93.6829 22.798 93.144 21.4465 93.1311 20.0392C93.1181 18.6319 93.632 17.2707 94.5718 16.2231C95.5115 15.1755 96.8092 14.5173 98.2096 14.3778C99.61 14.2384 101.012 14.6278 102.14 15.4696C103.268 16.3113 104.04 17.5445 104.305 18.9267C104.569 20.3089 104.308 21.7401 103.571 22.9391C102.834 24.1381 101.675 25.0181 100.322 25.4061L99.3024 27.8137Z" fill="white"/>
    <path d="M99.3023 27.8139L100.292 25.3954L100.318 25.4346H100.1L100.318 25.3737C101.264 25.0989 102.12 24.5798 102.802 23.8687C103.006 23.6563 103.192 23.4263 103.356 23.1814C103.439 23.0531 103.526 22.9269 103.606 22.7943L103.824 22.3724C104.148 21.6863 104.328 20.9413 104.353 20.1831C104.378 19.4249 104.249 18.6695 103.971 17.9633C103.694 17.2572 103.275 16.6151 102.741 16.0767C102.207 15.5382 101.568 15.1147 100.864 14.8321C100.058 14.5066 99.1868 14.3776 98.3215 14.4558C97.4372 14.5269 96.5828 14.808 95.8291 15.2758C95.1104 15.7264 94.5024 16.3329 94.05 17.0505C93.6196 17.7281 93.3434 18.4921 93.241 19.2884C93.0599 20.7216 93.4342 22.1698 94.2871 23.3358C94.6554 23.8227 95.0954 24.2509 95.592 24.6059C96.3958 25.1658 97.3325 25.5048 98.3084 25.589H98.3345V25.6042L99.3001 27.8226L98.2845 25.626L98.3062 25.6412C97.3172 25.5665 96.3657 25.2311 95.5485 24.669C95.0398 24.3121 94.5887 23.8793 94.211 23.3858C93.334 22.2053 92.9447 20.7328 93.1235 19.2732C93.2262 18.4617 93.5061 17.6828 93.9435 16.9917C94.4035 16.2588 95.0227 15.6388 95.7551 15.1779C96.5237 14.7001 97.3954 14.413 98.2975 14.3406C99.1803 14.2656 100.068 14.402 100.888 14.7386C101.674 15.0583 102.379 15.5477 102.954 16.1718C103.494 16.7661 103.901 17.4691 104.148 18.2336C104.596 19.6118 104.502 21.109 103.885 22.4202L103.667 22.8552C103.585 22.99 103.495 23.1183 103.411 23.2488C103.243 23.4963 103.054 23.7284 102.845 23.9426C102.152 24.6591 101.28 25.1785 100.32 25.4476V25.3932H100.368L100.351 25.4324L99.3023 27.8139Z" fill="#263238"/>
    <path d="M101.162 19.7844C101.163 19.4584 101.088 19.1366 100.945 18.844C100.801 18.5515 100.591 18.296 100.333 18.0976C100.074 17.8992 99.7731 17.7632 99.4532 17.7002C99.1334 17.6371 98.8033 17.6487 98.4887 17.7341C98.1741 17.8195 97.8834 17.9763 97.6393 18.1924C97.3952 18.4085 97.2043 18.678 97.0814 18.98C96.9585 19.2819 96.907 19.6081 96.9308 19.9333C96.9547 20.2584 97.0532 20.5736 97.2188 20.8544C97.2992 20.9914 97.4015 21.0893 97.5037 21.2329L98.7325 22.8618C98.7681 22.9091 98.8143 22.9475 98.8673 22.9739C98.9204 23.0003 98.9788 23.0141 99.038 23.0141C99.0973 23.0141 99.1557 23.0003 99.2087 22.9739C99.2618 22.9475 99.3079 22.9091 99.3436 22.8618L100.553 21.259C100.663 21.1292 100.765 20.9934 100.859 20.8523C101.054 20.5297 101.158 20.161 101.162 19.7844ZM99.0435 20.7065C98.8589 20.7065 98.6786 20.6518 98.5251 20.5493C98.3717 20.4468 98.2521 20.3011 98.1815 20.1306C98.1109 19.9601 98.0924 19.7725 98.1284 19.5915C98.1644 19.4105 98.2532 19.2443 98.3837 19.1138C98.5142 18.9833 98.6805 18.8944 98.8615 18.8584C99.0424 18.8224 99.23 18.8409 99.4005 18.9115C99.571 18.9821 99.7167 19.1017 99.8192 19.2552C99.9218 19.4086 99.9765 19.589 99.9765 19.7735C99.9765 19.8964 99.9522 20.0181 99.9051 20.1316C99.8579 20.2451 99.7888 20.3481 99.7017 20.4348C99.6146 20.5215 99.5112 20.5901 99.3975 20.6368C99.2838 20.6834 99.162 20.7071 99.0391 20.7065H99.0435Z"/>
    <path d="M83.4323 17.5007C83.6281 16.7765 84.1739 16.4132 84.8851 16.1762C85.2427 16.0579 85.6235 16.0275 85.9953 16.0877C86.3671 16.1479 86.7189 16.2969 87.0208 16.522C87.421 16.8265 87.7342 17.268 88.2083 17.4333C88.9891 17.7051 89.9047 17.1201 90.6551 17.4702C90.8775 17.576 91.0566 17.7554 91.162 17.9781C91.2673 18.2008 91.2924 18.453 91.233 18.6921C91.1736 18.9312 91.0334 19.1424 90.8361 19.2899C90.6388 19.4374 90.3966 19.5122 90.1505 19.5016C90.6594 19.6886 90.8182 20.415 90.5202 20.8696C90.3552 21.0864 90.1314 21.2513 89.8754 21.3446C89.6194 21.4379 89.3419 21.4557 89.0761 21.3959C88.5472 21.2662 88.0638 20.9947 87.6777 20.6107C87.2731 20.2475 86.9121 19.8365 86.4815 19.5081C86.063 19.1544 85.5331 18.9595 84.9852 18.9578C84.2522 18.997 83.6215 19.5516 83.2953 20.2084C82.9691 20.8652 82.8929 21.6177 82.8603 22.3528C82.8277 23.0879 82.806 23.8317 82.5885 24.5277C82.5624 24.6103 82.5232 24.7017 82.4406 24.7278C82.321 24.7647 82.2231 24.6386 82.16 24.5277C81.4904 23.2845 81.0715 21.9219 80.9269 20.5172C80.8442 19.7038 80.866 18.9339 81.3118 18.2488C81.7577 17.5638 82.8886 17.0614 83.4432 17.492" fill="#263238"/>
    <path d="M82.023 20.9064L81.6467 29.1383C81.5836 30.5389 81.775 32.6181 83.9934 32.6181C85.9182 32.4724 86.4858 30.6738 86.5445 29.3689C86.5728 28.749 86.5967 28.2314 86.6032 28.1683C86.6032 28.1683 88.7085 28.0661 88.9543 25.9935C89.0739 24.9952 89.15 22.916 89.1979 21.0369C89.2233 20.0604 88.8793 19.1103 88.2346 18.3765C87.5898 17.6426 86.6919 17.1791 85.7202 17.0787L85.5202 17.0569C83.3562 16.9547 82.0578 18.7381 82.023 20.9064Z" fill="#FFBE9D"/>
    <path d="M86.6011 28.1292C85.6416 28.0447 84.7291 27.676 83.9804 27.0701C83.9804 27.0701 84.4588 28.6273 86.5445 28.6621L86.6011 28.1292Z" fill="#EB996E"/>
    <path d="M88.6563 22.5724C88.6486 22.6495 88.6111 22.7206 88.5518 22.7706C88.4925 22.8205 88.4161 22.8454 88.3388 22.8399C88.301 22.8388 88.2638 22.8302 88.2293 22.8145C88.1949 22.7989 88.1639 22.7765 88.1382 22.7488C88.1125 22.7211 88.0926 22.6885 88.0796 22.653C88.0666 22.6175 88.0608 22.5797 88.0626 22.5419C88.0703 22.4648 88.1078 22.3937 88.1671 22.3438C88.2263 22.2938 88.3028 22.2689 88.3801 22.2744C88.4179 22.2755 88.4551 22.2842 88.4895 22.2998C88.524 22.3155 88.5549 22.3378 88.5806 22.3655C88.6063 22.3933 88.6263 22.4258 88.6393 22.4613C88.6523 22.4969 88.6581 22.5346 88.6563 22.5724Z" fill="#263238"/>
    <path d="M88.6367 22.0004C88.5954 22.0352 88.3888 21.846 88.0713 21.8134C87.7537 21.7807 87.5036 21.9156 87.4732 21.8721C87.4427 21.8286 87.5036 21.7873 87.6124 21.7242C87.7603 21.6429 87.9297 21.6095 88.0974 21.6285C88.2594 21.6475 88.4115 21.7167 88.5323 21.8264C88.6302 21.9112 88.6563 21.9852 88.6367 22.0004Z" fill="#263238"/>
    <path d="M85.5245 22.3485C85.5168 22.4256 85.4793 22.4967 85.42 22.5467C85.3607 22.5966 85.2843 22.6215 85.207 22.616C85.1692 22.6149 85.132 22.6063 85.0976 22.5906C85.0631 22.575 85.0322 22.5527 85.0064 22.5249C84.9807 22.4972 84.9608 22.4646 84.9478 22.4291C84.9348 22.3936 84.929 22.3558 84.9308 22.3181C84.9385 22.2409 84.976 22.1698 85.0353 22.1199C85.0946 22.0699 85.171 22.0451 85.2483 22.0506C85.2861 22.0517 85.3233 22.0603 85.3577 22.0759C85.3922 22.0916 85.4231 22.1139 85.4489 22.1416C85.4746 22.1694 85.4945 22.202 85.5075 22.2375C85.5205 22.273 85.5263 22.3107 85.5245 22.3485Z" fill="#263238"/>
    <path d="M85.5028 21.7265C85.4614 21.7613 85.2548 21.5721 84.9373 21.5394C84.6198 21.5068 84.3696 21.6417 84.3392 21.5982C84.3088 21.5547 84.3675 21.5133 84.4784 21.4503C84.6263 21.369 84.7957 21.3355 84.9634 21.3546C85.1254 21.3737 85.2775 21.4429 85.3984 21.5525C85.5028 21.633 85.5245 21.7113 85.5028 21.7265Z" fill="#263238"/>
    <path d="M86.4075 24.2101C86.5806 24.1751 86.7574 24.162 86.9338 24.171C87.0165 24.171 87.0948 24.171 87.1144 24.1101C87.1301 24.0272 87.1202 23.9414 87.0861 23.8643L86.9121 23.2118C86.6728 22.2962 86.5075 21.5459 86.5445 21.5372C86.5815 21.5285 86.8055 22.2636 87.0448 23.1792L87.2079 23.8317C87.2459 23.9363 87.2459 24.0511 87.2079 24.1557C87.1931 24.1831 87.1723 24.2067 87.1471 24.2247C87.1218 24.2428 87.0928 24.2549 87.0622 24.2601C87.0159 24.266 86.9692 24.266 86.923 24.2601C86.7497 24.265 86.5766 24.2482 86.4075 24.2101Z" fill="#263238"/>
    <path d="M85.7203 20.4889C85.6789 20.5715 85.3658 20.4888 84.9895 20.5019C84.6133 20.5149 84.2979 20.5758 84.2566 20.5019C84.2392 20.4628 84.3001 20.3866 84.4306 20.3149C84.6043 20.2301 84.7951 20.186 84.9884 20.186C85.1817 20.186 85.3725 20.2301 85.5463 20.3149C85.6746 20.3736 85.7355 20.4497 85.7203 20.4889Z" fill="#263238"/>
    <path d="M88.6172 21.0675C88.5541 21.1328 88.3432 21.0349 88.08 21.0044C87.8169 20.974 87.5885 21.0044 87.545 20.9196C87.5254 20.8805 87.5689 20.8109 87.6733 20.7543C87.8137 20.6853 87.9716 20.6598 88.1266 20.6811C88.2816 20.7025 88.4267 20.7696 88.5433 20.874C88.6237 20.9566 88.6455 21.0349 88.6172 21.0675Z" fill="#263238"/>
    <path d="M82.023 22.4571C81.9904 22.4375 80.6463 21.8851 80.5397 23.3053C80.4332 24.7255 81.8816 24.5385 81.8882 24.4971C81.8947 24.4558 82.023 22.4571 82.023 22.4571Z" fill="#FFBE9D"/>
    <path d="M81.4901 23.9275C81.4901 23.9275 81.464 23.9427 81.4205 23.9601C81.3612 23.9839 81.295 23.9839 81.2357 23.9601C81.1485 23.895 81.0802 23.808 81.0378 23.7079C80.9954 23.6077 80.9803 23.4981 80.9942 23.3903C80.9999 23.2686 81.0326 23.1497 81.0899 23.0423C81.1066 22.9989 81.1334 22.9602 81.1683 22.9296C81.2031 22.8989 81.2449 22.8771 81.29 22.8661C81.319 22.8606 81.3491 22.8654 81.3749 22.8797C81.4007 22.894 81.4207 22.9169 81.4314 22.9444C81.4466 22.9857 81.4314 23.014 81.4444 23.0162C81.4575 23.0184 81.4771 22.9944 81.4705 22.9357C81.4651 22.8997 81.4474 22.8667 81.4205 22.8422C81.3833 22.8098 81.3349 22.7934 81.2857 22.7965C81.2267 22.8037 81.1706 22.8259 81.1226 22.8609C81.0746 22.8959 81.0364 22.9426 81.0116 22.9966C80.942 23.115 80.9025 23.2487 80.8964 23.3859C80.8812 23.5116 80.903 23.639 80.959 23.7525C81.015 23.866 81.1028 23.9608 81.2117 24.0253C81.249 24.039 81.2889 24.0442 81.3284 24.0404C81.3679 24.0366 81.4061 24.0241 81.4401 24.0036C81.4858 23.9623 81.4945 23.9296 81.4901 23.9275Z" fill="#EB996E"/>
    <path d="M89.6742 20.6499C89.2032 20.7189 88.7226 20.675 88.2719 20.5219C87.8211 20.3687 87.4133 20.1107 87.0818 19.7691C86.6229 19.2885 86.301 18.6338 85.6898 18.3728C85.4806 18.2926 85.2575 18.2548 85.0335 18.2615C84.8094 18.2682 84.589 18.3194 84.3849 18.412C83.9776 18.5995 83.6134 18.869 83.3149 19.2036C83.602 20.2911 83.2083 21.4438 82.8212 22.5073C82.7908 22.6296 82.7204 22.7383 82.6211 22.8161C82.4406 22.927 82.1992 22.7987 82.0709 22.6312C81.8841 22.3446 81.7851 22.0098 81.7859 21.6678C81.719 20.8933 81.807 20.1133 82.0448 19.3733C82.2857 18.6305 82.7394 17.9748 83.3497 17.4877C84.1357 16.9026 85.1183 16.646 86.09 16.7721C87.057 16.905 87.9573 17.3396 88.6629 18.014C89.0034 18.3077 89.2657 18.6813 89.4263 19.1014" fill="#263238"/>
    <path d="M86.5054 25.1127C86.4619 25.2405 86.4004 25.3613 86.3227 25.4716C86.2835 25.5268 86.2329 25.573 86.1744 25.6072C86.1159 25.6413 86.0508 25.6625 85.9834 25.6695C85.9116 25.6689 85.841 25.6505 85.778 25.616C85.715 25.5814 85.6615 25.5318 85.6224 25.4716C85.5464 25.3486 85.5113 25.2047 85.5223 25.0605C85.5223 24.9301 85.5876 24.7756 85.7159 24.7604C85.7702 24.7587 85.824 24.7707 85.8725 24.7952L86.5511 25.0692" fill="#EB996E"/>
    <path d="M86.2335 25.6673C86.1114 25.6748 85.989 25.6593 85.8725 25.6217C85.7538 25.5756 85.6562 25.4873 85.5985 25.3737C85.5685 25.3051 85.5531 25.2311 85.5531 25.1562C85.5531 25.0814 85.5685 25.0073 85.5985 24.9388C85.6138 24.9024 85.6336 24.8681 85.6572 24.8365C85.6833 24.8083 85.6789 24.8104 85.7094 24.8148C85.7398 24.8191 85.7812 24.8431 85.8181 24.8583L85.9291 24.904L86.3162 25.0562C86.4328 25.1123 86.5576 25.1498 86.6859 25.1671C86.5848 25.0869 86.4718 25.0231 86.351 24.9779L85.9726 24.8017L85.8638 24.7517C85.8234 24.7328 85.782 24.7161 85.7398 24.7017C85.7074 24.6909 85.6723 24.6909 85.6398 24.7017C85.6105 24.7146 85.5851 24.7348 85.5659 24.7604C85.5351 24.7997 85.5095 24.8429 85.4897 24.8887C85.4532 24.975 85.4362 25.0683 85.4399 25.1619C85.4437 25.2556 85.4681 25.3472 85.5115 25.4303C85.5848 25.5648 85.7083 25.6648 85.8551 25.7087C85.9502 25.7389 86.0517 25.7427 86.1487 25.7195C86.2053 25.6956 86.2379 25.6739 86.2335 25.6673Z" fill="#263238"/>
    <path d="M99 84.2214L100.583 88.8191C100.583 88.8191 105.79 88.7539 106.164 89.5738L97.3602 92.9688L94.5981 85.9048L99 84.2214Z"/>
    <path d="M97.7147 89.4889C97.6396 89.5471 97.5887 89.6311 97.5718 89.7247C97.5549 89.8183 97.5733 89.9148 97.6233 89.9956C97.6789 90.0723 97.7617 90.1247 97.8548 90.1421C97.9479 90.1595 98.0441 90.1405 98.1236 90.0891C98.2029 90.0271 98.2564 89.9378 98.2737 89.8385C98.291 89.7393 98.2708 89.6372 98.2171 89.5519C98.1506 89.4777 98.0579 89.4322 97.9586 89.4249C97.8592 89.4176 97.7608 89.4491 97.6842 89.5128" fill="#E0E0E0"/>
    <g opacity="0.6">
    <path opacity="0.6" d="M97.3602 92.9685L97.11 92.2465L105.646 89.2712C105.646 89.2712 106.103 89.2908 106.166 89.5844L97.3602 92.9685Z" fill="white"/>
    </g>
    <path d="M100.709 88.719C100.725 88.7625 100.518 88.8647 100.359 89.0844C100.201 89.3041 100.157 89.5194 100.111 89.5194C100.066 89.5194 100.033 89.2453 100.231 88.9822C100.429 88.719 100.705 88.6755 100.709 88.719Z" fill="#263238"/>
    <path d="M101.782 88.7452C101.808 88.7822 101.649 88.9279 101.564 89.1671C101.479 89.4064 101.521 89.613 101.477 89.6282C101.434 89.6434 101.312 89.4107 101.412 89.1149C101.512 88.8191 101.764 88.7039 101.782 88.7452Z" fill="#263238"/>
    <path d="M102.732 89.6476C102.697 89.6715 102.554 89.4801 102.573 89.2126C102.593 88.9451 102.758 88.7624 102.791 88.7929C102.823 88.8233 102.747 88.9951 102.734 89.2278C102.721 89.4605 102.773 89.628 102.732 89.6476Z" fill="#263238"/>
    <path d="M100.233 87.7119C100.233 87.7576 100.016 87.775 99.7743 87.8859C99.5329 87.9969 99.3785 88.1447 99.3393 88.1165C99.3002 88.0882 99.4263 87.8642 99.7069 87.738C99.9874 87.6119 100.242 87.6684 100.233 87.7119Z" fill="#263238"/>
    <path d="M66.6945 83.6167L66.5966 83.745L64.6893 86.2265L62.3295 87.8446L65.4896 93.9343H68.9694C68.9694 93.9343 68.7171 93.097 67.0447 92.6642L66.9337 89.3214L69.9394 86.0199"/>
    <g opacity="0.6">
    <path opacity="0.6" d="M62.3295 87.8534L65.4896 93.9408L68.9694 93.943L68.578 93.421L65.7484 93.2623L62.8319 87.5076L62.3295 87.8534Z" fill="white"/>
    </g>
    <path d="M67.0164 91.1418C66.9903 91.1766 66.7989 91.0635 66.5205 91.07C66.2421 91.0765 66.0529 91.1896 66.0268 91.1548C66.0007 91.12 66.1899 90.9199 66.5183 90.9177C66.8467 90.9156 67.0555 91.1157 67.0164 91.1418Z" fill="#263238"/>
    <path d="M66.9685 90.313C66.9337 90.3369 66.7793 90.1324 66.5009 90.0781C66.2226 90.0237 66.0029 90.1498 65.979 90.115C65.955 90.0802 66.0072 90.0411 66.1051 89.9889C66.2364 89.9218 66.3866 89.9012 66.5312 89.9304C66.6758 89.9596 66.8061 90.037 66.9011 90.1498C66.9707 90.2347 66.9838 90.3043 66.9685 90.313Z" fill="#263238"/>
    <path d="M66.9903 89.2496C66.9512 89.2691 66.8337 89.0669 66.5923 88.9842C66.3509 88.9016 66.1334 88.9842 66.1138 88.9407C66.0943 88.8972 66.1486 88.8755 66.2443 88.8385C66.3731 88.7946 66.5129 88.7954 66.6412 88.8408C66.7695 88.8862 66.8787 88.9735 66.9512 89.0886C67.0055 89.1756 67.0164 89.2409 66.9903 89.2496Z" fill="#263238"/>
    <path d="M67.9233 88.4253C67.882 88.4405 67.7841 88.2426 67.5688 88.1012C67.3535 87.9599 67.1338 87.9403 67.1338 87.8968C67.1338 87.8533 67.3926 87.7967 67.6536 87.9751C67.9146 88.1534 67.9646 88.4187 67.9233 88.4253Z" fill="#263238"/>
    <g opacity="0.6">
    <path opacity="0.6" d="M64.6936 88.1621C64.9218 88.1621 65.1068 87.9771 65.1068 87.7489C65.1068 87.5207 64.9218 87.3357 64.6936 87.3357C64.4654 87.3357 64.2804 87.5207 64.2804 87.7489C64.2804 87.9771 64.4654 88.1621 64.6936 88.1621Z" fill="white"/>
    </g>
    <path d="M78.2822 58.5643L89.0413 74.3321L94.8569 88.1208L99.783 85.487L94.8025 71.6766L87.4841 57.1724L78.2822 58.5643Z" fill="#263238"/>
    <path d="M73.839 57.1724L72.0425 69.8671L64.7002 85.8828L69.0738 88.4252L78.4149 72.5509L83.5997 57.1724H73.839Z" fill="#263238"/>
    <path d="M69.0738 88.4254C69.0846 88.3989 69.0977 88.3734 69.1129 88.3493L69.2347 88.1318L69.7132 87.2923L71.4879 84.2148L77.3774 74.0865L78.4758 72.2052L81.7054 62.4814L82.6754 59.6062L82.9408 58.8298L83.0125 58.6297C83.0197 58.6063 83.0292 58.5837 83.0408 58.5623C83.0336 58.5856 83.0241 58.6082 83.0125 58.6297L82.9516 58.8341L82.7037 59.6149L81.7707 62.5205L78.5758 72.2574L77.4884 74.1408L71.5705 84.2518L69.7502 87.314L69.2543 88.1426L69.1238 88.3601C69.109 88.3833 69.0923 88.4051 69.0738 88.4254Z" fill="#455A64"/>
    <path d="M88.1692 50.3L87.806 44.8519L86.4271 32.0093L86.9165 29.3299L81.4793 27.155L80.8268 28.46C77.5645 28.9515 76.1878 35.3956 76.1878 35.3956L76.0747 48.4992L72.4536 57.3814L73.3931 58.21C74.8786 59.1017 88.7172 58.5406 88.7172 58.5406L88.1692 50.3Z"/>
    <g opacity="0.3">
    <path opacity="0.3" d="M73.839 53.9732C74.7864 55.1746 75.891 56.2433 77.123 57.1507C77.7972 57.6574 78.5976 58.1381 79.4327 58.0054C80.2679 57.8727 80.8377 57.2116 81.3662 56.5896L84.3392 53.0815C84.5251 52.8978 84.6575 52.667 84.722 52.4138C84.739 52.2447 84.7093 52.0741 84.636 51.9207C84.5628 51.7673 84.4488 51.6369 84.3066 51.5438C84.0221 51.363 83.6969 51.2561 83.3605 51.2328C81.2727 50.9849 79.2283 52.0223 77.1295 52.0397C76.4118 52.0397 75.2418 51.9027 74.5632 52.1376L73.839 53.9645" fill=""/>
    </g>
    <path d="M85.0461 45.4239C85.5848 45.9525 85.9203 46.6538 85.9939 47.405C86.0674 48.1561 85.8743 48.9092 85.4484 49.5322L83.5889 52.253L80.8899 55.7676C80.7066 56.006 80.4747 56.2027 80.2097 56.3447C79.9446 56.4867 79.6524 56.5708 79.3523 56.5914C79.0523 56.6119 78.7514 56.5685 78.4694 56.464C78.1874 56.3595 77.9309 56.1962 77.7168 55.9851L65.4092 46.5027C65.0326 46.2123 64.7831 45.7874 64.7129 45.317C64.6428 44.8467 64.7575 44.3674 65.0329 43.9798L70.0351 36.9376C70.1751 36.7398 70.3526 36.5717 70.5577 36.4427C70.7628 36.3138 70.9913 36.2266 71.2301 36.1862C71.469 36.1458 71.7135 36.1529 71.9495 36.2072C72.1856 36.2615 72.4086 36.3619 72.6058 36.5026L85.0461 45.4239Z" fill="#455A64"/>
    <path d="M78.6715 56.5287C78.6801 56.5058 78.691 56.484 78.7041 56.4634L78.8129 56.2786C78.9107 56.1176 79.0586 55.8827 79.2479 55.5848C79.6372 54.9845 80.2135 54.1254 80.9269 53.0663C81.6402 52.0071 82.4993 50.75 83.4301 49.3407C83.673 48.9873 83.891 48.6174 84.0826 48.2337C84.1761 48.0391 84.223 47.8254 84.2196 47.6095C84.2052 47.3917 84.1239 47.1836 83.9869 47.0136C83.7129 46.6613 83.3018 46.4177 82.9212 46.1437L81.7446 45.3085L73.6149 39.5103L71.1682 37.7269L70.4962 37.2506L70.3244 37.1223C70.3077 37.1078 70.2924 37.0918 70.2787 37.0745C70.3009 37.0846 70.3221 37.0969 70.3418 37.1114L70.5201 37.2311L71.1965 37.6986L73.6737 39.4385L81.8229 45.2106L82.9995 46.048C83.3779 46.3285 83.7933 46.5699 84.0869 46.9484C84.2363 47.1348 84.3251 47.3625 84.3414 47.6008C84.3449 47.8333 84.2943 48.0634 84.1935 48.2729C83.9984 48.6621 83.776 49.0371 83.528 49.3951C82.5928 50.8022 81.725 52.0528 81.0052 53.1076C79.548 55.2129 78.6715 56.5287 78.6715 56.5287Z" fill="#263238"/>
    <path d="M83.3431 28.897C83.3431 28.897 79.8481 27.0462 74.5697 35.4216L75.5049 36.5091C75.5049 36.5091 79.9134 28.76 82.8255 29.6952C85.7377 30.6304 81.4619 42.851 81.4619 42.851C81.4619 42.851 87.8691 30.6717 83.3431 28.897Z" fill="#263238"/>
    <path d="M71.6663 38.3185C70.9403 39.0505 70.4845 40.0074 70.3734 41.0324C70.2624 42.0574 70.5028 43.0896 71.0551 43.9601C71.0957 44.021 71.1363 44.0805 71.1769 44.1385L75.9334 51.5178L79.9134 49.0646L76.053 42.0767C76.053 42.0767 77.8429 40.2281 79.7938 38.1489C82.4188 35.3477 85.2135 31.907 83.2127 29.9322C83.2127 29.9322 81.8468 28.8448 79.7503 30.4759C78.23 31.6373 73.9303 35.9871 71.6663 38.3185Z"/>
    <path d="M96.7099 33.0704L98.7825 32.555C98.7825 32.555 99.3436 33.0574 99.0544 33.5772C98.7644 34.1742 98.5045 34.7854 98.2758 35.4084L96.6729 35.926L96.2205 37.231L93.4606 36.0544L94.2022 33.6076L95.7486 31.6937L96.9143 31.5176L97.6994 32.1809C97.6994 32.1809 97.047 32.6572 96.612 32.1439L96.077 32.3506L96.1248 32.6724C96.1351 32.7379 96.1587 32.8007 96.1942 32.8567C96.2297 32.9127 96.2763 32.9608 96.3311 32.9981C96.386 33.0355 96.4479 33.0611 96.513 33.0735C96.5782 33.086 96.6451 33.0849 96.7099 33.0704Z" fill="#FFBE9D"/>
    <path d="M98.7695 32.6399L100.127 31.9874C100.213 31.9608 100.306 31.956 100.395 31.9734C100.484 31.9909 100.567 32.03 100.638 32.0875L100.705 32.2288L99.0827 33.2902L98.7695 32.6399Z" fill="#FFBE9D"/>
    <path d="M95.9204 34.7516C95.9515 34.6308 95.9983 34.5145 96.0596 34.4058C96.1897 34.1456 96.2596 33.8594 96.264 33.5685C96.2607 33.4117 96.2197 33.258 96.1444 33.1205C96.1076 33.0558 96.0763 32.9881 96.0509 32.9182C96.0317 32.8541 96.0236 32.7871 96.027 32.7203C96.0181 32.5945 96.0336 32.4683 96.0726 32.3484C96.0979 32.47 96.1095 32.594 96.1074 32.7181C96.116 32.8464 96.1613 32.9694 96.2379 33.0726C96.3265 33.2224 96.3752 33.3924 96.3793 33.5663C96.3762 33.873 96.2913 34.1733 96.1335 34.4363C96.0816 34.5531 96.0094 34.6599 95.9204 34.7516Z" fill="#EB996E"/>
    <path d="M102.054 29.8062C102.073 29.8453 102.354 30.2629 102.354 30.2629L96.1726 34.8127L95.7855 34.319L102.054 29.8062Z" fill="#263238"/>
    <path d="M98.2453 35.3172C98.2706 35.2793 98.2881 35.2366 98.2966 35.1918C98.3052 35.147 98.3047 35.101 98.2952 35.0564C98.2857 35.0118 98.2673 34.9696 98.2412 34.9322C98.2151 34.8948 98.1817 34.863 98.1431 34.8387C97.9809 34.7477 97.7959 34.7054 97.6103 34.7169C97.3078 34.699 97.0042 34.7157 96.7055 34.767C96.6061 34.7811 96.5119 34.82 96.4315 34.8801C96.3918 34.9108 96.3623 34.9527 96.3468 35.0004C96.3313 35.0481 96.3305 35.0994 96.3445 35.1476C96.388 35.2606 96.5228 35.3041 96.6425 35.3281C96.9632 35.391 97.2902 35.4166 97.6168 35.4042" fill="#FFBE9D"/>
    <path d="M97.6168 35.402C97.4251 35.442 97.228 35.4494 97.0339 35.4238C96.9447 35.4238 96.8447 35.4064 96.7403 35.3911C96.6216 35.3814 96.5061 35.3473 96.401 35.2911C96.369 35.2712 96.3417 35.2445 96.321 35.213C96.3003 35.1814 96.2868 35.1457 96.2814 35.1084C96.2735 35.0305 96.2961 34.9525 96.3445 34.8909C96.4447 34.7821 96.582 34.7146 96.7294 34.7017C96.9867 34.6597 97.2478 34.6458 97.508 34.6604C97.7258 34.6456 97.9435 34.6891 98.1387 34.7865C98.2043 34.827 98.2569 34.8853 98.2904 34.9547C98.3239 35.024 98.337 35.1015 98.328 35.178C98.3084 35.2867 98.2475 35.3215 98.2453 35.315C98.2431 35.3085 98.2801 35.2672 98.2845 35.1736C98.2844 35.1086 98.267 35.0447 98.2342 34.9885C98.2013 34.9323 98.1541 34.8859 98.0974 34.8539C97.9106 34.7758 97.7074 34.7452 97.5059 34.7648C97.2533 34.7563 97.0006 34.7724 96.7512 34.8126C96.6316 34.8211 96.519 34.872 96.4337 34.9562C96.417 34.9733 96.4043 34.9938 96.3965 35.0165C96.3888 35.0391 96.3862 35.0631 96.3889 35.0868C96.3916 35.1106 96.3996 35.1334 96.4122 35.1537C96.4248 35.174 96.4418 35.1912 96.4619 35.2041C96.5544 35.2539 96.6555 35.2856 96.7599 35.2976C96.8621 35.3172 96.9578 35.3324 97.0448 35.3433C97.3949 35.389 97.6168 35.3846 97.6168 35.402Z" fill="#EB996E"/>
    <path d="M98.7694 34.0514C98.2758 33.9296 97.9234 33.8817 97.4297 33.7599C97.2728 33.704 97.1022 33.6994 96.9426 33.7469C96.7903 33.8121 96.6946 34.0252 96.8055 34.147C96.8484 34.1869 96.8997 34.2166 96.9556 34.234L98.4302 34.8125" fill="#FFBE9D"/>
    <path d="M98.4258 34.815C98.2284 34.7724 98.0354 34.7113 97.8495 34.6323L97.2362 34.4148L96.873 34.2756C96.8332 34.2611 96.7972 34.2377 96.7678 34.2072C96.7384 34.1766 96.7164 34.1398 96.7034 34.0995C96.6939 34.0577 96.6929 34.0144 96.7003 33.9722C96.7078 33.93 96.7236 33.8897 96.7469 33.8537C96.7904 33.782 96.8572 33.7275 96.9361 33.6993C97.006 33.6755 97.0799 33.6659 97.1536 33.671C97.2846 33.6858 97.4142 33.712 97.5407 33.7493L98.1757 33.8972C98.3752 33.9301 98.5701 33.9863 98.7564 34.0647C98.5559 34.0493 98.3568 34.0195 98.1605 33.9755C97.9778 33.9429 97.7582 33.9059 97.5081 33.8515C97.3868 33.8186 97.2632 33.7954 97.1383 33.7819C97.0798 33.7727 97.0199 33.78 96.9653 33.8031C96.9107 33.8261 96.8637 33.864 96.8295 33.9124C96.7991 33.9586 96.7875 34.0146 96.7969 34.069C96.8054 34.0935 96.8194 34.1156 96.8379 34.1337C96.8564 34.1518 96.8788 34.1654 96.9035 34.1734L97.258 34.3169L97.8626 34.567C98.0579 34.6314 98.2465 34.7144 98.4258 34.815Z" fill="#EB996E"/>
    <path d="M99.0826 33.2816L97.7473 33.0402C97.5871 32.9943 97.4166 33.0004 97.2601 33.0576C97.1122 33.1316 97.0296 33.3534 97.1492 33.4665C97.1948 33.5041 97.2483 33.5308 97.3058 33.5448L98.813 34.0298" fill="#FFBE9D"/>
    <path d="M98.813 34.0297C98.6138 33.9998 98.4179 33.951 98.2279 33.884L97.6037 33.697L97.234 33.5817C97.1934 33.5703 97.1559 33.5499 97.1243 33.5221C97.0927 33.4942 97.0677 33.4596 97.0513 33.4208C97.0377 33.3802 97.0326 33.3372 97.0363 33.2945C97.0401 33.2519 97.0526 33.2104 97.0731 33.1728C97.11 33.0981 97.1714 33.0382 97.2471 33.0032C97.3157 32.9733 97.3897 32.9578 97.4645 32.9575C97.5964 32.9621 97.7275 32.9796 97.856 33.0097L98.4954 33.138C98.6946 33.1679 98.8905 33.2167 99.0805 33.2838C98.8794 33.2803 98.6792 33.2577 98.4824 33.2163L97.8299 33.1119C97.7075 33.0864 97.583 33.0718 97.458 33.0684C97.3989 33.0636 97.3397 33.0758 97.2873 33.1036C97.2349 33.1313 97.1915 33.1734 97.1622 33.225C97.0165 33.4904 97.4167 33.5099 97.6233 33.5991L98.241 33.8166C98.438 33.8691 98.6296 33.9405 98.813 34.0297Z" fill="#EB996E"/>
    <path d="M96.3771 37.042L92.3536 45.6371C92.1658 46.0387 91.8794 46.3862 91.5212 46.6474C91.1631 46.9087 90.7446 47.0751 90.3049 47.1312C89.7405 47.2036 89.1679 47.0909 88.673 46.8101C88.1781 46.5294 87.7876 46.0956 87.5602 45.574L84.5589 38.6993L86.264 31.283L90.2875 39.9368L93.5846 35.263L96.3771 37.042Z"/>
    <path d="M89.7318 41.359C90.0479 40.5347 90.2806 39.8574 90.2514 39.8462C90.2222 39.835 89.9424 40.4942 89.6262 41.3185C89.3101 42.1428 89.0775 42.8201 89.1067 42.8313C89.1359 42.8425 89.4157 42.1833 89.7318 41.359Z" fill="#263238"/>
    <path d="M88.2213 50.2084C88.2088 50.1489 88.2008 50.0885 88.1974 50.0278L88.1496 49.495L87.9821 47.5376L87.421 41.0848C87.1926 38.5641 86.9664 36.2849 86.7838 34.6385L86.5663 32.6811L86.5054 32.1504C86.4954 32.0893 86.4903 32.0275 86.4901 31.9656C86.5075 32.0254 86.5198 32.0865 86.5271 32.1483L86.6098 32.6768C86.6772 33.1357 86.7685 33.8012 86.8686 34.6341C87.0708 36.2805 87.3035 38.5489 87.5384 41.0804C87.7733 43.612 87.9473 45.8847 88.0647 47.5376L88.1952 49.495L88.2235 50.0278C88.2294 50.0879 88.2287 50.1485 88.2213 50.2084Z" fill="#263238"/>
    <path d="M79.076 49.5583L79.6002 50.6458C79.6002 50.6458 80.6398 50.7719 81.0704 50.972C81.501 51.1721 83.0473 52.5162 83.0473 52.5162C82.9958 52.6227 82.9088 52.7081 82.8013 52.7577C82.6938 52.8073 82.5725 52.818 82.458 52.788C82.1159 52.5953 81.7887 52.3772 81.4793 52.1356C81.3933 52.1496 81.3123 52.185 81.2436 52.2385C81.1749 52.292 81.1207 52.3619 81.0861 52.4418C81.0515 52.5217 81.0374 52.609 81.0453 52.6957C81.0532 52.7824 81.0828 52.8658 81.1313 52.9381C81.4379 53.3992 81.7837 53.9385 81.8272 54.0255C81.8707 54.1125 82.5471 54.3996 83.0582 54.604C83.1244 54.6327 83.18 54.6814 83.2172 54.7432C83.2544 54.8051 83.2712 54.877 83.2655 54.9489C83.2597 55.0209 83.2316 55.0892 83.1851 55.1444C83.1386 55.1995 83.076 55.2387 83.006 55.2565C82.9762 55.2653 82.9445 55.2653 82.9147 55.2565C82.9147 55.2565 83.1626 55.7785 82.2622 55.6284C82.2622 55.6284 81.6663 56.0351 81.2031 55.7828C81.2031 55.7828 80.3527 55.9742 79.9764 55.8502C79.6002 55.7263 78.0386 53.5253 78.0386 53.5253L76.6837 51.0655L79.076 49.5583Z" fill="#FFBE9D"/>
    <path d="M80.4854 53.5012C80.5233 53.6541 80.5834 53.8006 80.6637 53.9362C80.8245 54.29 81.0667 54.6008 81.3705 54.8431C81.6915 55.0539 82.0617 55.1775 82.4449 55.202C82.5991 55.2261 82.7561 55.2261 82.9103 55.202C82.7628 55.1602 82.6111 55.1346 82.458 55.1259C82.0952 55.078 81.7475 54.9502 81.4401 54.7518C81.1524 54.5198 80.9136 54.2329 80.7376 53.9079C80.6691 53.7633 80.5844 53.6269 80.4854 53.5012Z" fill="#EB996E"/>
    <path d="M80.0417 54.0081C80.0549 54.1546 80.1034 54.2956 80.1831 54.4192C80.2547 54.5586 80.3369 54.6924 80.4288 54.8194C80.5385 54.9828 80.6807 55.122 80.8464 55.2283C81.0169 55.316 81.1972 55.3831 81.3836 55.4283L81.8186 55.5458C81.9525 55.5919 82.0924 55.6183 82.234 55.6241C82.1121 55.551 81.9802 55.496 81.8425 55.461C81.7207 55.4175 81.5706 55.3696 81.4075 55.3196C81.2317 55.2706 81.0613 55.2043 80.8986 55.1217C80.7469 55.0229 80.6149 54.8968 80.5093 54.7498C80.4158 54.6297 80.3287 54.5049 80.2483 54.3757C80.1178 54.1539 80.0656 54.0038 80.0417 54.0081Z" fill="#EB996E"/>
    <path d="M79.5741 54.6343C79.5328 54.6626 79.8111 55.0562 80.1744 55.5042C80.226 55.5659 80.2926 55.6131 80.3679 55.6413C80.4294 55.6692 80.4926 55.6932 80.5571 55.713C80.6649 55.7475 80.7755 55.7722 80.8877 55.787C81.0791 55.8109 81.2009 55.787 81.1987 55.7717C81.1025 55.7393 81.0035 55.716 80.9029 55.7021C80.7976 55.6761 80.6937 55.6441 80.5919 55.6065C80.5327 55.5848 80.4746 55.5601 80.4179 55.5325C80.3609 55.5103 80.3101 55.4744 80.27 55.4281C80.0874 55.1976 79.9155 54.9931 79.7894 54.8561C79.7267 54.7739 79.6544 54.6994 79.5741 54.6343Z" fill="#EB996E"/>
    <path d="M85.9377 28.9905C85.9108 29.3521 85.857 29.7112 85.7768 30.0649C85.7309 30.425 85.6582 30.7812 85.5593 31.1306C85.5435 30.7653 85.5764 30.3996 85.6572 30.0431C85.7036 29.6813 85.798 29.3274 85.9377 28.9905Z" fill="#263238"/>
    <path d="M84.0422 29.0854C84.1453 28.759 84.2048 28.4868 84.1751 28.4775C84.1455 28.4681 84.0379 28.7251 83.9348 29.0514C83.8317 29.3778 83.7723 29.6499 83.8019 29.6593C83.8316 29.6687 83.9392 29.4117 84.0422 29.0854Z" fill="#263238"/>
    <path d="M83.3459 28.5537C83.4917 28.2694 83.5874 28.0274 83.5596 28.0131C83.5318 27.9989 83.3911 28.2178 83.2453 28.5021C83.0995 28.7864 83.0038 29.0284 83.0316 29.0427C83.0594 29.0569 83.2001 28.838 83.3459 28.5537Z" fill="#263238"/>
    <path d="M81.9366 28.2709C82.1986 27.9269 82.3909 27.6327 82.366 27.6138C82.3412 27.5949 82.1086 27.8584 81.8466 28.2024C81.5846 28.5463 81.3923 28.8405 81.4171 28.8595C81.442 28.8784 81.6745 28.6149 81.9366 28.2709Z" fill="#263238"/>
    <path d="M76.0747 42.1464C75.9494 42.0656 75.8289 41.9778 75.7137 41.8832C75.1285 41.4726 74.425 41.2648 73.7106 41.2917C73.5662 41.3078 73.421 41.3157 73.2756 41.3156C73.4125 41.2529 73.5602 41.2175 73.7106 41.2112C74.4493 41.1379 75.1874 41.3556 75.768 41.818C75.8907 41.9064 75.9948 42.018 76.0747 42.1464Z" fill="#263238"/>
    <path d="M74.9068 39.3667C75.0408 39.4482 75.1594 39.5527 75.257 39.6755C75.766 40.2405 76.0847 40.951 76.1682 41.7069C76.1956 41.8608 76.1956 42.0184 76.1682 42.1723C76.0704 41.124 75.6284 40.1375 74.9111 39.3667H74.9068Z" fill="#263238"/>
    <path d="M79.9286 49.0123C79.8964 48.9707 79.868 48.9263 79.8438 48.8796L79.6263 48.4903L78.7976 47.0375L76.0399 42.1245L76.0203 42.0875L76.0486 42.0571L76.8924 41.1675L81.3575 36.4937L82.7189 35.0866L83.093 34.7082C83.1352 34.6625 83.181 34.6203 83.23 34.582C83.1941 34.6331 83.1541 34.6811 83.1104 34.7256L82.7428 35.1171L81.4075 36.5503L76.9664 41.2458L76.1204 42.1332V42.0679L78.8455 47.0005L79.6437 48.4686L79.8611 48.8666C79.888 48.913 79.9106 48.9618 79.9286 49.0123Z" fill="#263238"/>
    <g opacity="0.3">
    <path opacity="0.3" d="M77.845 40.2411L79.3979 41.3547C79.6188 41.2389 79.8112 41.0754 79.9612 40.8762C81.1285 39.2454 81.9811 37.411 82.4753 35.4673L77.845 40.2411Z" fill=""/>
    </g>
    <path d="M80.0873 37.7966C80.0591 37.5078 79.9733 37.2275 79.8351 36.9723C79.6781 36.7012 79.4689 36.4639 79.2196 36.2742C78.91 36.0442 78.5695 35.859 78.2083 35.724C77.8255 35.5695 77.4449 35.4651 77.1056 35.3281C76.7976 35.2178 76.5197 35.0368 76.2944 34.7996C76.1435 34.6366 76.041 34.4348 75.9986 34.2168C75.9788 34.1383 75.9788 34.0561 75.9986 33.9775C75.9986 33.9775 75.9986 34.0624 76.0399 34.2081C76.0962 34.4107 76.2033 34.5955 76.3509 34.7453C76.5744 34.9646 76.8442 35.131 77.1404 35.2324C77.471 35.3608 77.8581 35.463 78.2452 35.6196C78.6161 35.7587 78.9643 35.9522 79.2783 36.1937C79.5353 36.3955 79.7472 36.6489 79.9003 36.9375C80.0026 37.1316 80.0669 37.3435 80.0895 37.5617C80.1033 37.6395 80.1026 37.7191 80.0873 37.7966Z" fill="#F5F5F5"/>
    <path d="M87.1992 38.7666C87.1024 38.7667 87.0058 38.7601 86.9099 38.747C86.6478 38.7281 86.3847 38.7281 86.1226 38.747C85.7899 38.7709 85.3984 38.8275 84.9612 38.8949C84.4862 38.9769 84.0056 39.0235 83.5236 39.0341C83.0342 39.0465 82.5479 38.9515 82.0991 38.7557C81.7351 38.5851 81.4229 38.3209 81.1944 37.9902C81.04 37.768 80.9436 37.5109 80.9138 37.242C80.9067 37.1697 80.9067 37.0968 80.9138 37.0245C80.9138 36.9745 80.9138 36.9484 80.9269 36.9506C80.9399 36.9527 80.9269 37.055 80.9573 37.2376C81.0023 37.4941 81.1057 37.7367 81.2596 37.9467C81.4877 38.2575 81.7917 38.5046 82.1426 38.6644C82.5794 38.8475 83.0502 38.9357 83.5236 38.9232C84.0009 38.9128 84.4768 38.8699 84.9482 38.7948C85.3832 38.734 85.7833 38.6839 86.1204 38.6709C86.3861 38.6568 86.6526 38.667 86.9164 38.7013C87.0132 38.7103 87.1083 38.7323 87.1992 38.7666Z" fill="#F5F5F5"/>
    <path d="M88.6585 36.7398C88.4953 37.0355 88.2704 37.2926 87.9991 37.4937C87.7278 37.6949 87.4164 37.8353 87.0861 37.9055C87.0752 37.8729 87.4971 37.7272 87.9321 37.4031C88.3671 37.0791 88.6302 36.7202 88.6585 36.7398Z" fill="#F5F5F5"/>
    <path d="M89.2784 38.2053C89.0521 38.5697 88.7553 38.8852 88.4053 39.1332C88.0554 39.3813 87.6593 39.5568 87.2405 39.6494C87.6166 39.4672 87.9806 39.2609 88.3301 39.0318C88.6637 38.7771 88.9805 38.501 89.2784 38.2053Z" fill="#F5F5F5"/>
    <path d="M87.4819 41.2067C87.0914 40.992 86.6616 40.8581 86.2183 40.8131C85.7355 40.7748 85.2504 40.7748 84.7676 40.8131C84.1712 40.8634 83.5714 40.8598 82.9755 40.8022C81.8894 40.6824 80.8392 40.342 79.8894 39.8018C79.6036 39.6381 79.329 39.4557 79.0673 39.2559C78.9694 39.1848 78.8777 39.1055 78.7933 39.0188C78.8985 39.0782 78.9988 39.1458 79.0934 39.2211C79.363 39.4054 79.6417 39.576 79.9286 39.7322C80.8775 40.2454 81.9164 40.5711 82.9886 40.6913C83.5785 40.7482 84.1722 40.7547 84.7633 40.7108C85.2509 40.6761 85.7406 40.6833 86.227 40.7326C86.5571 40.7701 86.8785 40.8635 87.1774 41.0088C87.2581 41.0476 87.3353 41.0935 87.4079 41.1458C87.4601 41.1784 87.484 41.2067 87.4819 41.2067Z" fill="#F5F5F5"/>
    <path d="M79.1956 38.5404C79.1883 38.5925 79.1729 38.6432 79.15 38.6905L79.1347 38.7318L79.1173 38.6905C78.968 38.3792 78.7214 38.125 78.4148 37.9663C78.1784 37.8392 77.9281 37.74 77.6689 37.6705C77.3883 37.5878 77.0773 37.5161 76.7641 37.4008C76.0967 37.1568 75.5034 36.7448 75.0416 36.2046C74.9024 36.0428 74.7779 35.8689 74.6697 35.6848C74.6252 35.6177 74.5907 35.5444 74.5675 35.4673C74.5849 35.4565 74.7415 35.7522 75.1004 36.1459C75.568 36.6588 76.152 37.0519 76.8033 37.2921C77.1099 37.403 77.4166 37.4769 77.7015 37.5639C77.9674 37.6387 78.2231 37.7461 78.4627 37.8836C78.7805 38.0546 79.0255 38.3351 79.1521 38.6731H79.1195C79.138 38.6253 79.1637 38.5805 79.1956 38.5404Z" fill="#F5F5F5"/>
    </g>
    <defs>
    <clipPath id="clip0">
    <rect width="121" height="94" fill="white"/>
    </clipPath>
    </defs>
</svg>
